<ttFont>
<head>
    <!-- Most of this table will be recalculated by the compiler -->
    <tableVersion value="1.0"/>
    <fontRevision value="1.0"/>
    <checkSumAdjustment value="0x33266f5d"/>
    <magicNumber value="0x5f0f3cf5"/>
    <flags value="00000000 00011111"/>
    <unitsPerEm value="2048"/>
    <created value="Wed Sep 08 11:29:02 2010"/>
    <modified value="Fri Nov 19 12:50:47 2010"/>
    <xMin value="-118"/>
    <yMin value="-578"/>
    <xMax value="2824"/>
    <yMax value="2376"/>
    <macStyle value="00000000 00000010"/>
    <lowestRecPPEM value="8"/>
    <fontDirectionHint value="2"/>
    <indexToLocFormat value="0"/>
    <glyphDataFormat value="0"/>
  </head>
    <TTGlyph name=".notdef" xMin="67" yMin="0" xMax="800" yMax="1363">
      <contour>
        <pt x="67" y="0" on="1"/>
        <pt x="258" y="1363" on="1"/>
        <pt x="800" y="1363" on="1"/>
        <pt x="609" y="0" on="1"/>
      </contour>
      <contour>
        <pt x="139" y="65" on="1"/>
        <pt x="555" y="65" on="1"/>
        <pt x="728" y="1298" on="1"/>
        <pt x="312" y="1298" on="1"/>
      </contour>
    </TTGlyph>
    <TTGlyph name="A" xMin="43" yMin="0" xMax="1277" yMax="1577">
      <contour>
        <pt x="899" y="1489" on="1"/>
        <pt x="709" y="1076" on="1"/>
        <pt x="435" y="481" on="1"/>
        <pt x="1038" y="481" on="1"/>
        <pt x="953" y="1083" on="1"/>
      </contour>
      <contour>
        <pt x="773" y="1577" on="1"/>
        <pt x="1050" y="1577" on="1"/>
        <pt x="1277" y="0" on="1"/>
        <pt x="1104" y="0" on="1"/>
        <pt x="1051" y="382" on="1"/>
        <pt x="389" y="382" on="1"/>
        <pt x="214" y="0" on="1"/>
        <pt x="43" y="0" on="1"/>
      </contour>
    </TTGlyph>
    <TTGlyph name="AE" xMin="43" yMin="0" xMax="2076" yMax="1572">
      <contour>
        <pt x="1236" y="886" on="1"/>
        <pt x="1884" y="886" on="1"/>
        <pt x="1871" y="779" on="1"/>
        <pt x="1220" y="779" on="1"/>
        <pt x="1128" y="138" on="1"/>
        <pt x="1883" y="138" on="1"/>
        <pt x="1865" y="0" on="1"/>
        <pt x="948" y="0" on="1"/>
        <pt x="1003" y="384" on="1"/>
        <pt x="474" y="384" on="1"/>
        <pt x="225" y="0" on="1"/>
        <pt x="43" y="0" on="1"/>
        <pt x="1092" y="1572" on="1"/>
        <pt x="2076" y="1572" on="1"/>
        <pt x="2057" y="1441" on="1"/>
        <pt x="1314" y="1441" on="1"/>
      </contour>
      <contour>
        <pt x="1017" y="481" on="1"/>
        <pt x="1147" y="1432" on="1"/>
        <pt x="555" y="481" on="1"/>
      </contour>
    </TTGlyph>
    <TTGlyph name="AEacute" xMin="43" yMin="0" xMax="2076" yMax="1572">
      <component glyphName="AE" x="0" y="0" flags="0x4"/>
    </TTGlyph>
    <TTGlyph name="Aacute" xMin="43" yMin="0" xMax="1277" yMax="2298">
      <component glyphName="A" x="0" y="0" flags="0x204"/>
      <component glyphName="acute" x="503" y="1560" flags="0x4"/>
    </TTGlyph>
    <TTGlyph name="Aasciitilde" xMin="43" yMin="0" xMax="1303" yMax="1962">
      <component glyphName="A" x="0" y="0" flags="0x4"/>
      <component glyphName="asciitilde" x="513" y="1579" flags="0x4"/>
    </TTGlyph>
    <TTGlyph name="Abreve" xMin="43" yMin="0" xMax="1277" yMax="1577">
      <component glyphName="A" x="0" y="0" flags="0x4"/>
    </TTGlyph>
    <TTGlyph name="Acaron" xMin="43" yMin="0" xMax="1277" yMax="2203">
      <component glyphName="A" x="0" y="0" flags="0x204"/>
      <component glyphName="caron" x="471" y="1560" flags="0x4"/>
    </TTGlyph>
    <TTGlyph name="Acircumflex" xMin="43" yMin="0" xMax="1277" yMax="2203">
      <component glyphName="A" x="0" y="0" flags="0x204"/>
      <component glyphName="circumflex" x="552" y="1560" flags="0x4"/>
    </TTGlyph>
    <TTGlyph name="Adieresis" xMin="43" yMin="0" xMax="1277" yMax="1932">
      <component glyphName="A" x="0" y="0" flags="0x204"/>
      <component glyphName="dieresis" x="427" y="1560" flags="0x4"/>
    </TTGlyph>
    <TTGlyph name="Agrave" xMin="43" yMin="0" xMax="1277" yMax="2322">
      <component glyphName="A" x="0" y="0" flags="0x204"/>
      <component glyphName="grave" x="607" y="1560" flags="0x4"/>
    </TTGlyph>
    <TTGlyph name="Amacron" xMin="43" yMin="0" xMax="1277" yMax="1577">
      <component glyphName="A" x="0" y="0" flags="0x4"/>
    </TTGlyph>
    <TTGlyph name="Aogonek" xMin="43" yMin="0" xMax="1277" yMax="1577">
      <component glyphName="A" x="0" y="0" flags="0x4"/>
    </TTGlyph>
    <TTGlyph name="Aring" xMin="43" yMin="0" xMax="1277" yMax="2077">
      <component glyphName="A" x="0" y="0" flags="0x204"/>
      <component glyphName="ring" x="599" y="1560" flags="0x4"/>
    </TTGlyph>
    <TTGlyph name="Aringacute" xMin="43" yMin="0" xMax="1277" yMax="1577">
      <component glyphName="A" x="0" y="0" flags="0x4"/>
    </TTGlyph>
    <TTGlyph name="Atilde" xMin="43" yMin="0" xMax="1279" yMax="1940">
      <component glyphName="A" x="0" y="0" flags="0x204"/>
      <component glyphName="tilde" x="533" y="1560" flags="0x4"/>
    </TTGlyph>
    <TTGlyph name="B" xMin="147" yMin="0" xMax="1281" yMax="1577">
      <contour>
        <pt x="669" y="913" on="1"/>
        <pt x="781" y="913" on="0"/>
        <pt x="954" y="942" on="0"/>
        <pt x="1071" y="1018" on="0"/>
        <pt x="1132" y="1151" on="0"/>
        <pt x="1132" y="1255" on="1"/>
        <pt x="1132" y="1317" on="0"/>
        <pt x="1054" y="1390" on="0"/>
        <pt x="928" y="1428" on="0"/>
        <pt x="767" y="1439" on="0"/>
        <pt x="684" y="1439" on="1"/>
        <pt x="520" y="1439" on="1"/>
        <pt x="445" y="913" on="1"/>
      </contour>
      <contour>
        <pt x="551" y="138" on="1"/>
        <pt x="678" y="138" on="0"/>
        <pt x="878" y="173" on="0"/>
        <pt x="1016" y="259" on="0"/>
        <pt x="1088" y="406" on="0"/>
        <pt x="1088" y="518" on="1"/>
        <pt x="1088" y="550" on="0"/>
        <pt x="1080" y="615" on="0"/>
        <pt x="1052" y="676" on="0"/>
        <pt x="997" y="728" on="0"/>
        <pt x="902" y="767" on="0"/>
        <pt x="761" y="789" on="0"/>
        <pt x="662" y="789" on="1"/>
        <pt x="429" y="789" on="1"/>
        <pt x="337" y="138" on="1"/>
      </contour>
      <contour>
        <pt x="1247" y="514" on="1"/>
        <pt x="1247" y="378" on="0"/>
        <pt x="1151" y="183" on="0"/>
        <pt x="968" y="59" on="0"/>
        <pt x="703" y="0" on="0"/>
        <pt x="534" y="0" on="1"/>
        <pt x="147" y="0" on="1"/>
        <pt x="367" y="1577" on="1"/>
        <pt x="701" y="1577" on="1"/>
        <pt x="863" y="1577" on="0"/>
        <pt x="1084" y="1540" on="0"/>
        <pt x="1221" y="1464" on="0"/>
        <pt x="1281" y="1348" on="0"/>
        <pt x="1281" y="1269" on="1"/>
        <pt x="1281" y="1174" on="0"/>
        <pt x="1238" y="1038" on="0"/>
        <pt x="1149" y="942" on="0"/>
        <pt x="1014" y="881" on="0"/>
        <pt x="922" y="862" on="1"/>
        <pt x="1091" y="841" on="0"/>
        <pt x="1247" y="669" on="0"/>
      </contour>
    </TTGlyph>
    <TTGlyph name="C" xMin="219" yMin="-41" xMax="1364" yMax="1609">
      <contour>
        <pt x="219" y="530" on="1"/>
        <pt x="219" y="667" on="0"/>
        <pt x="264" y="933" on="0"/>
        <pt x="351" y="1173" on="0"/>
        <pt x="478" y="1377" on="0"/>
        <pt x="643" y="1525" on="0"/>
        <pt x="843" y="1609" on="0"/>
        <pt x="960" y="1609" on="1"/>
        <pt x="1000" y="1609" on="0"/>
        <pt x="1080" y="1605" on="0"/>
        <pt x="1174" y="1588" on="0"/>
        <pt x="1289" y="1557" on="0"/>
        <pt x="1364" y="1530" on="1"/>
        <pt x="1301" y="1392" on="1"/>
        <pt x="1243" y="1415" on="0"/>
        <pt x="1152" y="1443" on="0"/>
        <pt x="1077" y="1459" on="0"/>
        <pt x="1015" y="1464" on="0"/>
        <pt x="985" y="1464" on="1"/>
        <pt x="880" y="1464" on="0"/>
        <pt x="712" y="1389" on="0"/>
        <pt x="582" y="1259" on="0"/>
        <pt x="489" y="1082" on="0"/>
        <pt x="429" y="876" on="0"/>
        <pt x="401" y="653" on="0"/>
        <pt x="401" y="541" on="1"/>
        <pt x="401" y="316" on="0"/>
        <pt x="580" y="104" on="0"/>
        <pt x="756" y="104" on="1"/>
        <pt x="816" y="104" on="0"/>
        <pt x="1010" y="159" on="0"/>
        <pt x="1131" y="211" on="1"/>
        <pt x="1160" y="78" on="1"/>
        <pt x="1103" y="55" on="0"/>
        <pt x="998" y="12" on="0"/>
        <pt x="895" y="-21" on="0"/>
        <pt x="790" y="-41" on="0"/>
        <pt x="733" y="-41" on="1"/>
        <pt x="604" y="-41" on="0"/>
        <pt x="411" y="34" on="0"/>
        <pt x="283" y="180" on="0"/>
        <pt x="219" y="393" on="0"/>
      </contour>
    </TTGlyph>
    <TTGlyph name="Cacute" xMin="219" yMin="-41" xMax="1364" yMax="1609">
      <component glyphName="C" x="0" y="0" flags="0x4"/>
    </TTGlyph>
    <TTGlyph name="Ccaron" xMin="219" yMin="-41" xMax="1364" yMax="1609">
      <component glyphName="C" x="0" y="0" flags="0x4"/>
    </TTGlyph>
    <TTGlyph name="Ccedilla" xMin="219" yMin="-578" xMax="1364" yMax="1609">
      <component glyphName="C" x="0" y="0" flags="0x204"/>
      <component glyphName="cedilla" x="532" y="0" flags="0x4"/>
    </TTGlyph>
    <TTGlyph name="Ccircumflex" xMin="219" yMin="-41" xMax="1364" yMax="1609">
      <component glyphName="C" x="0" y="0" flags="0x4"/>
    </TTGlyph>
    <TTGlyph name="Cdotaccent" xMin="219" yMin="-41" xMax="1364" yMax="1609">
      <component glyphName="C" x="0" y="0" flags="0x4"/>
    </TTGlyph>
    <TTGlyph name="D" xMin="147" yMin="0" xMax="1376" yMax="1577">
      <contour>
        <pt x="1200" y="987" on="1"/>
        <pt x="1200" y="1106" on="0"/>
        <pt x="1155" y="1277" on="0"/>
        <pt x="1064" y="1387" on="0"/>
        <pt x="924" y="1439" on="0"/>
        <pt x="830" y="1439" on="1"/>
        <pt x="520" y="1439" on="1"/>
        <pt x="336" y="138" on="1"/>
        <pt x="675" y="138" on="1"/>
        <pt x="761" y="138" on="0"/>
        <pt x="897" y="188" on="0"/>
        <pt x="1003" y="276" on="0"/>
        <pt x="1081" y="393" on="0"/>
        <pt x="1137" y="526" on="0"/>
        <pt x="1172" y="669" on="0"/>
        <pt x="1192" y="808" on="0"/>
        <pt x="1200" y="935" on="0"/>
      </contour>
      <contour>
        <pt x="1376" y="982" on="1"/>
        <pt x="1376" y="928" on="0"/>
        <pt x="1367" y="786" on="0"/>
        <pt x="1341" y="627" on="0"/>
        <pt x="1295" y="461" on="0"/>
        <pt x="1220" y="304" on="0"/>
        <pt x="1113" y="165" on="0"/>
        <pt x="967" y="61" on="0"/>
        <pt x="777" y="0" on="0"/>
        <pt x="657" y="0" on="1"/>
        <pt x="147" y="0" on="1"/>
        <pt x="367" y="1577" on="1"/>
        <pt x="850" y="1577" on="1"/>
        <pt x="1110" y="1577" on="0"/>
        <pt x="1376" y="1285" on="0"/>
      </contour>
    </TTGlyph>
    <TTGlyph name="Dcaron" xMin="147" yMin="0" xMax="1376" yMax="1577">
      <component glyphName="D" x="0" y="0" flags="0x4"/>
    </TTGlyph>
    <TTGlyph name="E" xMin="147" yMin="0" xMax="1268" yMax="1577">
      <contour>
        <pt x="1058" y="0" on="1"/>
        <pt x="147" y="0" on="1"/>
        <pt x="368" y="1577" on="1"/>
        <pt x="1268" y="1577" on="1"/>
        <pt x="1248" y="1439" on="1"/>
        <pt x="522" y="1439" on="1"/>
        <pt x="444" y="887" on="1"/>
        <pt x="1078" y="887" on="1"/>
        <pt x="1063" y="779" on="1"/>
        <pt x="429" y="779" on="1"/>
        <pt x="339" y="138" on="1"/>
        <pt x="1077" y="138" on="1"/>
      </contour>
    </TTGlyph>
    <TTGlyph name="Eacute" xMin="147" yMin="0" xMax="1268" yMax="2298">
      <component glyphName="E" x="0" y="0" flags="0x204"/>
      <component glyphName="acute" x="467" y="1560" flags="0x4"/>
    </TTGlyph>
    <TTGlyph name="Easciitilde" xMin="147" yMin="0" xMax="1268" yMax="1962">
      <component glyphName="E" x="0" y="0" flags="0x4"/>
      <component glyphName="asciitilde" x="438" y="1579" flags="0x4"/>
    </TTGlyph>
    <TTGlyph name="Ebreve" xMin="147" yMin="0" xMax="1268" yMax="1577">
      <component glyphName="E" x="0" y="0" flags="0x4"/>
    </TTGlyph>
    <TTGlyph name="Ecaron" xMin="147" yMin="0" xMax="1268" yMax="2221">
      <component glyphName="E" x="0" y="0" flags="0x204"/>
      <component glyphName="caron" x="449" y="1578" flags="0x4"/>
    </TTGlyph>
    <TTGlyph name="Ecircumflex" xMin="147" yMin="0" xMax="1268" yMax="2221">
      <component glyphName="E" x="0" y="0" flags="0x204"/>
      <component glyphName="circumflex" x="456" y="1578" flags="0x4"/>
    </TTGlyph>
    <TTGlyph name="Edieresis" xMin="147" yMin="0" xMax="1359" yMax="1932">
      <component glyphName="E" x="0" y="0" flags="0x204"/>
      <component glyphName="dieresis" x="567" y="1560" flags="0x4"/>
    </TTGlyph>
    <TTGlyph name="Edotaccent" xMin="147" yMin="0" xMax="1268" yMax="1577">
      <component glyphName="E" x="0" y="0" flags="0x4"/>
    </TTGlyph>
    <TTGlyph name="Egrave" xMin="147" yMin="0" xMax="1268" yMax="2322">
      <component glyphName="E" x="0" y="0" flags="0x204"/>
      <component glyphName="grave" x="571" y="1560" flags="0x4"/>
    </TTGlyph>
    <TTGlyph name="Emacron" xMin="147" yMin="0" xMax="1268" yMax="1577">
      <component glyphName="E" x="0" y="0" flags="0x4"/>
    </TTGlyph>
    <TTGlyph name="Eogonek" xMin="147" yMin="0" xMax="1268" yMax="1577">
      <component glyphName="E" x="0" y="0" flags="0x4"/>
    </TTGlyph>
    <TTGlyph name="Eth" xMin="103" yMin="0" xMax="1354" yMax="1572">
      <contour>
        <pt x="1354" y="1009" on="1"/>
        <pt x="1354" y="958" on="0"/>
        <pt x="1345" y="817" on="0"/>
        <pt x="1318" y="656" on="0"/>
        <pt x="1270" y="484" on="0"/>
        <pt x="1193" y="320" on="0"/>
        <pt x="1083" y="174" on="0"/>
        <pt x="933" y="64" on="0"/>
        <pt x="737" y="0" on="0"/>
        <pt x="613" y="0" on="1"/>
        <pt x="103" y="0" on="1"/>
        <pt x="208" y="737" on="1"/>
        <pt x="107" y="737" on="1"/>
        <pt x="124" y="879" on="1"/>
        <pt x="228" y="879" on="1"/>
        <pt x="327" y="1572" on="1"/>
        <pt x="837" y="1572" on="1"/>
        <pt x="1098" y="1572" on="0"/>
        <pt x="1353" y="1291" on="0"/>
      </contour>
      <contour>
        <pt x="1177" y="1012" on="1"/>
        <pt x="1177" y="1124" on="0"/>
        <pt x="1132" y="1282" on="0"/>
        <pt x="1042" y="1381" on="0"/>
        <pt x="905" y="1426" on="0"/>
        <pt x="814" y="1426" on="1"/>
        <pt x="476" y="1426" on="1"/>
        <pt x="400" y="879" on="1"/>
        <pt x="775" y="879" on="1"/>
        <pt x="758" y="737" on="1"/>
        <pt x="380" y="737" on="1"/>
        <pt x="297" y="144" on="1"/>
        <pt x="637" y="144" on="1"/>
        <pt x="754" y="144" on="0"/>
        <pt x="926" y="236" on="0"/>
        <pt x="1046" y="385" on="0"/>
        <pt x="1121" y="574" on="0"/>
        <pt x="1162" y="767" on="0"/>
        <pt x="1177" y="946" on="0"/>
      </contour>
    </TTGlyph>
    <TTGlyph name="Etilde" xMin="147" yMin="0" xMax="1268" yMax="1958">
      <component glyphName="E" x="0" y="0" flags="0x204"/>
      <component glyphName="tilde" x="461" y="1578" flags="0x4"/>
    </TTGlyph>
    <TTGlyph name="Euni0306" xMin="147" yMin="0" xMax="1268" yMax="1863">
      <component glyphName="E" x="0" y="0" flags="0x204"/>
      <component glyphName="uni0306" x="584" y="1560" flags="0x4"/>
    </TTGlyph>
    <TTGlyph name="Euro" xMin="119" yMin="-38" xMax="1141" yMax="1429">
      <contour>
        <pt x="765" y="693" on="1"/>
        <pt x="747" y="574" on="1"/>
        <pt x="419" y="574" on="1"/>
        <pt x="419" y="575" on="0"/>
        <pt x="415" y="542" on="0"/>
        <pt x="410" y="496" on="0"/>
        <pt x="406" y="446" on="0"/>
        <pt x="406" y="431" on="1"/>
        <pt x="405" y="335" on="0"/>
        <pt x="443" y="202" on="0"/>
        <pt x="506" y="120" on="0"/>
        <pt x="588" y="84" on="0"/>
        <pt x="631" y="84" on="1"/>
        <pt x="697" y="84" on="0"/>
        <pt x="803" y="106" on="0"/>
        <pt x="878" y="133" on="0"/>
        <pt x="920" y="157" on="0"/>
        <pt x="922" y="159" on="1"/>
        <pt x="951" y="53" on="1"/>
        <pt x="952" y="54" on="0"/>
        <pt x="915" y="26" on="0"/>
        <pt x="836" y="-9" on="0"/>
        <pt x="713" y="-38" on="0"/>
        <pt x="629" y="-38" on="1"/>
        <pt x="554" y="-38" on="0"/>
        <pt x="421" y="24" on="0"/>
        <pt x="321" y="148" on="0"/>
        <pt x="264" y="334" on="0"/>
        <pt x="265" y="458" on="1"/>
        <pt x="265" y="472" on="0"/>
        <pt x="267" y="510" on="0"/>
        <pt x="269" y="529" on="1"/>
        <pt x="273" y="574" on="1"/>
        <pt x="274" y="574" on="1"/>
        <pt x="119" y="574" on="1"/>
        <pt x="137" y="693" on="1"/>
        <pt x="286" y="693" on="1"/>
        <pt x="306" y="806" on="1"/>
        <pt x="138" y="806" on="1"/>
        <pt x="156" y="924" on="1"/>
        <pt x="345" y="924" on="1"/>
        <pt x="367" y="1041" on="0"/>
        <pt x="463" y="1228" on="0"/>
        <pt x="600" y="1359" on="0"/>
        <pt x="773" y="1429" on="0"/>
        <pt x="873" y="1429" on="1"/>
        <pt x="927" y="1429" on="0"/>
        <pt x="1023" y="1411" on="0"/>
        <pt x="1095" y="1389" on="0"/>
        <pt x="1139" y="1370" on="0"/>
        <pt x="1141" y="1369" on="1"/>
        <pt x="1086" y="1254" on="1"/>
        <pt x="1062" y="1270" on="0"/>
        <pt x="1027" y="1281" on="1"/>
        <pt x="997" y="1291" on="0"/>
        <pt x="908" y="1307" on="0"/>
        <pt x="845" y="1307" on="1"/>
        <pt x="811" y="1306" on="0"/>
        <pt x="778" y="1298" on="1"/>
        <pt x="676" y="1272" on="0"/>
        <pt x="524" y="1084" on="0"/>
        <pt x="486" y="924" on="1"/>
        <pt x="851" y="924" on="1"/>
        <pt x="834" y="806" on="1"/>
        <pt x="460" y="806" on="1"/>
        <pt x="439" y="693" on="1"/>
      </contour>
    </TTGlyph>
    <TTGlyph name="F" xMin="147" yMin="0" xMax="1235" yMax="1577">
      <contour>
        <pt x="426" y="766" on="1"/>
        <pt x="319" y="0" on="1"/>
        <pt x="147" y="0" on="1"/>
        <pt x="368" y="1577" on="1"/>
        <pt x="1235" y="1577" on="1"/>
        <pt x="1218" y="1441" on="1"/>
        <pt x="522" y="1441" on="1"/>
        <pt x="441" y="874" on="1"/>
        <pt x="1070" y="874" on="1"/>
        <pt x="1057" y="766" on="1"/>
      </contour>
    </TTGlyph>
    <TTGlyph name="G" xMin="219" yMin="-40" xMax="1396" yMax="1609">
      <contour>
        <pt x="219" y="551" on="1"/>
        <pt x="219" y="622" on="0"/>
        <pt x="234" y="788" on="0"/>
        <pt x="271" y="963" on="0"/>
        <pt x="330" y="1140" on="0"/>
        <pt x="418" y="1303" on="0"/>
        <pt x="536" y="1444" on="0"/>
        <pt x="691" y="1549" on="0"/>
        <pt x="885" y="1609" on="0"/>
        <pt x="1004" y="1609" on="1"/>
        <pt x="1032" y="1609" on="0"/>
        <pt x="1111" y="1601" on="0"/>
        <pt x="1210" y="1573" on="0"/>
        <pt x="1328" y="1520" on="0"/>
        <pt x="1396" y="1475" on="1"/>
        <pt x="1333" y="1347" on="1"/>
        <pt x="1264" y="1381" on="0"/>
        <pt x="1159" y="1426" on="0"/>
        <pt x="1078" y="1453" on="0"/>
        <pt x="1016" y="1464" on="0"/>
        <pt x="991" y="1464" on="1"/>
        <pt x="898" y="1464" on="0"/>
        <pt x="748" y="1410" on="0"/>
        <pt x="630" y="1316" on="0"/>
        <pt x="541" y="1190" on="0"/>
        <pt x="476" y="1047" on="0"/>
        <pt x="434" y="894" on="0"/>
        <pt x="408" y="746" on="0"/>
        <pt x="398" y="609" on="0"/>
        <pt x="398" y="554" on="1"/>
        <pt x="398" y="435" on="0"/>
        <pt x="446" y="264" on="0"/>
        <pt x="541" y="154" on="0"/>
        <pt x="680" y="103" on="0"/>
        <pt x="770" y="103" on="1"/>
        <pt x="867" y="103" on="0"/>
        <pt x="1012" y="146" on="0"/>
        <pt x="1112" y="223" on="0"/>
        <pt x="1168" y="328" on="0"/>
        <pt x="1175" y="390" on="1"/>
        <pt x="1175" y="388" on="0"/>
        <pt x="1174" y="386" on="0"/>
        <pt x="1174" y="384" on="1"/>
        <pt x="1213" y="686" on="1"/>
        <pt x="824" y="686" on="1"/>
        <pt x="843" y="808" on="1"/>
        <pt x="1388" y="808" on="1"/>
        <pt x="1275" y="0" on="1"/>
        <pt x="1184" y="0" on="1"/>
        <pt x="1184" y="172" on="1"/>
        <pt x="1163" y="139" on="0"/>
        <pt x="1095" y="65" on="0"/>
        <pt x="989" y="2" on="0"/>
        <pt x="840" y="-40" on="0"/>
        <pt x="739" y="-40" on="1"/>
        <pt x="614" y="-40" on="0"/>
        <pt x="420" y="31" on="0"/>
        <pt x="288" y="177" on="0"/>
        <pt x="219" y="399" on="0"/>
      </contour>
    </TTGlyph>
    <TTGlyph name="Gbreve" xMin="219" yMin="-40" xMax="1396" yMax="1609">
      <component glyphName="G" x="0" y="0" flags="0x4"/>
    </TTGlyph>
    <TTGlyph name="Gcircumflex" xMin="219" yMin="-40" xMax="1396" yMax="1609">
      <component glyphName="G" x="0" y="0" flags="0x4"/>
    </TTGlyph>
    <TTGlyph name="Gcommaaccent" xMin="219" yMin="-40" xMax="1396" yMax="1609">
      <component glyphName="G" x="0" y="0" flags="0x4"/>
    </TTGlyph>
    <TTGlyph name="Gdotaccent" xMin="219" yMin="-40" xMax="1396" yMax="1609">
      <component glyphName="G" x="0" y="0" flags="0x4"/>
    </TTGlyph>
    <TTGlyph name="H" xMin="147" yMin="0" xMax="1498" yMax="1578">
      <contour>
        <pt x="1104" y="0" on="1"/>
        <pt x="1211" y="766" on="1"/>
        <pt x="426" y="766" on="1"/>
        <pt x="319" y="0" on="1"/>
        <pt x="147" y="0" on="1"/>
        <pt x="368" y="1578" on="1"/>
        <pt x="540" y="1578" on="1"/>
        <pt x="441" y="875" on="1"/>
        <pt x="1226" y="875" on="1"/>
        <pt x="1325" y="1578" on="1"/>
        <pt x="1498" y="1578" on="1"/>
        <pt x="1277" y="0" on="1"/>
      </contour>
    </TTGlyph>
    <TTGlyph name="Hcircumflex" xMin="147" yMin="0" xMax="1498" yMax="1578">
      <component glyphName="H" x="0" y="0" flags="0x4"/>
    </TTGlyph>
    <TTGlyph name="I" xMin="161" yMin="0" xMax="926" yMax="1578">
      <contour>
        <pt x="176" y="110" on="1"/>
        <pt x="361" y="110" on="1"/>
        <pt x="549" y="1462" on="1"/>
        <pt x="365" y="1462" on="1"/>
        <pt x="380" y="1578" on="1"/>
        <pt x="926" y="1578" on="1"/>
        <pt x="910" y="1462" on="1"/>
        <pt x="723" y="1462" on="1"/>
        <pt x="533" y="110" on="1"/>
        <pt x="722" y="110" on="1"/>
        <pt x="707" y="0" on="1"/>
        <pt x="161" y="0" on="1"/>
      </contour>
    </TTGlyph>
    <TTGlyph name="Iacute" xMin="161" yMin="0" xMax="926" yMax="2298">
      <component glyphName="I" x="0" y="0" flags="0x204"/>
      <component glyphName="acute" x="253" y="1560" flags="0x4"/>
    </TTGlyph>
    <TTGlyph name="Iasciitilde" xMin="161" yMin="0" xMax="1039" yMax="1962">
      <component glyphName="I" x="0" y="0" flags="0x4"/>
      <component glyphName="asciitilde" x="249" y="1579" flags="0x4"/>
    </TTGlyph>
    <TTGlyph name="Ibreve" xMin="161" yMin="0" xMax="926" yMax="1578">
      <component glyphName="I" x="0" y="0" flags="0x4"/>
    </TTGlyph>
    <TTGlyph name="Icaron" xMin="161" yMin="0" xMax="984" yMax="2221">
      <component glyphName="I" x="0" y="0" flags="0x204"/>
      <component glyphName="caron" x="284" y="1578" flags="0x4"/>
    </TTGlyph>
    <TTGlyph name="Icircumflex" xMin="161" yMin="0" xMax="926" yMax="2221">
      <component glyphName="I" x="0" y="0" flags="0x204"/>
      <component glyphName="circumflex" x="291" y="1578" flags="0x4"/>
    </TTGlyph>
    <TTGlyph name="Idieresis" xMin="161" yMin="0" xMax="1145" yMax="1932">
      <component glyphName="I" x="0" y="0" flags="0x204"/>
      <component glyphName="dieresis" x="353" y="1560" flags="0x4"/>
    </TTGlyph>
    <TTGlyph name="Idotaccent" xMin="161" yMin="0" xMax="926" yMax="1578">
      <component glyphName="I" x="0" y="0" flags="0x4"/>
    </TTGlyph>
    <TTGlyph name="Igrave" xMin="161" yMin="0" xMax="926" yMax="2322">
      <component glyphName="I" x="0" y="0" flags="0x204"/>
      <component glyphName="grave" x="357" y="1560" flags="0x4"/>
    </TTGlyph>
    <TTGlyph name="Imacron" xMin="161" yMin="0" xMax="926" yMax="1578">
      <component glyphName="I" x="0" y="0" flags="0x4"/>
    </TTGlyph>
    <TTGlyph name="Iogonek" xMin="161" yMin="0" xMax="926" yMax="1578">
      <component glyphName="I" x="0" y="0" flags="0x4"/>
    </TTGlyph>
    <TTGlyph name="Itilde" xMin="161" yMin="0" xMax="1042" yMax="1958">
      <component glyphName="I" x="0" y="0" flags="0x204"/>
      <component glyphName="tilde" x="296" y="1578" flags="0x4"/>
    </TTGlyph>
    <TTGlyph name="Iuni0306" xMin="161" yMin="0" xMax="960" yMax="1863">
      <component glyphName="I" x="0" y="0" flags="0x204"/>
      <component glyphName="uni0306" x="370" y="1560" flags="0x4"/>
    </TTGlyph>
    <TTGlyph name="J" xMin="58" yMin="-90" xMax="753" yMax="1578">
      <contour>
        <pt x="58" y="29" on="1"/>
        <pt x="137" y="47" on="0"/>
        <pt x="247" y="87" on="0"/>
        <pt x="322" y="137" on="0"/>
        <pt x="366" y="198" on="0"/>
        <pt x="394" y="278" on="0"/>
        <pt x="411" y="377" on="0"/>
        <pt x="420" y="439" on="1"/>
        <pt x="580" y="1578" on="1"/>
        <pt x="753" y="1578" on="1"/>
        <pt x="603" y="512" on="1"/>
        <pt x="588" y="403" on="0"/>
        <pt x="551" y="234" on="0"/>
        <pt x="498" y="106" on="0"/>
        <pt x="423" y="16" on="0"/>
        <pt x="319" y="-45" on="0"/>
        <pt x="179" y="-81" on="0"/>
        <pt x="87" y="-90" on="1"/>
      </contour>
    </TTGlyph>
    <TTGlyph name="Jcircumflex" xMin="58" yMin="-90" xMax="753" yMax="1578">
      <component glyphName="J" x="0" y="0" flags="0x4"/>
    </TTGlyph>
    <TTGlyph name="K" xMin="146" yMin="0" xMax="1384" yMax="1578">
      <contour>
        <pt x="1213" y="1578" on="1"/>
        <pt x="1384" y="1578" on="1"/>
        <pt x="783" y="798" on="1"/>
        <pt x="873" y="635" on="1"/>
        <pt x="1224" y="0" on="1"/>
        <pt x="1045" y="0" on="1"/>
        <pt x="631" y="750" on="1"/>
        <pt x="424" y="750" on="1"/>
        <pt x="320" y="0" on="1"/>
        <pt x="146" y="0" on="1"/>
        <pt x="369" y="1578" on="1"/>
        <pt x="542" y="1578" on="1"/>
        <pt x="439" y="850" on="1"/>
        <pt x="654" y="850" on="1"/>
      </contour>
    </TTGlyph>
    <TTGlyph name="Kcommaaccent" xMin="146" yMin="0" xMax="1384" yMax="1578">
      <component glyphName="K" x="0" y="0" flags="0x4"/>
    </TTGlyph>
    <TTGlyph name="L" xMin="146" yMin="0" xMax="1036" yMax="1578">
      <contour>
        <pt x="1019" y="0" on="1"/>
        <pt x="146" y="0" on="1"/>
        <pt x="368" y="1578" on="1"/>
        <pt x="541" y="1578" on="1"/>
        <pt x="338" y="138" on="1"/>
        <pt x="1036" y="138" on="1"/>
      </contour>
    </TTGlyph>
    <TTGlyph name="Lacute" xMin="146" yMin="0" xMax="1036" yMax="1578">
      <component glyphName="L" x="0" y="0" flags="0x4"/>
    </TTGlyph>
    <TTGlyph name="Lcommaaccent" xMin="146" yMin="0" xMax="1036" yMax="1578">
      <component glyphName="L" x="0" y="0" flags="0x4"/>
    </TTGlyph>
    <TTGlyph name="Ldot" xMin="146" yMin="0" xMax="1036" yMax="1578">
      <component glyphName="L" x="0" y="0" flags="0x4"/>
    </TTGlyph>
    <TTGlyph name="M" xMin="146" yMin="0" xMax="1864" yMax="1578">
      <contour>
        <pt x="795" y="0" on="1"/>
        <pt x="729" y="370" on="1"/>
        <pt x="530" y="1484" on="1"/>
        <pt x="321" y="0" on="1"/>
        <pt x="146" y="0" on="1"/>
        <pt x="313" y="1184" on="1"/>
        <pt x="369" y="1578" on="1"/>
        <pt x="667" y="1578" on="1"/>
        <pt x="736" y="1186" on="1"/>
        <pt x="841" y="594" on="1"/>
        <pt x="913" y="192" on="1"/>
        <pt x="1078" y="543" on="1"/>
        <pt x="1402" y="1235" on="1"/>
        <pt x="1563" y="1578" on="1"/>
        <pt x="1864" y="1578" on="1"/>
        <pt x="1780" y="983" on="1"/>
        <pt x="1641" y="0" on="1"/>
        <pt x="1467" y="0" on="1"/>
        <pt x="1676" y="1485" on="1"/>
        <pt x="1075" y="180" on="1"/>
        <pt x="992" y="0" on="1"/>
      </contour>
    </TTGlyph>
    <TTGlyph name="N" xMin="146" yMin="0" xMax="1590" yMax="1578">
      <contour>
        <pt x="1369" y="0" on="1"/>
        <pt x="1099" y="0" on="1"/>
        <pt x="907" y="484" on="1"/>
        <pt x="523" y="1449" on="1"/>
        <pt x="320" y="0" on="1"/>
        <pt x="146" y="0" on="1"/>
        <pt x="368" y="1578" on="1"/>
        <pt x="637" y="1578" on="1"/>
        <pt x="829" y="1094" on="1"/>
        <pt x="1212" y="128" on="1"/>
        <pt x="1416" y="1578" on="1"/>
        <pt x="1590" y="1578" on="1"/>
      </contour>
    </TTGlyph>
    <TTGlyph name="Nacute" xMin="146" yMin="0" xMax="1590" yMax="1578">
      <component glyphName="N" x="0" y="0" flags="0x4"/>
    </TTGlyph>
    <TTGlyph name="Ncaron" xMin="146" yMin="0" xMax="1590" yMax="1578">
      <component glyphName="N" x="0" y="0" flags="0x4"/>
    </TTGlyph>
    <TTGlyph name="Ncommaaccent" xMin="146" yMin="0" xMax="1590" yMax="1578">
      <component glyphName="N" x="0" y="0" flags="0x4"/>
    </TTGlyph>
    <TTGlyph name="Ntilde" xMin="146" yMin="0" xMax="1590" yMax="1940">
      <component glyphName="N" x="0" y="0" flags="0x204"/>
      <component glyphName="tilde" x="642" y="1560" flags="0x4"/>
    </TTGlyph>
    <TTGlyph name="O" xMin="219" yMin="-41" xMax="1481" yMax="1609">
      <contour>
        <pt x="1481" y="1043" on="1"/>
        <pt x="1481" y="888" on="0"/>
        <pt x="1431" y="606" on="0"/>
        <pt x="1338" y="366" on="0"/>
        <pt x="1204" y="171" on="0"/>
        <pt x="1035" y="33" on="0"/>
        <pt x="835" y="-41" on="0"/>
        <pt x="722" y="-41" on="1"/>
        <pt x="606" y="-41" on="0"/>
        <pt x="420" y="24" on="0"/>
        <pt x="290" y="159" on="0"/>
        <pt x="219" y="366" on="0"/>
        <pt x="219" y="509" on="1"/>
        <pt x="219" y="660" on="0"/>
        <pt x="268" y="941" on="0"/>
        <pt x="360" y="1185" on="0"/>
        <pt x="491" y="1386" on="0"/>
        <pt x="658" y="1530" on="0"/>
        <pt x="856" y="1609" on="0"/>
        <pt x="968" y="1609" on="1"/>
        <pt x="1110" y="1609" on="0"/>
        <pt x="1306" y="1526" on="0"/>
        <pt x="1427" y="1376" on="0"/>
        <pt x="1481" y="1168" on="0"/>
      </contour>
      <contour>
        <pt x="1302" y="1050" on="1"/>
        <pt x="1302" y="1136" on="0"/>
        <pt x="1267" y="1287" on="0"/>
        <pt x="1185" y="1399" on="0"/>
        <pt x="1052" y="1464" on="0"/>
        <pt x="954" y="1464" on="1"/>
        <pt x="853" y="1464" on="0"/>
        <pt x="693" y="1380" on="0"/>
        <pt x="570" y="1238" on="0"/>
        <pt x="483" y="1047" on="0"/>
        <pt x="427" y="835" on="0"/>
        <pt x="401" y="611" on="0"/>
        <pt x="401" y="506" on="1"/>
        <pt x="401" y="303" on="0"/>
        <pt x="575" y="104" on="0"/>
        <pt x="744" y="104" on="1"/>
        <pt x="838" y="104" on="0"/>
        <pt x="995" y="180" on="0"/>
        <pt x="1119" y="314" on="0"/>
        <pt x="1211" y="496" on="0"/>
        <pt x="1272" y="706" on="0"/>
        <pt x="1302" y="935" on="0"/>
      </contour>
    </TTGlyph>
    <TTGlyph name="OE" xMin="219" yMin="-41" xMax="2294" yMax="1609">
      <contour>
        <pt x="2083" y="0" on="1"/>
        <pt x="1172" y="0" on="1"/>
        <pt x="1206" y="237" on="1"/>
        <pt x="1179" y="166" on="0"/>
        <pt x="1075" y="61" on="0"/>
        <pt x="944" y="-8" on="0"/>
        <pt x="799" y="-41" on="0"/>
        <pt x="731" y="-41" on="1"/>
        <pt x="609" y="-41" on="0"/>
        <pt x="419" y="28" on="0"/>
        <pt x="288" y="172" on="0"/>
        <pt x="219" y="393" on="0"/>
        <pt x="219" y="545" on="1"/>
        <pt x="219" y="692" on="0"/>
        <pt x="266" y="964" on="0"/>
        <pt x="355" y="1201" on="0"/>
        <pt x="483" y="1395" on="0"/>
        <pt x="644" y="1533" on="0"/>
        <pt x="838" y="1609" on="0"/>
        <pt x="947" y="1609" on="1"/>
        <pt x="1106" y="1609" on="0"/>
        <pt x="1325" y="1468" on="0"/>
        <pt x="1367" y="1328" on="1"/>
        <pt x="1394" y="1577" on="1"/>
        <pt x="2294" y="1577" on="1"/>
        <pt x="2274" y="1439" on="1"/>
        <pt x="1548" y="1439" on="1"/>
        <pt x="1469" y="887" on="1"/>
        <pt x="2104" y="887" on="1"/>
        <pt x="2089" y="779" on="1"/>
        <pt x="1454" y="779" on="1"/>
        <pt x="1364" y="138" on="1"/>
        <pt x="2102" y="138" on="1"/>
      </contour>
      <contour>
        <pt x="1292" y="1017" on="1"/>
        <pt x="1292" y="1109" on="0"/>
        <pt x="1259" y="1272" on="0"/>
        <pt x="1177" y="1393" on="0"/>
        <pt x="1040" y="1464" on="0"/>
        <pt x="936" y="1464" on="1"/>
        <pt x="838" y="1464" on="0"/>
        <pt x="682" y="1385" on="0"/>
        <pt x="563" y="1249" on="0"/>
        <pt x="479" y="1067" on="0"/>
        <pt x="426" y="862" on="0"/>
        <pt x="401" y="644" on="0"/>
        <pt x="401" y="541" on="1"/>
        <pt x="401" y="104" on="0"/>
        <pt x="751" y="104" on="1"/>
        <pt x="844" y="104" on="0"/>
        <pt x="996" y="177" on="0"/>
        <pt x="1116" y="306" on="0"/>
        <pt x="1205" y="481" on="0"/>
        <pt x="1263" y="684" on="0"/>
        <pt x="1292" y="905" on="0"/>
      </contour>
    </TTGlyph>
    <TTGlyph name="Oacute" xMin="219" yMin="-41" xMax="1481" yMax="2298">
      <component glyphName="O" x="0" y="0" flags="0x204"/>
      <component glyphName="acute" x="562" y="1560" flags="0x4"/>
    </TTGlyph>
    <TTGlyph name="Obreve" xMin="219" yMin="-41" xMax="1481" yMax="1609">
      <component glyphName="O" x="0" y="0" flags="0x4"/>
    </TTGlyph>
    <TTGlyph name="Ocaron" xMin="219" yMin="-41" xMax="1481" yMax="2203">
      <component glyphName="O" x="0" y="0" flags="0x204"/>
      <component glyphName="caron" x="530" y="1560" flags="0x4"/>
    </TTGlyph>
    <TTGlyph name="Ocircumflex" xMin="219" yMin="-41" xMax="1481" yMax="2203">
      <component glyphName="O" x="0" y="0" flags="0x204"/>
      <component glyphName="circumflex" x="611" y="1560" flags="0x4"/>
    </TTGlyph>
    <TTGlyph name="Odieresis" xMin="219" yMin="-41" xMax="1481" yMax="1932">
      <component glyphName="O" x="0" y="0" flags="0x204"/>
      <component glyphName="dieresis" x="486" y="1560" flags="0x4"/>
    </TTGlyph>
    <TTGlyph name="Ograve" xMin="219" yMin="-41" xMax="1481" yMax="2322">
      <component glyphName="O" x="0" y="0" flags="0x204"/>
      <component glyphName="grave" x="666" y="1560" flags="0x4"/>
    </TTGlyph>
    <TTGlyph name="Ohungarumlaut" xMin="219" yMin="-41" xMax="1481" yMax="1609">
      <component glyphName="O" x="0" y="0" flags="0x4"/>
    </TTGlyph>
    <TTGlyph name="Omacron" xMin="219" yMin="-41" xMax="1481" yMax="1609">
      <component glyphName="O" x="0" y="0" flags="0x4"/>
    </TTGlyph>
    <TTGlyph name="Oslash" xMin="218" yMin="-143" xMax="1481" yMax="1721">
      <contour>
        <pt x="1300" y="1049" on="1"/>
        <pt x="1300" y="1155" on="0"/>
        <pt x="1250" y="1327" on="0"/>
        <pt x="1186" y="1384" on="1"/>
        <pt x="613" y="124" on="1"/>
        <pt x="642" y="115" on="0"/>
        <pt x="706" y="105" on="0"/>
        <pt x="743" y="105" on="1"/>
        <pt x="837" y="105" on="0"/>
        <pt x="992" y="182" on="0"/>
        <pt x="1116" y="315" on="0"/>
        <pt x="1208" y="497" on="0"/>
        <pt x="1270" y="706" on="0"/>
        <pt x="1300" y="935" on="0"/>
      </contour>
      <contour>
        <pt x="1481" y="1043" on="1"/>
        <pt x="1481" y="888" on="0"/>
        <pt x="1431" y="606" on="0"/>
        <pt x="1337" y="366" on="0"/>
        <pt x="1203" y="171" on="0"/>
        <pt x="1034" y="33" on="0"/>
        <pt x="833" y="-41" on="0"/>
        <pt x="720" y="-41" on="1"/>
        <pt x="625" y="-41" on="0"/>
        <pt x="546" y="-20" on="1"/>
        <pt x="490" y="-143" on="1"/>
        <pt x="392" y="-98" on="1"/>
        <pt x="446" y="21" on="1"/>
        <pt x="338" y="80" on="0"/>
        <pt x="218" y="320" on="0"/>
        <pt x="219" y="509" on="1"/>
        <pt x="219" y="660" on="0"/>
        <pt x="268" y="941" on="0"/>
        <pt x="360" y="1185" on="0"/>
        <pt x="493" y="1386" on="0"/>
        <pt x="660" y="1530" on="0"/>
        <pt x="858" y="1609" on="0"/>
        <pt x="970" y="1609" on="1"/>
        <pt x="1076" y="1609" on="0"/>
        <pt x="1159" y="1585" on="1"/>
        <pt x="1223" y="1721" on="1"/>
        <pt x="1321" y="1680" on="1"/>
        <pt x="1258" y="1543" on="1"/>
        <pt x="1319" y="1508" on="0"/>
        <pt x="1404" y="1408" on="0"/>
        <pt x="1457" y="1281" on="0"/>
        <pt x="1481" y="1130" on="0"/>
      </contour>
      <contour>
        <pt x="954" y="1462" on="1"/>
        <pt x="853" y="1462" on="0"/>
        <pt x="693" y="1379" on="0"/>
        <pt x="571" y="1236" on="0"/>
        <pt x="484" y="1047" on="0"/>
        <pt x="429" y="835" on="0"/>
        <pt x="403" y="612" on="0"/>
        <pt x="403" y="507" on="1"/>
        <pt x="403" y="389" on="0"/>
        <pt x="460" y="231" on="0"/>
        <pt x="518" y="179" on="1"/>
        <pt x="1094" y="1441" on="1"/>
        <pt x="1034" y="1462" on="0"/>
      </contour>
    </TTGlyph>
    <TTGlyph name="Oslashacute" xMin="218" yMin="-143" xMax="1481" yMax="1721">
      <component glyphName="Oslash" x="0" y="0" flags="0x4"/>
    </TTGlyph>
    <TTGlyph name="Otilde" xMin="219" yMin="-41" xMax="1481" yMax="1940">
      <component glyphName="O" x="0" y="0" flags="0x204"/>
      <component glyphName="tilde" x="592" y="1560" flags="0x4"/>
    </TTGlyph>
    <TTGlyph name="P" xMin="147" yMin="0" xMax="1325" yMax="1577">
      <contour>
        <pt x="593" y="783" on="1"/>
        <pt x="754" y="783" on="0"/>
        <pt x="972" y="829" on="0"/>
        <pt x="1104" y="927" on="0"/>
        <pt x="1161" y="1080" on="0"/>
        <pt x="1161" y="1187" on="1"/>
        <pt x="1161" y="1250" on="0"/>
        <pt x="1128" y="1337" on="0"/>
        <pt x="1068" y="1393" on="0"/>
        <pt x="986" y="1423" on="0"/>
        <pt x="890" y="1437" on="0"/>
        <pt x="782" y="1439" on="0"/>
        <pt x="727" y="1439" on="1"/>
        <pt x="521" y="1439" on="1"/>
        <pt x="428" y="783" on="1"/>
      </contour>
      <contour>
        <pt x="368" y="1577" on="1"/>
        <pt x="735" y="1577" on="1"/>
        <pt x="899" y="1577" on="0"/>
        <pt x="1125" y="1534" on="0"/>
        <pt x="1264" y="1443" on="0"/>
        <pt x="1325" y="1302" on="0"/>
        <pt x="1325" y="1204" on="1"/>
        <pt x="1325" y="1091" on="0"/>
        <pt x="1273" y="920" on="0"/>
        <pt x="1178" y="795" on="0"/>
        <pt x="1042" y="711" on="0"/>
        <pt x="875" y="662" on="0"/>
        <pt x="680" y="641" on="0"/>
        <pt x="573" y="641" on="1"/>
        <pt x="408" y="641" on="1"/>
        <pt x="319" y="0" on="1"/>
        <pt x="147" y="0" on="1"/>
      </contour>
    </TTGlyph>
    <TTGlyph name="Q" xMin="219" yMin="-424" xMax="1483" yMax="1609">
      <contour>
        <pt x="397" y="547" on="1"/>
        <pt x="397" y="430" on="0"/>
        <pt x="421" y="346" on="1"/>
        <pt x="456" y="220" on="0"/>
        <pt x="623" y="103" on="0"/>
        <pt x="758" y="103" on="1"/>
        <pt x="838" y="103" on="0"/>
        <pt x="969" y="149" on="0"/>
        <pt x="1075" y="231" on="0"/>
        <pt x="1157" y="342" on="0"/>
        <pt x="1219" y="470" on="0"/>
        <pt x="1262" y="611" on="0"/>
        <pt x="1276" y="682" on="1"/>
        <pt x="1293" y="770" on="0"/>
        <pt x="1307" y="939" on="0"/>
        <pt x="1307" y="1014" on="1"/>
        <pt x="1307" y="1246" on="0"/>
        <pt x="1127" y="1464" on="0"/>
        <pt x="948" y="1464" on="1"/>
        <pt x="838" y="1464" on="0"/>
        <pt x="670" y="1377" on="0"/>
        <pt x="547" y="1233" on="0"/>
        <pt x="465" y="1044" on="0"/>
        <pt x="416" y="841" on="0"/>
        <pt x="396" y="636" on="0"/>
      </contour>
      <contour>
        <pt x="1483" y="1010" on="1"/>
        <pt x="1483" y="952" on="0"/>
        <pt x="1473" y="808" on="0"/>
        <pt x="1446" y="650" on="0"/>
        <pt x="1402" y="486" on="0"/>
        <pt x="1335" y="328" on="0"/>
        <pt x="1241" y="184" on="0"/>
        <pt x="1117" y="68" on="0"/>
        <pt x="958" y="-14" on="0"/>
        <pt x="860" y="-30" on="1"/>
        <pt x="1154" y="-313" on="1"/>
        <pt x="1050" y="-424" on="1"/>
        <pt x="644" y="-34" on="1"/>
        <pt x="551" y="-22" on="0"/>
        <pt x="394" y="56" on="0"/>
        <pt x="282" y="198" on="0"/>
        <pt x="219" y="409" on="0"/>
        <pt x="219" y="555" on="1"/>
        <pt x="219" y="628" on="0"/>
        <pt x="234" y="796" on="0"/>
        <pt x="269" y="972" on="0"/>
        <pt x="326" y="1148" on="0"/>
        <pt x="410" y="1309" on="0"/>
        <pt x="524" y="1448" on="0"/>
        <pt x="672" y="1550" on="0"/>
        <pt x="856" y="1609" on="0"/>
        <pt x="969" y="1609" on="1"/>
        <pt x="1075" y="1609" on="0"/>
        <pt x="1263" y="1547" on="0"/>
        <pt x="1402" y="1405" on="0"/>
        <pt x="1483" y="1176" on="0"/>
      </contour>
    </TTGlyph>
    <TTGlyph name="R" xMin="147" yMin="0" xMax="1303" yMax="1577">
      <contour>
        <pt x="997" y="0" on="1"/>
        <pt x="1012" y="107" on="0"/>
        <pt x="1033" y="262" on="0"/>
        <pt x="1047" y="369" on="0"/>
        <pt x="1054" y="434" on="0"/>
        <pt x="1058" y="470" on="0"/>
        <pt x="1059" y="483" on="0"/>
        <pt x="1059" y="484" on="1"/>
        <pt x="1057" y="542" on="0"/>
        <pt x="1039" y="585" on="1"/>
        <pt x="1000" y="662" on="0"/>
        <pt x="897" y="699" on="1"/>
        <pt x="839" y="718" on="0"/>
        <pt x="683" y="735" on="0"/>
        <pt x="580" y="735" on="1"/>
        <pt x="422" y="735" on="1"/>
        <pt x="320" y="0" on="1"/>
        <pt x="147" y="0" on="1"/>
        <pt x="368" y="1577" on="1"/>
        <pt x="761" y="1577" on="1"/>
        <pt x="818" y="1577" on="0"/>
        <pt x="942" y="1573" on="0"/>
        <pt x="1003" y="1562" on="1"/>
        <pt x="1063" y="1552" on="0"/>
        <pt x="1172" y="1510" on="0"/>
        <pt x="1255" y="1436" on="0"/>
        <pt x="1303" y="1324" on="0"/>
        <pt x="1303" y="1243" on="1"/>
        <pt x="1303" y="1154" on="0"/>
        <pt x="1259" y="1017" on="0"/>
        <pt x="1187" y="917" on="0"/>
        <pt x="1096" y="850" on="0"/>
        <pt x="1001" y="810" on="0"/>
        <pt x="909" y="794" on="0"/>
        <pt x="874" y="795" on="1"/>
        <pt x="1043" y="774" on="0"/>
        <pt x="1225" y="623" on="0"/>
        <pt x="1227" y="484" on="1"/>
        <pt x="1227" y="482" on="0"/>
        <pt x="1227" y="472" on="0"/>
        <pt x="1225" y="452" on="0"/>
        <pt x="1222" y="418" on="0"/>
        <pt x="1219" y="392" on="1"/>
        <pt x="1214" y="344" on="0"/>
        <pt x="1191" y="157" on="0"/>
        <pt x="1170" y="0" on="1"/>
      </contour>
      <contour>
        <pt x="569" y="859" on="1"/>
        <pt x="647" y="859" on="0"/>
        <pt x="795" y="865" on="0"/>
        <pt x="924" y="887" on="0"/>
        <pt x="1031" y="932" on="0"/>
        <pt x="1108" y="1012" on="0"/>
        <pt x="1151" y="1130" on="0"/>
        <pt x="1151" y="1215" on="1"/>
        <pt x="1151" y="1268" on="0"/>
        <pt x="1117" y="1342" on="0"/>
        <pt x="1058" y="1392" on="0"/>
        <pt x="978" y="1421" on="0"/>
        <pt x="888" y="1435" on="0"/>
        <pt x="792" y="1439" on="0"/>
        <pt x="746" y="1439" on="1"/>
        <pt x="521" y="1439" on="1"/>
        <pt x="438" y="859" on="1"/>
      </contour>
    </TTGlyph>
    <TTGlyph name="Racute" xMin="147" yMin="0" xMax="1303" yMax="1577">
      <component glyphName="R" x="0" y="0" flags="0x4"/>
    </TTGlyph>
    <TTGlyph name="Rcaron" xMin="147" yMin="0" xMax="1303" yMax="1577">
      <component glyphName="R" x="0" y="0" flags="0x4"/>
    </TTGlyph>
    <TTGlyph name="Rcommaaccent" xMin="147" yMin="0" xMax="1303" yMax="1577">
      <component glyphName="R" x="0" y="0" flags="0x4"/>
    </TTGlyph>
    <TTGlyph name="S" xMin="173" yMin="-41" xMax="1251" yMax="1609">
      <contour>
        <pt x="1199" y="1341" on="1"/>
        <pt x="1169" y="1363" on="0"/>
        <pt x="1090" y="1408" on="0"/>
        <pt x="1000" y="1442" on="0"/>
        <pt x="901" y="1464" on="0"/>
        <pt x="850" y="1464" on="1"/>
        <pt x="732" y="1464" on="0"/>
        <pt x="580" y="1417" on="0"/>
        <pt x="493" y="1336" on="0"/>
        <pt x="459" y="1228" on="0"/>
        <pt x="459" y="1168" on="1"/>
        <pt x="459" y="1129" on="0"/>
        <pt x="477" y="1072" on="0"/>
        <pt x="519" y="1027" on="0"/>
        <pt x="587" y="990" on="0"/>
        <pt x="637" y="972" on="1"/>
        <pt x="888" y="880" on="1"/>
        <pt x="956" y="855" on="0"/>
        <pt x="1066" y="792" on="0"/>
        <pt x="1144" y="707" on="0"/>
        <pt x="1186" y="595" on="0"/>
        <pt x="1186" y="522" on="1"/>
        <pt x="1186" y="412" on="0"/>
        <pt x="1117" y="209" on="0"/>
        <pt x="970" y="53" on="0"/>
        <pt x="737" y="-41" on="0"/>
        <pt x="574" y="-41" on="1"/>
        <pt x="511" y="-41" on="0"/>
        <pt x="392" y="-22" on="0"/>
        <pt x="288" y="10" on="0"/>
        <pt x="203" y="52" on="0"/>
        <pt x="173" y="74" on="1"/>
        <pt x="214" y="217" on="1"/>
        <pt x="265" y="185" on="0"/>
        <pt x="345" y="142" on="0"/>
        <pt x="426" y="115" on="0"/>
        <pt x="518" y="104" on="0"/>
        <pt x="580" y="104" on="1"/>
        <pt x="795" y="104" on="0"/>
        <pt x="1008" y="286" on="0"/>
        <pt x="1008" y="474" on="1"/>
        <pt x="1008" y="522" on="0"/>
        <pt x="981" y="593" on="0"/>
        <pt x="930" y="648" on="0"/>
        <pt x="856" y="690" on="0"/>
        <pt x="810" y="709" on="1"/>
        <pt x="556" y="810" on="1"/>
        <pt x="519" y="824" on="0"/>
        <pt x="458" y="857" on="0"/>
        <pt x="432" y="874" on="1"/>
        <pt x="354" y="928" on="0"/>
        <pt x="283" y="1060" on="0"/>
        <pt x="283" y="1139" on="1"/>
        <pt x="283" y="1214" on="0"/>
        <pt x="326" y="1342" on="0"/>
        <pt x="401" y="1446" on="0"/>
        <pt x="503" y="1527" on="0"/>
        <pt x="621" y="1581" on="0"/>
        <pt x="750" y="1609" on="0"/>
        <pt x="814" y="1609" on="1"/>
        <pt x="938" y="1609" on="0"/>
        <pt x="1151" y="1546" on="0"/>
        <pt x="1251" y="1480" on="1"/>
      </contour>
    </TTGlyph>
    <TTGlyph name="Sacute" xMin="173" yMin="-41" xMax="1251" yMax="1609">
      <component glyphName="S" x="0" y="0" flags="0x4"/>
    </TTGlyph>
    <TTGlyph name="Scaron" xMin="173" yMin="-41" xMax="1251" yMax="2219">
      <component glyphName="S" x="0" y="0" flags="0x204"/>
      <component glyphName="caron" x="520" y="1576" flags="0x4"/>
    </TTGlyph>
    <TTGlyph name="Scedilla" xMin="173" yMin="-41" xMax="1251" yMax="1609">
      <component glyphName="S" x="0" y="0" flags="0x4"/>
    </TTGlyph>
    <TTGlyph name="Scircumflex" xMin="173" yMin="-41" xMax="1251" yMax="1609">
      <component glyphName="S" x="0" y="0" flags="0x4"/>
    </TTGlyph>
    <TTGlyph name="Scommaaccent" xMin="173" yMin="-41" xMax="1251" yMax="1609">
      <component glyphName="S" x="0" y="0" flags="0x4"/>
    </TTGlyph>
    <TTGlyph name="T" xMin="193" yMin="0" xMax="1239" yMax="1577">
      <contour>
        <pt x="1220" y="1440" on="1"/>
        <pt x="794" y="1440" on="1"/>
        <pt x="592" y="0" on="1"/>
        <pt x="419" y="0" on="1"/>
        <pt x="620" y="1440" on="1"/>
        <pt x="193" y="1440" on="1"/>
        <pt x="213" y="1577" on="1"/>
        <pt x="1239" y="1577" on="1"/>
      </contour>
    </TTGlyph>
    <TTGlyph name="Tcaron" xMin="193" yMin="0" xMax="1239" yMax="1577">
      <component glyphName="T" x="0" y="0" flags="0x4"/>
    </TTGlyph>
    <TTGlyph name="Tcommaaccent" xMin="193" yMin="0" xMax="1239" yMax="1577">
      <component glyphName="T" x="0" y="0" flags="0x4"/>
    </TTGlyph>
    <TTGlyph name="Thorn" xMin="146" yMin="0" xMax="1300" yMax="1578">
      <contour>
        <pt x="368" y="1578" on="1"/>
        <pt x="541" y="1578" on="1"/>
        <pt x="523" y="1442" on="1"/>
        <pt x="709" y="1442" on="1"/>
        <pt x="867" y="1442" on="0"/>
        <pt x="1091" y="1400" on="0"/>
        <pt x="1234" y="1312" on="0"/>
        <pt x="1300" y="1175" on="0"/>
        <pt x="1300" y="1079" on="1"/>
        <pt x="1300" y="924" on="0"/>
        <pt x="1204" y="707" on="0"/>
        <pt x="1014" y="569" on="0"/>
        <pt x="732" y="506" on="0"/>
        <pt x="546" y="506" on="1"/>
        <pt x="391" y="506" on="1"/>
        <pt x="321" y="0" on="1"/>
        <pt x="146" y="0" on="1"/>
      </contour>
      <contour>
        <pt x="1137" y="1063" on="1"/>
        <pt x="1137" y="1109" on="0"/>
        <pt x="1127" y="1142" on="1"/>
        <pt x="1115" y="1185" on="0"/>
        <pt x="1057" y="1247" on="0"/>
        <pt x="953" y="1286" on="0"/>
        <pt x="798" y="1304" on="0"/>
        <pt x="690" y="1304" on="1"/>
        <pt x="504" y="1304" on="1"/>
        <pt x="410" y="645" on="1"/>
        <pt x="564" y="645" on="1"/>
        <pt x="721" y="645" on="0"/>
        <pt x="940" y="688" on="0"/>
        <pt x="1076" y="786" on="0"/>
        <pt x="1137" y="946" on="0"/>
      </contour>
    </TTGlyph>
    <TTGlyph name="U" xMin="185" yMin="-40" xMax="1489" yMax="1577">
      <contour>
        <pt x="717" y="93" on="1"/>
        <pt x="827" y="93" on="0"/>
        <pt x="985" y="155" on="0"/>
        <pt x="1096" y="299" on="0"/>
        <pt x="1168" y="535" on="0"/>
        <pt x="1193" y="709" on="1"/>
        <pt x="1317" y="1577" on="1"/>
        <pt x="1489" y="1577" on="1"/>
        <pt x="1367" y="713" on="1"/>
        <pt x="1346" y="564" on="0"/>
        <pt x="1277" y="336" on="0"/>
        <pt x="1184" y="169" on="0"/>
        <pt x="1069" y="56" on="0"/>
        <pt x="935" y="-11" on="0"/>
        <pt x="783" y="-40" on="0"/>
        <pt x="700" y="-40" on="1"/>
        <pt x="575" y="-40" on="0"/>
        <pt x="382" y="43" on="0"/>
        <pt x="252" y="196" on="0"/>
        <pt x="185" y="415" on="0"/>
        <pt x="185" y="552" on="1"/>
        <pt x="185" y="559" on="0"/>
        <pt x="186" y="574" on="0"/>
        <pt x="187" y="599" on="0"/>
        <pt x="191" y="637" on="0"/>
        <pt x="194" y="666" on="1"/>
        <pt x="198" y="706" on="0"/>
        <pt x="215" y="842" on="0"/>
        <pt x="245" y="1057" on="0"/>
        <pt x="288" y="1365" on="0"/>
        <pt x="318" y="1577" on="1"/>
        <pt x="490" y="1577" on="1"/>
        <pt x="460" y="1362" on="0"/>
        <pt x="417" y="1049" on="0"/>
        <pt x="387" y="829" on="0"/>
        <pt x="369" y="689" on="0"/>
        <pt x="364" y="647" on="1"/>
        <pt x="361" y="617" on="0"/>
        <pt x="357" y="576" on="0"/>
        <pt x="356" y="549" on="0"/>
        <pt x="355" y="530" on="0"/>
        <pt x="355" y="522" on="1"/>
        <pt x="355" y="432" on="0"/>
        <pt x="390" y="275" on="0"/>
        <pt x="474" y="159" on="0"/>
        <pt x="613" y="93" on="0"/>
      </contour>
    </TTGlyph>
    <TTGlyph name="Uacute" xMin="185" yMin="-40" xMax="1489" yMax="2298">
      <component glyphName="U" x="0" y="0" flags="0x204"/>
      <component glyphName="acute" x="569" y="1560" flags="0x4"/>
    </TTGlyph>
    <TTGlyph name="Ubreve" xMin="185" yMin="-40" xMax="1489" yMax="1577">
      <component glyphName="U" x="0" y="0" flags="0x4"/>
    </TTGlyph>
    <TTGlyph name="Ucaron" xMin="185" yMin="-40" xMax="1489" yMax="2203">
      <component glyphName="U" x="0" y="0" flags="0x204"/>
      <component glyphName="caron" x="537" y="1560" flags="0x4"/>
    </TTGlyph>
    <TTGlyph name="Ucircumflex" xMin="185" yMin="-40" xMax="1489" yMax="2203">
      <component glyphName="U" x="0" y="0" flags="0x204"/>
      <component glyphName="circumflex" x="618" y="1560" flags="0x4"/>
    </TTGlyph>
    <TTGlyph name="Udieresis" xMin="185" yMin="-40" xMax="1489" yMax="1932">
      <component glyphName="U" x="0" y="0" flags="0x204"/>
      <component glyphName="dieresis" x="493" y="1560" flags="0x4"/>
    </TTGlyph>
    <TTGlyph name="Ugrave" xMin="185" yMin="-40" xMax="1489" yMax="2322">
      <component glyphName="U" x="0" y="0" flags="0x204"/>
      <component glyphName="grave" x="673" y="1560" flags="0x4"/>
    </TTGlyph>
    <TTGlyph name="Uhungarumlaut" xMin="185" yMin="-40" xMax="1489" yMax="1577">
      <component glyphName="U" x="0" y="0" flags="0x4"/>
    </TTGlyph>
    <TTGlyph name="Umacron" xMin="185" yMin="-40" xMax="1489" yMax="1577">
      <component glyphName="U" x="0" y="0" flags="0x4"/>
    </TTGlyph>
    <TTGlyph name="Uogonek" xMin="185" yMin="-40" xMax="1489" yMax="1577">
      <component glyphName="U" x="0" y="0" flags="0x4"/>
    </TTGlyph>
    <TTGlyph name="Uring" xMin="185" yMin="-40" xMax="1489" yMax="1577">
      <component glyphName="U" x="0" y="0" flags="0x4"/>
    </TTGlyph>
    <TTGlyph name="Utilde" xMin="185" yMin="-40" xMax="1489" yMax="1940">
      <component glyphName="U" x="0" y="0" flags="0x204"/>
      <component glyphName="tilde" x="599" y="1560" flags="0x4"/>
    </TTGlyph>
    <TTGlyph name="V" xMin="34" yMin="0" xMax="1196" yMax="1578">
      <contour>
        <pt x="201" y="1578" on="1"/>
        <pt x="404" y="104" on="1"/>
        <pt x="1020" y="1577" on="1"/>
        <pt x="1196" y="1577" on="1"/>
        <pt x="520" y="0" on="1"/>
        <pt x="273" y="0" on="1"/>
        <pt x="34" y="1578" on="1"/>
      </contour>
    </TTGlyph>
    <TTGlyph name="W" xMin="298" yMin="0" xMax="1975" yMax="1578">
      <contour>
        <pt x="964" y="1578" on="1"/>
        <pt x="1237" y="1578" on="1"/>
        <pt x="1311" y="94" on="1"/>
        <pt x="1810" y="1577" on="1"/>
        <pt x="1975" y="1577" on="1"/>
        <pt x="1423" y="0" on="1"/>
        <pt x="1164" y="0" on="1"/>
        <pt x="1104" y="1501" on="1"/>
        <pt x="571" y="0" on="1"/>
        <pt x="298" y="0" on="1"/>
        <pt x="303" y="1577" on="1"/>
        <pt x="455" y="1577" on="1"/>
        <pt x="452" y="90" on="1"/>
      </contour>
    </TTGlyph>
    <TTGlyph name="Wacute" xMin="298" yMin="0" xMax="1975" yMax="1578">
      <component glyphName="W" x="0" y="0" flags="0x4"/>
    </TTGlyph>
    <TTGlyph name="Wcircumflex" xMin="298" yMin="0" xMax="1975" yMax="1578">
      <component glyphName="W" x="0" y="0" flags="0x4"/>
    </TTGlyph>
    <TTGlyph name="Wdieresis" xMin="298" yMin="0" xMax="1975" yMax="1578">
      <component glyphName="W" x="0" y="0" flags="0x4"/>
    </TTGlyph>
    <TTGlyph name="Wgrave" xMin="298" yMin="0" xMax="1975" yMax="1578">
      <component glyphName="W" x="0" y="0" flags="0x4"/>
    </TTGlyph>
    <TTGlyph name="X" xMin="33" yMin="0" xMax="1401" yMax="1577">
      <contour>
        <pt x="817" y="800" on="1"/>
        <pt x="1152" y="0" on="1"/>
        <pt x="957" y="0" on="1"/>
        <pt x="704" y="677" on="1"/>
        <pt x="228" y="0" on="1"/>
        <pt x="33" y="0" on="1"/>
        <pt x="623" y="800" on="1"/>
        <pt x="286" y="1577" on="1"/>
        <pt x="459" y="1577" on="1"/>
        <pt x="739" y="914" on="1"/>
        <pt x="1228" y="1577" on="1"/>
        <pt x="1401" y="1577" on="1"/>
      </contour>
    </TTGlyph>
    <TTGlyph name="Y" xMin="235" yMin="0" xMax="1349" yMax="1572">
      <contour>
        <pt x="652" y="630" on="1"/>
        <pt x="1182" y="1572" on="1"/>
        <pt x="1349" y="1572" on="1"/>
        <pt x="719" y="484" on="1"/>
        <pt x="651" y="0" on="1"/>
        <pt x="481" y="0" on="1"/>
        <pt x="553" y="515" on="1"/>
        <pt x="235" y="1572" on="1"/>
        <pt x="386" y="1572" on="1"/>
      </contour>
    </TTGlyph>
    <TTGlyph name="Yacute" xMin="235" yMin="0" xMax="1349" yMax="2298">
      <component glyphName="Y" x="0" y="0" flags="0x204"/>
      <component glyphName="acute" x="382" y="1560" flags="0x4"/>
    </TTGlyph>
    <TTGlyph name="Ycircumflex" xMin="235" yMin="0" xMax="1349" yMax="2203">
      <component glyphName="Y" x="0" y="0" flags="0x204"/>
      <component glyphName="circumflex" x="431" y="1560" flags="0x4"/>
    </TTGlyph>
    <TTGlyph name="Ydieresis" xMin="235" yMin="0" xMax="1349" yMax="1932">
      <component glyphName="Y" x="0" y="0" flags="0x204"/>
      <component glyphName="dieresis" x="306" y="1560" flags="0x4"/>
    </TTGlyph>
    <TTGlyph name="Ygrave" xMin="235" yMin="0" xMax="1349" yMax="2322">
      <component glyphName="Y" x="0" y="0" flags="0x204"/>
      <component glyphName="grave" x="486" y="1560" flags="0x4"/>
    </TTGlyph>
    <TTGlyph name="Ytilde" xMin="235" yMin="0" xMax="1349" yMax="1959">
      <component glyphName="Y" x="0" y="0" flags="0x4"/>
      <component glyphName="tilde" x="534" y="1579" flags="0x4"/>
    </TTGlyph>
    <TTGlyph name="Z" xMin="105" yMin="0" xMax="1278" yMax="1572">
      <contour>
        <pt x="1278" y="1572" on="1"/>
        <pt x="1257" y="1422" on="1"/>
        <pt x="284" y="138" on="1"/>
        <pt x="1078" y="138" on="1"/>
        <pt x="1058" y="0" on="1"/>
        <pt x="105" y="0" on="1"/>
        <pt x="128" y="176" on="1"/>
        <pt x="1088" y="1440" on="1"/>
        <pt x="305" y="1440" on="1"/>
        <pt x="325" y="1572" on="1"/>
      </contour>
    </TTGlyph>
    <TTGlyph name="Zacute" xMin="105" yMin="0" xMax="1278" yMax="1572">
      <component glyphName="Z" x="0" y="0" flags="0x4"/>
    </TTGlyph>
    <TTGlyph name="Zcaron" xMin="105" yMin="0" xMax="1278" yMax="2255">
      <component glyphName="Z" x="0" y="0" flags="0x204"/>
      <component glyphName="caron" x="491" y="1612" flags="0x4"/>
    </TTGlyph>
    <TTGlyph name="Zdotaccent" xMin="105" yMin="0" xMax="1278" yMax="1572">
      <component glyphName="Z" x="0" y="0" flags="0x4"/>
    </TTGlyph>
    <TTGlyph name="a" xMin="176" yMin="-21" xMax="1133" yMax="1168">
      <contour>
        <pt x="1133" y="1066" on="1"/>
        <pt x="980" y="0" on="1"/>
        <pt x="855" y="0" on="1"/>
        <pt x="864" y="197" on="1"/>
        <pt x="804" y="92" on="0"/>
        <pt x="626" y="-21" on="0"/>
        <pt x="523" y="-21" on="1"/>
        <pt x="429" y="-21" on="0"/>
        <pt x="297" y="46" on="0"/>
        <pt x="214" y="160" on="0"/>
        <pt x="176" y="313" on="0"/>
        <pt x="176" y="400" on="1"/>
        <pt x="176" y="477" on="0"/>
        <pt x="216" y="652" on="0"/>
        <pt x="292" y="822" on="0"/>
        <pt x="401" y="978" on="0"/>
        <pt x="538" y="1097" on="0"/>
        <pt x="701" y="1168" on="0"/>
        <pt x="793" y="1168" on="1"/>
        <pt x="825" y="1168" on="0"/>
        <pt x="904" y="1154" on="0"/>
        <pt x="983" y="1131" on="0"/>
        <pt x="1055" y="1105" on="0"/>
        <pt x="1080" y="1093" on="1"/>
      </contour>
      <contour>
        <pt x="330" y="404" on="1"/>
        <pt x="330" y="324" on="0"/>
        <pt x="358" y="210" on="0"/>
        <pt x="415" y="138" on="0"/>
        <pt x="501" y="104" on="0"/>
        <pt x="560" y="104" on="1"/>
        <pt x="611" y="104" on="0"/>
        <pt x="706" y="146" on="0"/>
        <pt x="786" y="208" on="0"/>
        <pt x="847" y="278" on="0"/>
        <pt x="864" y="305" on="1"/>
        <pt x="968" y="1002" on="1"/>
        <pt x="969" y="1003" on="0"/>
        <pt x="938" y="1016" on="0"/>
        <pt x="887" y="1029" on="0"/>
        <pt x="823" y="1040" on="0"/>
        <pt x="792" y="1040" on="1"/>
        <pt x="735" y="1040" on="0"/>
        <pt x="623" y="992" on="0"/>
        <pt x="520" y="907" on="0"/>
        <pt x="432" y="789" on="0"/>
        <pt x="367" y="648" on="0"/>
        <pt x="330" y="488" on="0"/>
      </contour>
    </TTGlyph>
    <TTGlyph name="aacute" xMin="176" yMin="-21" xMax="1133" yMax="1906">
      <component glyphName="a" x="0" y="0" flags="0x204"/>
      <component glyphName="acute" x="468" y="1168" flags="0x4"/>
    </TTGlyph>
    <TTGlyph name="abreve" xMin="176" yMin="-21" xMax="1133" yMax="1168">
      <component glyphName="a" x="0" y="0" flags="0x4"/>
    </TTGlyph>
    <TTGlyph name="acaron" xMin="176" yMin="-21" xMax="1133" yMax="1811">
      <component glyphName="a" x="0" y="0" flags="0x204"/>
      <component glyphName="caron" x="396" y="1168" flags="0x4"/>
    </TTGlyph>
    <TTGlyph name="acircumflex" xMin="176" yMin="-21" xMax="1133" yMax="1811">
      <component glyphName="a" x="0" y="0" flags="0x204"/>
      <component glyphName="circumflex" x="403" y="1168" flags="0x4"/>
    </TTGlyph>
    <TTGlyph name="acute" xMin="190" yMin="120" xMax="614" yMax="738">
      <contour>
        <pt x="319" y="120" on="1"/>
        <pt x="190" y="120" on="1"/>
        <pt x="382" y="738" on="1"/>
        <pt x="614" y="738" on="1"/>
      </contour>
    </TTGlyph>
    <TTGlyph name="acutecomb" xMin="566" yMin="1211" xMax="1012" yMax="1848">
      <contour>
        <pt x="566" y="1237" on="1"/>
        <pt x="811" y="1848" on="1"/>
        <pt x="1012" y="1757" on="1"/>
        <pt x="615" y="1211" on="1"/>
      </contour>
    </TTGlyph>
    <TTGlyph name="adieresis" xMin="176" yMin="-21" xMax="1133" yMax="1540">
      <component glyphName="a" x="0" y="0" flags="0x204"/>
      <component glyphName="dieresis" x="270" y="1168" flags="0x4"/>
    </TTGlyph>
    <TTGlyph name="ae" xMin="176" yMin="-21" xMax="1772" yMax="1168">
      <contour>
        <pt x="1622" y="102" on="1"/>
        <pt x="1580" y="72" on="0"/>
        <pt x="1486" y="27" on="0"/>
        <pt x="1390" y="-5" on="0"/>
        <pt x="1296" y="-21" on="0"/>
        <pt x="1254" y="-21" on="1"/>
        <pt x="1121" y="-21" on="0"/>
        <pt x="956" y="85" on="0"/>
        <pt x="911" y="184" on="1"/>
        <pt x="875" y="140" on="0"/>
        <pt x="779" y="66" on="0"/>
        <pt x="674" y="10" on="0"/>
        <pt x="568" y="-21" on="0"/>
        <pt x="523" y="-21" on="1"/>
        <pt x="430" y="-21" on="0"/>
        <pt x="298" y="44" on="0"/>
        <pt x="215" y="158" on="0"/>
        <pt x="176" y="311" on="0"/>
        <pt x="176" y="400" on="1"/>
        <pt x="176" y="480" on="0"/>
        <pt x="216" y="656" on="0"/>
        <pt x="293" y="827" on="0"/>
        <pt x="404" y="982" on="0"/>
        <pt x="546" y="1099" on="0"/>
        <pt x="716" y="1168" on="0"/>
        <pt x="814" y="1168" on="1"/>
        <pt x="901" y="1168" on="0"/>
        <pt x="1030" y="1135" on="0"/>
        <pt x="1114" y="1096" on="0"/>
        <pt x="1154" y="1064" on="0"/>
        <pt x="1152" y="1065" on="1"/>
        <pt x="1212" y="1113" on="0"/>
        <pt x="1357" y="1168" on="0"/>
        <pt x="1442" y="1168" on="1"/>
        <pt x="1519" y="1168" on="0"/>
        <pt x="1642" y="1123" on="0"/>
        <pt x="1727" y="1030" on="0"/>
        <pt x="1772" y="886" on="0"/>
        <pt x="1772" y="788" on="1"/>
        <pt x="1772" y="764" on="0"/>
        <pt x="1763" y="721" on="0"/>
        <pt x="1720" y="681" on="0"/>
        <pt x="1630" y="644" on="0"/>
        <pt x="1467" y="608" on="0"/>
        <pt x="1219" y="574" on="0"/>
        <pt x="1040" y="557" on="1"/>
        <pt x="1033" y="512" on="0"/>
        <pt x="1027" y="435" on="0"/>
        <pt x="1027" y="400" on="1"/>
        <pt x="1027" y="248" on="0"/>
        <pt x="1169" y="105" on="0"/>
        <pt x="1294" y="105" on="1"/>
        <pt x="1369" y="105" on="0"/>
        <pt x="1514" y="175" on="0"/>
        <pt x="1587" y="233" on="1"/>
      </contour>
      <contour>
        <pt x="330" y="397" on="1"/>
        <pt x="331" y="319" on="0"/>
        <pt x="360" y="207" on="0"/>
        <pt x="417" y="137" on="0"/>
        <pt x="503" y="104" on="0"/>
        <pt x="560" y="104" on="1"/>
        <pt x="604" y="104" on="0"/>
        <pt x="696" y="141" on="0"/>
        <pt x="782" y="197" on="0"/>
        <pt x="854" y="262" on="0"/>
        <pt x="878" y="290" on="1"/>
        <pt x="868" y="346" on="0"/>
        <pt x="868" y="412" on="1"/>
        <pt x="868" y="481" on="0"/>
        <pt x="895" y="631" on="0"/>
        <pt x="945" y="778" on="0"/>
        <pt x="1017" y="916" on="0"/>
        <pt x="1063" y="974" on="1"/>
        <pt x="1064" y="974" on="0"/>
        <pt x="1033" y="995" on="0"/>
        <pt x="969" y="1019" on="0"/>
        <pt x="869" y="1040" on="0"/>
        <pt x="801" y="1040" on="1"/>
        <pt x="741" y="1040" on="0"/>
        <pt x="624" y="993" on="0"/>
        <pt x="519" y="907" on="0"/>
        <pt x="431" y="788" on="0"/>
        <pt x="366" y="645" on="0"/>
        <pt x="330" y="483" on="0"/>
      </contour>
      <contour>
        <pt x="1058" y="670" on="1"/>
        <pt x="1200" y="688" on="0"/>
        <pt x="1395" y="718" on="0"/>
        <pt x="1522" y="743" on="0"/>
        <pt x="1591" y="764" on="0"/>
        <pt x="1623" y="782" on="0"/>
        <pt x="1629" y="799" on="0"/>
        <pt x="1629" y="807" on="1"/>
        <pt x="1629" y="922" on="0"/>
        <pt x="1528" y="1040" on="0"/>
        <pt x="1438" y="1039" on="1"/>
        <pt x="1366" y="1039" on="0"/>
        <pt x="1244" y="990" on="0"/>
        <pt x="1147" y="895" on="0"/>
        <pt x="1077" y="758" on="0"/>
      </contour>
    </TTGlyph>
    <TTGlyph name="aeacute" xMin="176" yMin="-21" xMax="1772" yMax="1168">
      <component glyphName="ae" x="0" y="0" flags="0x4"/>
    </TTGlyph>
    <TTGlyph name="afii10017" xMin="43" yMin="0" xMax="1277" yMax="1577">
      <component glyphName="A" x="0" y="0" flags="0x204"/>
    </TTGlyph>
    <TTGlyph name="afii10018" xMin="146" yMin="0" xMax="1255" yMax="1578">
      <contour>
        <pt x="1228" y="556" on="1"/>
        <pt x="1228" y="454" on="0"/>
        <pt x="1209" y="379" on="1"/>
        <pt x="1182" y="269" on="0"/>
        <pt x="1056" y="123" on="0"/>
        <pt x="870" y="36" on="0"/>
        <pt x="630" y="0" on="0"/>
        <pt x="489" y="0" on="1"/>
        <pt x="146" y="0" on="1"/>
        <pt x="324" y="1259" on="1"/>
        <pt x="332" y="1259" on="1"/>
        <pt x="377" y="1578" on="1"/>
        <pt x="1255" y="1578" on="1"/>
        <pt x="1238" y="1463" on="1"/>
        <pt x="522" y="1463" on="1"/>
        <pt x="448" y="935" on="1"/>
        <pt x="589" y="935" on="1"/>
        <pt x="911" y="935" on="0"/>
        <pt x="1229" y="737" on="0"/>
        <pt x="1228" y="550" on="1"/>
      </contour>
      <contour>
        <pt x="508" y="794" on="1"/>
        <pt x="428" y="794" on="1"/>
        <pt x="336" y="139" on="1"/>
        <pt x="541" y="139" on="1"/>
        <pt x="671" y="139" on="0"/>
        <pt x="857" y="180" on="0"/>
        <pt x="980" y="260" on="0"/>
        <pt x="1045" y="380" on="0"/>
        <pt x="1054" y="460" on="1"/>
        <pt x="1056" y="478" on="0"/>
        <pt x="1057" y="516" on="0"/>
        <pt x="1058" y="536" on="1"/>
        <pt x="1058" y="599" on="0"/>
        <pt x="1013" y="687" on="0"/>
        <pt x="939" y="744" on="0"/>
        <pt x="842" y="776" on="0"/>
        <pt x="738" y="791" on="0"/>
        <pt x="635" y="794" on="0"/>
        <pt x="591" y="794" on="1"/>
      </contour>
    </TTGlyph>
    <TTGlyph name="afii10019" xMin="147" yMin="0" xMax="1281" yMax="1577">
      <component glyphName="B" x="0" y="0" flags="0x4"/>
    </TTGlyph>
    <TTGlyph name="afii10020" xMin="146" yMin="0" xMax="1323" yMax="1577">
      <contour>
        <pt x="1323" y="1577" on="1"/>
        <pt x="1304" y="1438" on="1"/>
        <pt x="518" y="1438" on="1"/>
        <pt x="317" y="0" on="1"/>
        <pt x="146" y="0" on="1"/>
        <pt x="368" y="1577" on="1"/>
      </contour>
    </TTGlyph>
    <TTGlyph name="afii10021" xMin="134" yMin="-394" xMax="1661" yMax="1577">
      <contour>
        <pt x="1454" y="99" on="1"/>
        <pt x="1557" y="110" on="1"/>
        <pt x="1484" y="-394" on="1"/>
        <pt x="1322" y="-394" on="1"/>
        <pt x="1375" y="-23" on="1"/>
        <pt x="356" y="-23" on="1"/>
        <pt x="303" y="-394" on="1"/>
        <pt x="134" y="-394" on="1"/>
        <pt x="204" y="105" on="1"/>
        <pt x="230" y="105" on="0"/>
        <pt x="259" y="95" on="1"/>
        <pt x="315" y="158" on="0"/>
        <pt x="402" y="289" on="0"/>
        <pt x="471" y="428" on="0"/>
        <pt x="523" y="577" on="0"/>
        <pt x="544" y="659" on="1"/>
        <pt x="572" y="770" on="0"/>
        <pt x="611" y="1018" on="0"/>
        <pt x="631" y="1167" on="1"/>
        <pt x="686" y="1577" on="1"/>
        <pt x="1661" y="1577" on="1"/>
      </contour>
      <contour>
        <pt x="1285" y="105" on="1"/>
        <pt x="1474" y="1459" on="1"/>
        <pt x="840" y="1459" on="1"/>
        <pt x="800" y="1147" on="1"/>
        <pt x="779" y="990" on="0"/>
        <pt x="730" y="710" on="0"/>
        <pt x="656" y="454" on="0"/>
        <pt x="549" y="218" on="0"/>
        <pt x="470" y="105" on="1"/>
      </contour>
    </TTGlyph>
    <TTGlyph name="afii10022" xMin="147" yMin="0" xMax="1268" yMax="1577">
      <component glyphName="E" x="0" y="0" flags="0x4"/>
    </TTGlyph>
    <TTGlyph name="afii10023" xMin="147" yMin="0" xMax="1268" yMax="1934">
      <component glyphName="E" x="0" y="0" flags="0x4"/>
      <component glyphName="dieresis" x="410" y="1562" flags="0x4"/>
    </TTGlyph>
    <TTGlyph name="afii10024" xMin="33" yMin="0" xMax="2008" yMax="1577">
      <contour>
        <pt x="950" y="750" on="1"/>
        <pt x="774" y="750" on="1"/>
        <pt x="212" y="0" on="1"/>
        <pt x="33" y="0" on="1"/>
        <pt x="567" y="678" on="1"/>
        <pt x="582" y="697" on="0"/>
        <pt x="617" y="735" on="0"/>
        <pt x="653" y="767" on="0"/>
        <pt x="691" y="791" on="0"/>
        <pt x="710" y="797" on="1"/>
        <pt x="668" y="812" on="0"/>
        <pt x="618" y="865" on="0"/>
        <pt x="594" y="911" on="1"/>
        <pt x="317" y="1577" on="1"/>
        <pt x="487" y="1577" on="1"/>
        <pt x="782" y="851" on="1"/>
        <pt x="965" y="851" on="1"/>
        <pt x="1068" y="1577" on="1"/>
        <pt x="1238" y="1577" on="1"/>
        <pt x="1136" y="851" on="1"/>
        <pt x="1321" y="851" on="1"/>
        <pt x="1820" y="1577" on="1"/>
        <pt x="2008" y="1564" on="1"/>
        <pt x="1520" y="913" on="1"/>
        <pt x="1503" y="890" on="0"/>
        <pt x="1472" y="854" on="0"/>
        <pt x="1438" y="826" on="0"/>
        <pt x="1400" y="805" on="0"/>
        <pt x="1377" y="797" on="1"/>
        <pt x="1410" y="786" on="0"/>
        <pt x="1471" y="731" on="0"/>
        <pt x="1494" y="689" on="1"/>
        <pt x="1830" y="0" on="1"/>
        <pt x="1651" y="0" on="1"/>
        <pt x="1298" y="750" on="1"/>
        <pt x="1121" y="750" on="1"/>
        <pt x="1016" y="0" on="1"/>
        <pt x="846" y="0" on="1"/>
      </contour>
    </TTGlyph>
    <TTGlyph name="afii10025" xMin="304" yMin="-42" xMax="1249" yMax="1609">
      <contour>
        <pt x="852" y="802" on="1"/>
        <pt x="906" y="796" on="0"/>
        <pt x="993" y="765" on="0"/>
        <pt x="1028" y="742" on="1"/>
        <pt x="1094" y="696" on="0"/>
        <pt x="1158" y="556" on="0"/>
        <pt x="1158" y="471" on="1"/>
        <pt x="1158" y="356" on="0"/>
        <pt x="1086" y="169" on="0"/>
        <pt x="1020" y="100" on="1"/>
        <pt x="957" y="33" on="0"/>
        <pt x="785" y="-42" on="0"/>
        <pt x="682" y="-42" on="1"/>
        <pt x="606" y="-42" on="0"/>
        <pt x="457" y="-18" on="0"/>
        <pt x="379" y="15" on="1"/>
        <pt x="362" y="22" on="0"/>
        <pt x="324" y="41" on="0"/>
        <pt x="304" y="52" on="1"/>
        <pt x="373" y="193" on="1"/>
        <pt x="404" y="175" on="0"/>
        <pt x="482" y="143" on="0"/>
        <pt x="565" y="118" on="0"/>
        <pt x="646" y="104" on="0"/>
        <pt x="679" y="104" on="1"/>
        <pt x="755" y="104" on="0"/>
        <pt x="874" y="166" on="0"/>
        <pt x="957" y="266" on="0"/>
        <pt x="1001" y="394" on="0"/>
        <pt x="1001" y="459" on="1"/>
        <pt x="1001" y="574" on="0"/>
        <pt x="875" y="706" on="0"/>
        <pt x="755" y="726" on="1"/>
        <pt x="731" y="730" on="0"/>
        <pt x="679" y="733" on="0"/>
        <pt x="650" y="733" on="1"/>
        <pt x="595" y="733" on="1"/>
        <pt x="617" y="872" on="1"/>
        <pt x="674" y="872" on="1"/>
        <pt x="699" y="872" on="0"/>
        <pt x="746" y="875" on="0"/>
        <pt x="769" y="879" on="1"/>
        <pt x="847" y="892" on="0"/>
        <pt x="971" y="957" on="0"/>
        <pt x="1057" y="1055" on="0"/>
        <pt x="1103" y="1184" on="0"/>
        <pt x="1103" y="1262" on="1"/>
        <pt x="1104" y="1360" on="0"/>
        <pt x="996" y="1464" on="0"/>
        <pt x="874" y="1463" on="1"/>
        <pt x="857" y="1463" on="0"/>
        <pt x="823" y="1460" on="0"/>
        <pt x="805" y="1458" on="1"/>
        <pt x="757" y="1450" on="0"/>
        <pt x="650" y="1419" on="0"/>
        <pt x="595" y="1393" on="1"/>
        <pt x="571" y="1530" on="1"/>
        <pt x="625" y="1555" on="0"/>
        <pt x="763" y="1592" on="0"/>
        <pt x="830" y="1603" on="1"/>
        <pt x="864" y="1609" on="0"/>
        <pt x="897" y="1609" on="1"/>
        <pt x="973" y="1609" on="0"/>
        <pt x="1102" y="1569" on="0"/>
        <pt x="1196" y="1487" on="0"/>
        <pt x="1249" y="1362" on="0"/>
        <pt x="1249" y="1277" on="1"/>
        <pt x="1248" y="1133" on="0"/>
        <pt x="1127" y="916" on="0"/>
        <pt x="1019" y="856" on="1"/>
        <pt x="945" y="815" on="0"/>
      </contour>
    </TTGlyph>
    <TTGlyph name="afii10026" xMin="146" yMin="0" xMax="1554" yMax="1577">
      <contour>
        <pt x="146" y="0" on="1"/>
        <pt x="368" y="1577" on="1"/>
        <pt x="540" y="1577" on="1"/>
        <pt x="362" y="312" on="1"/>
        <pt x="1287" y="1577" on="1"/>
        <pt x="1554" y="1577" on="1"/>
        <pt x="1332" y="0" on="1"/>
        <pt x="1160" y="0" on="1"/>
        <pt x="1363" y="1449" on="1"/>
        <pt x="328" y="73" on="1"/>
        <pt x="319" y="0" on="1"/>
      </contour>
    </TTGlyph>
    <TTGlyph name="afii10027" xMin="146" yMin="0" xMax="1554" yMax="1577">
      <contour>
        <pt x="1182" y="1402" on="1"/>
        <pt x="1179" y="1376" on="0"/>
        <pt x="1173" y="1354" on="1"/>
        <pt x="1149" y="1269" on="0"/>
        <pt x="1022" y="1168" on="0"/>
        <pt x="910" y="1168" on="1"/>
        <pt x="802" y="1168" on="0"/>
        <pt x="706" y="1267" on="0"/>
        <pt x="706" y="1352" on="1"/>
        <pt x="706" y="1363" on="0"/>
        <pt x="708" y="1388" on="0"/>
        <pt x="710" y="1402" on="1"/>
        <pt x="814" y="1402" on="1"/>
        <pt x="813" y="1395" on="0"/>
        <pt x="812" y="1384" on="0"/>
        <pt x="812" y="1378" on="1"/>
        <pt x="812" y="1330" on="0"/>
        <pt x="877" y="1276" on="0"/>
        <pt x="928" y="1276" on="1"/>
        <pt x="989" y="1276" on="0"/>
        <pt x="1069" y="1344" on="0"/>
        <pt x="1080" y="1402" on="1"/>
      </contour>
      <contour>
        <pt x="146" y="0" on="1"/>
        <pt x="368" y="1577" on="1"/>
        <pt x="540" y="1577" on="1"/>
        <pt x="362" y="312" on="1"/>
        <pt x="1287" y="1577" on="1"/>
        <pt x="1554" y="1577" on="1"/>
        <pt x="1332" y="0" on="1"/>
        <pt x="1160" y="0" on="1"/>
        <pt x="1363" y="1449" on="1"/>
        <pt x="328" y="73" on="1"/>
        <pt x="319" y="0" on="1"/>
      </contour>
    </TTGlyph>
    <TTGlyph name="afii10028" xMin="146" yMin="0" xMax="1378" yMax="1577">
      <contour>
        <pt x="317" y="0" on="1"/>
        <pt x="146" y="0" on="1"/>
        <pt x="368" y="1577" on="1"/>
        <pt x="538" y="1577" on="1"/>
        <pt x="437" y="851" on="1"/>
        <pt x="650" y="851" on="1"/>
        <pt x="1175" y="1577" on="1"/>
        <pt x="1378" y="1577" on="1"/>
        <pt x="880" y="913" on="1"/>
        <pt x="860" y="886" on="0"/>
        <pt x="824" y="850" on="0"/>
        <pt x="788" y="824" on="0"/>
        <pt x="748" y="805" on="0"/>
        <pt x="726" y="797" on="1"/>
        <pt x="759" y="786" on="0"/>
        <pt x="819" y="730" on="0"/>
        <pt x="842" y="688" on="1"/>
        <pt x="1219" y="0" on="1"/>
        <pt x="1029" y="0" on="1"/>
        <pt x="639" y="750" on="1"/>
        <pt x="421" y="750" on="1"/>
      </contour>
    </TTGlyph>
    <TTGlyph name="afii10029" xMin="34" yMin="-21" xMax="1761" yMax="1577">
      <contour>
        <pt x="1539" y="0" on="1"/>
        <pt x="1369" y="0" on="1"/>
        <pt x="1570" y="1439" on="1"/>
        <pt x="860" y="1439" on="1"/>
        <pt x="742" y="842" on="1"/>
        <pt x="713" y="696" on="0"/>
        <pt x="666" y="454" on="0"/>
        <pt x="605" y="262" on="0"/>
        <pt x="517" y="120" on="0"/>
        <pt x="379" y="26" on="0"/>
        <pt x="178" y="-21" on="0"/>
        <pt x="34" y="-21" on="1"/>
        <pt x="56" y="112" on="1"/>
        <pt x="120" y="115" on="0"/>
        <pt x="228" y="130" on="0"/>
        <pt x="317" y="162" on="0"/>
        <pt x="388" y="212" on="0"/>
        <pt x="415" y="250" on="1"/>
        <pt x="439" y="283" on="0"/>
        <pt x="475" y="382" on="0"/>
        <pt x="505" y="499" on="0"/>
        <pt x="529" y="627" on="0"/>
        <pt x="541" y="689" on="1"/>
        <pt x="714" y="1577" on="1"/>
        <pt x="1761" y="1577" on="1"/>
      </contour>
    </TTGlyph>
    <TTGlyph name="afii10030" xMin="146" yMin="0" xMax="1864" yMax="1578">
      <component glyphName="M" x="0" y="0" flags="0x204"/>
    </TTGlyph>
    <TTGlyph name="afii10031" xMin="147" yMin="0" xMax="1498" yMax="1578">
      <component glyphName="H" x="0" y="0" flags="0x204"/>
    </TTGlyph>
    <TTGlyph name="afii10032" xMin="219" yMin="-41" xMax="1481" yMax="1609">
      <component glyphName="O" x="0" y="0" flags="0x204"/>
    </TTGlyph>
    <TTGlyph name="afii10033" xMin="146" yMin="0" xMax="1491" yMax="1577">
      <contour>
        <pt x="1269" y="0" on="1"/>
        <pt x="1099" y="0" on="1"/>
        <pt x="1300" y="1439" on="1"/>
        <pt x="518" y="1439" on="1"/>
        <pt x="317" y="0" on="1"/>
        <pt x="146" y="0" on="1"/>
        <pt x="368" y="1577" on="1"/>
        <pt x="1491" y="1577" on="1"/>
      </contour>
    </TTGlyph>
    <TTGlyph name="afii10034" xMin="147" yMin="0" xMax="1325" yMax="1577">
      <component glyphName="P" x="0" y="0" flags="0x4"/>
    </TTGlyph>
    <TTGlyph name="afii10035" xMin="219" yMin="-41" xMax="1364" yMax="1609">
      <component glyphName="C" x="0" y="0" flags="0x4"/>
    </TTGlyph>
    <TTGlyph name="afii10036" xMin="193" yMin="0" xMax="1239" yMax="1577">
      <component glyphName="T" x="0" y="0" flags="0x204"/>
    </TTGlyph>
    <TTGlyph name="afii10037" xMin="233" yMin="-130" xMax="1291" yMax="1577">
      <contour>
        <pt x="674" y="598" on="1"/>
        <pt x="1119" y="1577" on="1"/>
        <pt x="1291" y="1577" on="1"/>
        <pt x="713" y="430" on="1"/>
        <pt x="675" y="193" on="1"/>
        <pt x="648" y="24" on="0"/>
        <pt x="439" y="-130" on="0"/>
        <pt x="246" y="-125" on="1"/>
        <pt x="233" y="6" on="1"/>
        <pt x="299" y="6" on="0"/>
        <pt x="404" y="12" on="0"/>
        <pt x="482" y="48" on="0"/>
        <pt x="532" y="127" on="0"/>
        <pt x="543" y="200" on="1"/>
        <pt x="580" y="428" on="1"/>
        <pt x="347" y="1577" on="1"/>
        <pt x="507" y="1577" on="1"/>
      </contour>
    </TTGlyph>
    <TTGlyph name="afii10038" xMin="219" yMin="4" xMax="1425" yMax="1574">
      <contour>
        <pt x="825" y="292" on="1"/>
        <pt x="949" y="308" on="0"/>
        <pt x="1115" y="418" on="0"/>
        <pt x="1166" y="500" on="1"/>
        <pt x="1220" y="585" on="0"/>
        <pt x="1264" y="791" on="0"/>
        <pt x="1263" y="909" on="1"/>
        <pt x="1263" y="1046" on="0"/>
        <pt x="1213" y="1132" on="1"/>
        <pt x="1175" y="1190" on="0"/>
        <pt x="1052" y="1261" on="0"/>
        <pt x="964" y="1272" on="1"/>
      </contour>
      <contour>
        <pt x="797" y="1272" on="1"/>
        <pt x="761" y="1268" on="0"/>
        <pt x="696" y="1251" on="0"/>
        <pt x="667" y="1239" on="1"/>
        <pt x="613" y="1215" on="0"/>
        <pt x="529" y="1141" on="0"/>
        <pt x="497" y="1096" on="1"/>
        <pt x="464" y="1049" on="0"/>
        <pt x="417" y="939" on="0"/>
        <pt x="387" y="823" on="0"/>
        <pt x="374" y="704" on="0"/>
        <pt x="374" y="647" on="1"/>
        <pt x="374" y="494" on="0"/>
        <pt x="521" y="315" on="0"/>
        <pt x="659" y="292" on="1"/>
      </contour>
      <contour>
        <pt x="786" y="4" on="1"/>
        <pt x="620" y="4" on="1"/>
        <pt x="641" y="156" on="1"/>
        <pt x="539" y="167" on="0"/>
        <pt x="382" y="250" on="0"/>
        <pt x="274" y="378" on="0"/>
        <pt x="219" y="543" on="0"/>
        <pt x="219" y="637" on="1"/>
        <pt x="219" y="670" on="0"/>
        <pt x="222" y="734" on="0"/>
        <pt x="227" y="766" on="1"/>
        <pt x="238" y="851" on="0"/>
        <pt x="287" y="1013" on="0"/>
        <pt x="361" y="1157" on="0"/>
        <pt x="461" y="1278" on="0"/>
        <pt x="585" y="1365" on="0"/>
        <pt x="732" y="1414" on="0"/>
        <pt x="817" y="1414" on="1"/>
        <pt x="840" y="1574" on="1"/>
        <pt x="1006" y="1574" on="1"/>
        <pt x="984" y="1415" on="1"/>
        <pt x="1213" y="1393" on="0"/>
        <pt x="1425" y="1139" on="0"/>
        <pt x="1424" y="904" on="1"/>
        <pt x="1424" y="758" on="0"/>
        <pt x="1342" y="494" on="0"/>
        <pt x="1185" y="290" on="0"/>
        <pt x="955" y="163" on="0"/>
        <pt x="807" y="155" on="1"/>
      </contour>
    </TTGlyph>
    <TTGlyph name="afii10039" xMin="33" yMin="0" xMax="1401" yMax="1577">
      <component glyphName="X" x="0" y="0" flags="0x204"/>
    </TTGlyph>
    <TTGlyph name="afii10040" xMin="146" yMin="-421" xMax="1492" yMax="1577">
      <contour>
        <pt x="1366" y="-9" on="1"/>
        <pt x="1308" y="-421" on="1"/>
        <pt x="1159" y="-421" on="1"/>
        <pt x="1218" y="0" on="1"/>
        <pt x="146" y="0" on="1"/>
        <pt x="368" y="1577" on="1"/>
        <pt x="538" y="1577" on="1"/>
        <pt x="336" y="140" on="1"/>
        <pt x="1119" y="140" on="1"/>
        <pt x="1321" y="1577" on="1"/>
        <pt x="1492" y="1577" on="1"/>
        <pt x="1269" y="-9" on="1"/>
      </contour>
    </TTGlyph>
    <TTGlyph name="afii10041" xMin="259" yMin="0" xMax="1286" yMax="1580">
      <contour>
        <pt x="974" y="593" on="1"/>
        <pt x="929" y="533" on="0"/>
        <pt x="832" y="453" on="0"/>
        <pt x="780" y="429" on="1"/>
        <pt x="729" y="407" on="0"/>
        <pt x="630" y="389" on="0"/>
        <pt x="579" y="389" on="1"/>
        <pt x="427" y="389" on="0"/>
        <pt x="259" y="552" on="0"/>
        <pt x="259" y="725" on="1"/>
        <pt x="259" y="728" on="0"/>
        <pt x="263" y="767" on="0"/>
        <pt x="266" y="799" on="1"/>
        <pt x="273" y="851" on="0"/>
        <pt x="293" y="1009" on="0"/>
        <pt x="317" y="1184" on="0"/>
        <pt x="340" y="1358" on="0"/>
        <pt x="358" y="1496" on="0"/>
        <pt x="370" y="1580" on="0"/>
        <pt x="370" y="1577" on="1"/>
        <pt x="542" y="1577" on="1"/>
        <pt x="542" y="1580" on="0"/>
        <pt x="530" y="1498" on="0"/>
        <pt x="511" y="1363" on="0"/>
        <pt x="488" y="1192" on="0"/>
        <pt x="465" y="1021" on="0"/>
        <pt x="445" y="868" on="0"/>
        <pt x="439" y="818" on="1"/>
        <pt x="435" y="786" on="0"/>
        <pt x="431" y="748" on="0"/>
        <pt x="431" y="744" on="1"/>
        <pt x="431" y="626" on="0"/>
        <pt x="517" y="527" on="0"/>
        <pt x="611" y="527" on="1"/>
        <pt x="667" y="527" on="0"/>
        <pt x="781" y="560" on="0"/>
        <pt x="882" y="609" on="0"/>
        <pt x="964" y="666" on="0"/>
        <pt x="988" y="690" on="1"/>
        <pt x="1114" y="1577" on="1"/>
        <pt x="1286" y="1577" on="1"/>
        <pt x="1063" y="0" on="1"/>
        <pt x="892" y="0" on="1"/>
      </contour>
    </TTGlyph>
    <TTGlyph name="afii10042" xMin="146" yMin="0" xMax="2219" yMax="1577">
      <contour>
        <pt x="1176" y="141" on="1"/>
        <pt x="1847" y="141" on="1"/>
        <pt x="2049" y="1577" on="1"/>
        <pt x="2219" y="1577" on="1"/>
        <pt x="1997" y="0" on="1"/>
        <pt x="146" y="0" on="1"/>
        <pt x="368" y="1577" on="1"/>
        <pt x="538" y="1577" on="1"/>
        <pt x="336" y="140" on="1"/>
        <pt x="1006" y="140" on="1"/>
        <pt x="1208" y="1577" on="1"/>
        <pt x="1378" y="1577" on="1"/>
      </contour>
    </TTGlyph>
    <TTGlyph name="afii10043" xMin="146" yMin="-412" xMax="2218" yMax="1577">
      <contour>
        <pt x="1176" y="141" on="1"/>
        <pt x="1846" y="141" on="1"/>
        <pt x="2048" y="1577" on="1"/>
        <pt x="2218" y="1577" on="1"/>
        <pt x="1996" y="2" on="1"/>
        <pt x="2104" y="2" on="1"/>
        <pt x="2044" y="-412" on="1"/>
        <pt x="1895" y="-412" on="1"/>
        <pt x="1953" y="0" on="1"/>
        <pt x="146" y="0" on="1"/>
        <pt x="368" y="1577" on="1"/>
        <pt x="538" y="1577" on="1"/>
        <pt x="336" y="141" on="1"/>
        <pt x="1006" y="141" on="1"/>
        <pt x="1209" y="1577" on="1"/>
        <pt x="1379" y="1577" on="1"/>
      </contour>
    </TTGlyph>
    <TTGlyph name="afii10044" xMin="61" yMin="0" xMax="1249" yMax="1577">
      <contour>
        <pt x="79" y="1577" on="1"/>
        <pt x="560" y="1577" on="1"/>
        <pt x="469" y="935" on="1"/>
        <pt x="632" y="935" on="1"/>
        <pt x="806" y="935" on="0"/>
        <pt x="1042" y="884" on="0"/>
        <pt x="1186" y="786" on="0"/>
        <pt x="1249" y="642" on="0"/>
        <pt x="1249" y="549" on="1"/>
        <pt x="1249" y="465" on="0"/>
        <pt x="1223" y="328" on="0"/>
        <pt x="1173" y="220" on="0"/>
        <pt x="1100" y="137" on="0"/>
        <pt x="1052" y="106" on="1"/>
        <pt x="958" y="46" on="0"/>
        <pt x="698" y="0" on="0"/>
        <pt x="532" y="0" on="1"/>
        <pt x="168" y="0" on="1"/>
        <pt x="369" y="1437" on="1"/>
        <pt x="61" y="1437" on="1"/>
      </contour>
      <contour>
        <pt x="530" y="794" on="1"/>
        <pt x="450" y="794" on="1"/>
        <pt x="358" y="139" on="1"/>
        <pt x="493" y="139" on="1"/>
        <pt x="673" y="139" on="0"/>
        <pt x="899" y="174" on="0"/>
        <pt x="1030" y="251" on="0"/>
        <pt x="1083" y="375" on="0"/>
        <pt x="1089" y="464" on="1"/>
        <pt x="1092" y="504" on="0"/>
        <pt x="1092" y="552" on="1"/>
        <pt x="1092" y="610" on="0"/>
        <pt x="1046" y="691" on="0"/>
        <pt x="970" y="744" on="0"/>
        <pt x="871" y="775" on="0"/>
        <pt x="765" y="790" on="0"/>
        <pt x="658" y="794" on="0"/>
        <pt x="613" y="794" on="1"/>
      </contour>
    </TTGlyph>
    <TTGlyph name="afii10045" xMin="137" yMin="0" xMax="1793" yMax="1614">
      <contour>
        <pt x="1567" y="0" on="1"/>
        <pt x="1396" y="0" on="1"/>
        <pt x="1617" y="1577" on="1"/>
        <pt x="1793" y="1614" on="1"/>
      </contour>
      <contour>
        <pt x="499" y="794" on="1"/>
        <pt x="419" y="794" on="1"/>
        <pt x="327" y="139" on="1"/>
        <pt x="462" y="139" on="1"/>
        <pt x="596" y="139" on="0"/>
        <pt x="789" y="159" on="0"/>
        <pt x="922" y="201" on="0"/>
        <pt x="1003" y="266" on="0"/>
        <pt x="1047" y="358" on="0"/>
        <pt x="1061" y="477" on="0"/>
        <pt x="1061" y="551" on="1"/>
        <pt x="1061" y="609" on="0"/>
        <pt x="1015" y="690" on="0"/>
        <pt x="940" y="744" on="0"/>
        <pt x="841" y="775" on="0"/>
        <pt x="734" y="790" on="0"/>
        <pt x="628" y="794" on="0"/>
        <pt x="582" y="794" on="1"/>
      </contour>
      <contour>
        <pt x="1219" y="561" on="1"/>
        <pt x="1219" y="441" on="0"/>
        <pt x="1197" y="353" on="1"/>
        <pt x="1170" y="248" on="0"/>
        <pt x="1055" y="111" on="0"/>
        <pt x="881" y="32" on="0"/>
        <pt x="647" y="0" on="0"/>
        <pt x="501" y="0" on="1"/>
        <pt x="137" y="0" on="1"/>
        <pt x="359" y="1578" on="1"/>
        <pt x="529" y="1578" on="1"/>
        <pt x="439" y="935" on="1"/>
        <pt x="601" y="935" on="1"/>
        <pt x="772" y="935" on="0"/>
        <pt x="1007" y="885" on="0"/>
        <pt x="1154" y="789" on="0"/>
        <pt x="1219" y="647" on="0"/>
        <pt x="1219" y="555" on="1"/>
        <pt x="1218" y="557" on="0"/>
        <pt x="1219" y="559" on="0"/>
      </contour>
    </TTGlyph>
    <TTGlyph name="afii10046" xMin="218" yMin="0" xMax="1300" yMax="1578">
      <contour>
        <pt x="580" y="794" on="1"/>
        <pt x="500" y="794" on="1"/>
        <pt x="408" y="139" on="1"/>
        <pt x="543" y="139" on="1"/>
        <pt x="677" y="139" on="0"/>
        <pt x="870" y="159" on="0"/>
        <pt x="1003" y="201" on="0"/>
        <pt x="1084" y="266" on="0"/>
        <pt x="1128" y="358" on="0"/>
        <pt x="1142" y="477" on="0"/>
        <pt x="1142" y="551" on="1"/>
        <pt x="1142" y="609" on="0"/>
        <pt x="1096" y="690" on="0"/>
        <pt x="1021" y="744" on="0"/>
        <pt x="922" y="775" on="0"/>
        <pt x="815" y="790" on="0"/>
        <pt x="709" y="794" on="0"/>
        <pt x="663" y="794" on="1"/>
      </contour>
      <contour>
        <pt x="1300" y="561" on="1"/>
        <pt x="1300" y="441" on="0"/>
        <pt x="1278" y="353" on="1"/>
        <pt x="1251" y="248" on="0"/>
        <pt x="1136" y="111" on="0"/>
        <pt x="962" y="32" on="0"/>
        <pt x="728" y="0" on="0"/>
        <pt x="582" y="0" on="1"/>
        <pt x="218" y="0" on="1"/>
        <pt x="440" y="1578" on="1"/>
        <pt x="610" y="1578" on="1"/>
        <pt x="520" y="935" on="1"/>
        <pt x="683" y="935" on="1"/>
        <pt x="853" y="935" on="0"/>
        <pt x="1089" y="885" on="0"/>
        <pt x="1235" y="789" on="0"/>
        <pt x="1300" y="647" on="0"/>
        <pt x="1300" y="555" on="1"/>
      </contour>
    </TTGlyph>
    <TTGlyph name="afii10047" xMin="134" yMin="-41" xMax="1292" yMax="1609">
      <contour>
        <pt x="1292" y="1046" on="1"/>
        <pt x="1292" y="971" on="0"/>
        <pt x="1281" y="827" on="0"/>
        <pt x="1269" y="757" on="1"/>
        <pt x="1242" y="591" on="0"/>
        <pt x="1121" y="300" on="0"/>
        <pt x="935" y="84" on="0"/>
        <pt x="684" y="-41" on="0"/>
        <pt x="527" y="-41" on="1"/>
        <pt x="463" y="-41" on="0"/>
        <pt x="353" y="-22" on="0"/>
        <pt x="256" y="11" on="0"/>
        <pt x="172" y="54" on="0"/>
        <pt x="134" y="78" on="1"/>
        <pt x="206" y="211" on="1"/>
        <pt x="300" y="154" on="0"/>
        <pt x="474" y="104" on="0"/>
        <pt x="570" y="104" on="1"/>
        <pt x="645" y="104" on="0"/>
        <pt x="771" y="157" on="0"/>
        <pt x="875" y="248" on="0"/>
        <pt x="958" y="368" on="0"/>
        <pt x="1022" y="503" on="0"/>
        <pt x="1067" y="644" on="0"/>
        <pt x="1081" y="711" on="1"/>
        <pt x="545" y="711" on="1"/>
        <pt x="565" y="840" on="1"/>
        <pt x="1101" y="840" on="1"/>
        <pt x="1108" y="894" on="0"/>
        <pt x="1114" y="985" on="0"/>
        <pt x="1115" y="1028" on="1"/>
        <pt x="1115" y="1146" on="0"/>
        <pt x="1068" y="1312" on="0"/>
        <pt x="971" y="1416" on="0"/>
        <pt x="823" y="1463" on="0"/>
        <pt x="723" y="1463" on="1"/>
        <pt x="691" y="1463" on="0"/>
        <pt x="612" y="1453" on="0"/>
        <pt x="554" y="1437" on="1"/>
        <pt x="524" y="1429" on="0"/>
        <pt x="453" y="1406" on="0"/>
        <pt x="408" y="1392" on="1"/>
        <pt x="392" y="1531" on="1"/>
        <pt x="423" y="1542" on="0"/>
        <pt x="479" y="1561" on="0"/>
        <pt x="504" y="1569" on="1"/>
        <pt x="541" y="1580" on="0"/>
        <pt x="605" y="1596" on="0"/>
        <pt x="668" y="1605" on="0"/>
        <pt x="733" y="1609" on="0"/>
        <pt x="772" y="1609" on="1"/>
        <pt x="1029" y="1609" on="0"/>
        <pt x="1292" y="1321" on="0"/>
        <pt x="1291" y="1033" on="1"/>
        <pt x="1291" y="1036" on="0"/>
        <pt x="1291" y="1043" on="0"/>
      </contour>
    </TTGlyph>
    <TTGlyph name="afii10048" xMin="146" yMin="-41" xMax="1861" yMax="1609">
      <contour>
        <pt x="1146" y="104" on="1"/>
        <pt x="1236" y="104" on="0"/>
        <pt x="1387" y="175" on="0"/>
        <pt x="1506" y="302" on="0"/>
        <pt x="1595" y="474" on="0"/>
        <pt x="1655" y="675" on="0"/>
        <pt x="1684" y="898" on="0"/>
        <pt x="1684" y="1011" on="1"/>
        <pt x="1684" y="1105" on="0"/>
        <pt x="1651" y="1270" on="0"/>
        <pt x="1570" y="1393" on="0"/>
        <pt x="1433" y="1463" on="0"/>
        <pt x="1330" y="1463" on="1"/>
        <pt x="1234" y="1463" on="0"/>
        <pt x="1081" y="1385" on="0"/>
        <pt x="963" y="1251" on="0"/>
        <pt x="878" y="1071" on="0"/>
        <pt x="823" y="866" on="0"/>
        <pt x="797" y="647" on="0"/>
        <pt x="797" y="542" on="1"/>
        <pt x="796" y="321" on="0"/>
        <pt x="972" y="104" on="0"/>
      </contour>
      <contour>
        <pt x="650" y="855" on="1"/>
        <pt x="674" y="1030" on="0"/>
        <pt x="792" y="1310" on="0"/>
        <pt x="971" y="1505" on="0"/>
        <pt x="1204" y="1609" on="0"/>
        <pt x="1342" y="1609" on="1"/>
        <pt x="1486" y="1609" on="0"/>
        <pt x="1685" y="1522" on="0"/>
        <pt x="1807" y="1364" on="0"/>
        <pt x="1861" y="1141" on="0"/>
        <pt x="1861" y="1006" on="1"/>
        <pt x="1861" y="778" on="0"/>
        <pt x="1754" y="394" on="0"/>
        <pt x="1559" y="115" on="0"/>
        <pt x="1287" y="-41" on="0"/>
        <pt x="1122" y="-41" on="1"/>
        <pt x="1006" y="-41" on="0"/>
        <pt x="818" y="31" on="0"/>
        <pt x="686" y="175" on="0"/>
        <pt x="615" y="392" on="0"/>
        <pt x="615" y="537" on="1"/>
        <pt x="615" y="586" on="0"/>
        <pt x="623" y="687" on="0"/>
        <pt x="631" y="745" on="1"/>
        <pt x="422" y="745" on="1"/>
        <pt x="317" y="0" on="1"/>
        <pt x="146" y="0" on="1"/>
        <pt x="368" y="1578" on="1"/>
        <pt x="538" y="1578" on="1"/>
        <pt x="463" y="1043" on="1"/>
        <pt x="427" y="855" on="1"/>
      </contour>
    </TTGlyph>
    <TTGlyph name="afii10049" xMin="111" yMin="0" xMax="1346" yMax="1578">
      <contour>
        <pt x="611" y="797" on="1"/>
        <pt x="530" y="797" on="0"/>
        <pt x="463" y="820" on="1"/>
        <pt x="373" y="852" on="0"/>
        <pt x="277" y="1000" on="0"/>
        <pt x="277" y="1103" on="1"/>
        <pt x="277" y="1181" on="0"/>
        <pt x="311" y="1304" on="0"/>
        <pt x="372" y="1400" on="0"/>
        <pt x="456" y="1470" on="0"/>
        <pt x="507" y="1495" on="1"/>
        <pt x="559" y="1520" on="0"/>
        <pt x="677" y="1552" on="0"/>
        <pt x="804" y="1571" on="0"/>
        <pt x="935" y="1578" on="0"/>
        <pt x="1001" y="1578" on="1"/>
        <pt x="1346" y="1578" on="1"/>
        <pt x="1124" y="0" on="1"/>
        <pt x="954" y="0" on="1"/>
        <pt x="1058" y="735" on="1"/>
        <pt x="888" y="735" on="1"/>
        <pt x="757" y="735" on="0"/>
        <pt x="563" y="706" on="0"/>
        <pt x="428" y="633" on="0"/>
        <pt x="351" y="508" on="0"/>
        <pt x="338" y="412" on="1"/>
        <pt x="281" y="0" on="1"/>
        <pt x="111" y="0" on="1"/>
        <pt x="167" y="398" on="1"/>
        <pt x="181" y="495" on="0"/>
        <pt x="258" y="636" on="0"/>
        <pt x="373" y="732" on="0"/>
        <pt x="524" y="787" on="0"/>
      </contour>
      <contour>
        <pt x="1007" y="859" on="1"/>
        <pt x="1075" y="859" on="1"/>
        <pt x="1156" y="1439" on="1"/>
        <pt x="983" y="1439" on="1"/>
        <pt x="853" y="1439" on="0"/>
        <pt x="655" y="1414" on="0"/>
        <pt x="517" y="1353" on="0"/>
        <pt x="438" y="1247" on="0"/>
        <pt x="427" y="1166" on="1"/>
        <pt x="425" y="1150" on="0"/>
        <pt x="423" y="1116" on="0"/>
        <pt x="423" y="1096" on="1"/>
        <pt x="423" y="1040" on="0"/>
        <pt x="466" y="961" on="0"/>
        <pt x="536" y="908" on="0"/>
        <pt x="628" y="878" on="0"/>
        <pt x="727" y="863" on="0"/>
        <pt x="824" y="859" on="0"/>
        <pt x="866" y="859" on="1"/>
      </contour>
    </TTGlyph>
    <TTGlyph name="afii10051" xMin="189" yMin="-231" xMax="1435" yMax="1577">
      <contour>
        <pt x="749" y="-91" on="1"/>
        <pt x="791" y="-90" on="0"/>
        <pt x="864" y="-85" on="0"/>
        <pt x="897" y="-79" on="1"/>
        <pt x="894" y="-79" on="1"/>
        <pt x="941" y="-70" on="0"/>
        <pt x="1021" y="-37" on="0"/>
        <pt x="1086" y="15" on="0"/>
        <pt x="1138" y="89" on="0"/>
        <pt x="1157" y="139" on="1"/>
        <pt x="1166" y="162" on="0"/>
        <pt x="1179" y="202" on="0"/>
        <pt x="1191" y="256" on="0"/>
        <pt x="1203" y="336" on="0"/>
        <pt x="1220" y="463" on="0"/>
        <pt x="1242" y="647" on="0"/>
        <pt x="1258" y="778" on="1"/>
        <pt x="1261" y="807" on="0"/>
        <pt x="1265" y="844" on="0"/>
        <pt x="1265" y="849" on="1"/>
        <pt x="1265" y="919" on="0"/>
        <pt x="1245" y="968" on="1"/>
        <pt x="1225" y="1013" on="0"/>
        <pt x="1149" y="1050" on="0"/>
        <pt x="1092" y="1050" on="1"/>
        <pt x="1033" y="1050" on="0"/>
        <pt x="915" y="1016" on="0"/>
        <pt x="812" y="967" on="0"/>
        <pt x="730" y="909" on="0"/>
        <pt x="706" y="885" on="1"/>
        <pt x="583" y="0" on="1"/>
        <pt x="412" y="0" on="1"/>
        <pt x="613" y="1440" on="1"/>
        <pt x="189" y="1440" on="1"/>
        <pt x="209" y="1577" on="1"/>
        <pt x="1231" y="1577" on="1"/>
        <pt x="1212" y="1440" on="1"/>
        <pt x="783" y="1440" on="1"/>
        <pt x="719" y="981" on="1"/>
        <pt x="783" y="1045" on="0"/>
        <pt x="886" y="1125" on="0"/>
        <pt x="979" y="1171" on="0"/>
        <pt x="1067" y="1188" on="0"/>
        <pt x="1116" y="1188" on="1"/>
        <pt x="1435" y="1188" on="0"/>
        <pt x="1435" y="859" on="1"/>
        <pt x="1435" y="854" on="0"/>
        <pt x="1432" y="815" on="0"/>
        <pt x="1428" y="785" on="1"/>
        <pt x="1423" y="745" on="0"/>
        <pt x="1410" y="637" on="0"/>
        <pt x="1395" y="522" on="0"/>
        <pt x="1382" y="411" on="0"/>
        <pt x="1371" y="325" on="0"/>
        <pt x="1364" y="274" on="0"/>
        <pt x="1364" y="276" on="1"/>
        <pt x="1335" y="65" on="0"/>
        <pt x="1092" y="-184" on="0"/>
        <pt x="878" y="-218" on="1"/>
        <pt x="844" y="-223" on="0"/>
        <pt x="771" y="-230" on="0"/>
        <pt x="731" y="-231" on="1"/>
      </contour>
    </TTGlyph>
    <TTGlyph name="afii10052" xMin="146" yMin="0" xMax="1323" yMax="2302">
      <contour>
        <pt x="579" y="1673" on="1"/>
        <pt x="764" y="2295" on="1"/>
        <pt x="1002" y="2302" on="1"/>
        <pt x="710" y="1677" on="1"/>
      </contour>
      <contour>
        <pt x="1323" y="1577" on="1"/>
        <pt x="1304" y="1438" on="1"/>
        <pt x="518" y="1438" on="1"/>
        <pt x="317" y="0" on="1"/>
        <pt x="146" y="0" on="1"/>
        <pt x="368" y="1577" on="1"/>
      </contour>
    </TTGlyph>
    <TTGlyph name="afii10053" xMin="217" yMin="-41" xMax="1359" yMax="1609">
      <contour>
        <pt x="218" y="515" on="1"/>
        <pt x="217" y="657" on="0"/>
        <pt x="260" y="929" on="0"/>
        <pt x="348" y="1172" on="0"/>
        <pt x="480" y="1377" on="0"/>
        <pt x="655" y="1526" on="0"/>
        <pt x="873" y="1609" on="0"/>
        <pt x="1003" y="1609" on="1"/>
        <pt x="1040" y="1609" on="0"/>
        <pt x="1147" y="1600" on="0"/>
        <pt x="1214" y="1582" on="1"/>
        <pt x="1249" y="1573" on="0"/>
        <pt x="1321" y="1548" on="0"/>
        <pt x="1359" y="1531" on="1"/>
        <pt x="1298" y="1392" on="1"/>
        <pt x="1250" y="1415" on="0"/>
        <pt x="1161" y="1443" on="0"/>
        <pt x="1080" y="1458" on="0"/>
        <pt x="1007" y="1463" on="0"/>
        <pt x="976" y="1463" on="1"/>
        <pt x="929" y="1463" on="0"/>
        <pt x="884" y="1454" on="1"/>
        <pt x="806" y="1439" on="0"/>
        <pt x="665" y="1355" on="0"/>
        <pt x="547" y="1206" on="0"/>
        <pt x="457" y="986" on="0"/>
        <pt x="430" y="835" on="1"/>
        <pt x="1083" y="835" on="1"/>
        <pt x="1065" y="727" on="1"/>
        <pt x="413" y="727" on="1"/>
        <pt x="407" y="675" on="0"/>
        <pt x="400" y="586" on="0"/>
        <pt x="400" y="543" on="1"/>
        <pt x="400" y="450" on="0"/>
        <pt x="434" y="289" on="0"/>
        <pt x="512" y="171" on="0"/>
        <pt x="637" y="104" on="0"/>
        <pt x="728" y="104" on="1"/>
        <pt x="828" y="104" on="0"/>
        <pt x="1025" y="160" on="0"/>
        <pt x="1128" y="211" on="1"/>
        <pt x="1157" y="78" on="1"/>
        <pt x="1113" y="58" on="0"/>
        <pt x="1018" y="15" on="0"/>
        <pt x="912" y="-19" on="0"/>
        <pt x="793" y="-41" on="0"/>
        <pt x="726" y="-41" on="1"/>
        <pt x="598" y="-41" on="0"/>
        <pt x="408" y="36" on="0"/>
        <pt x="282" y="181" on="0"/>
        <pt x="219" y="393" on="0"/>
        <pt x="219" y="528" on="1"/>
        <pt x="219" y="518" on="0"/>
      </contour>
    </TTGlyph>
    <TTGlyph name="afii10054" xMin="173" yMin="-41" xMax="1251" yMax="1609">
      <component glyphName="S" x="0" y="0" flags="0x4"/>
    </TTGlyph>
    <TTGlyph name="afii10055" xMin="189" yMin="0" xMax="954" yMax="1578">
      <component glyphName="I" x="28" y="0" flags="0x4"/>
    </TTGlyph>
    <TTGlyph name="afii10056" xMin="161" yMin="0" xMax="1040" yMax="1986">
      <component glyphName="I" x="0" y="0" flags="0x204"/>
      <component glyphName="dieresis" x="248" y="1614" flags="0x4"/>
    </TTGlyph>
    <TTGlyph name="afii10057" xMin="58" yMin="-90" xMax="753" yMax="1578">
      <component glyphName="J" x="0" y="0" flags="0x204"/>
    </TTGlyph>
    <TTGlyph name="afii10058" xMin="34" yMin="-21" xMax="2439" yMax="1577">
      <contour>
        <pt x="1533" y="0" on="1"/>
        <pt x="1367" y="0" on="1"/>
        <pt x="1568" y="1439" on="1"/>
        <pt x="858" y="1439" on="1"/>
        <pt x="727" y="773" on="1"/>
        <pt x="698" y="625" on="0"/>
        <pt x="646" y="393" on="0"/>
        <pt x="579" y="216" on="0"/>
        <pt x="489" y="92" on="0"/>
        <pt x="354" y="15" on="0"/>
        <pt x="165" y="-21" on="0"/>
        <pt x="34" y="-21" on="1"/>
        <pt x="55" y="112" on="1"/>
        <pt x="170" y="118" on="0"/>
        <pt x="324" y="164" on="0"/>
        <pt x="424" y="251" on="0"/>
        <pt x="480" y="381" on="0"/>
        <pt x="497" y="471" on="1"/>
        <pt x="569" y="843" on="1"/>
        <pt x="711" y="1577" on="1"/>
        <pt x="1758" y="1577" on="1"/>
        <pt x="1668" y="935" on="1"/>
        <pt x="1821" y="935" on="1"/>
        <pt x="1993" y="935" on="0"/>
        <pt x="2229" y="884" on="0"/>
        <pt x="2375" y="786" on="0"/>
        <pt x="2439" y="645" on="0"/>
        <pt x="2439" y="554" on="1"/>
        <pt x="2438" y="400" on="0"/>
        <pt x="2346" y="190" on="0"/>
        <pt x="2255" y="124" on="1"/>
        <pt x="2164" y="58" on="0"/>
        <pt x="1900" y="0" on="0"/>
        <pt x="1722" y="0" on="1"/>
      </contour>
      <contour>
        <pt x="2283" y="551" on="1"/>
        <pt x="2282" y="574" on="0"/>
        <pt x="2274" y="615" on="0"/>
        <pt x="2266" y="634" on="1"/>
        <pt x="2242" y="688" on="0"/>
        <pt x="2137" y="751" on="0"/>
        <pt x="2006" y="784" on="0"/>
        <pt x="1863" y="794" on="0"/>
        <pt x="1802" y="794" on="1"/>
        <pt x="1649" y="794" on="1"/>
        <pt x="1557" y="139" on="1"/>
        <pt x="1753" y="139" on="1"/>
        <pt x="1918" y="139" on="0"/>
        <pt x="2126" y="193" on="0"/>
        <pt x="2243" y="298" on="0"/>
        <pt x="2284" y="452" on="0"/>
      </contour>
    </TTGlyph>
    <TTGlyph name="afii10059" xMin="146" yMin="0" xMax="2174" yMax="1577">
      <contour>
        <pt x="1266" y="0" on="1"/>
        <pt x="1101" y="0" on="1"/>
        <pt x="1208" y="766" on="1"/>
        <pt x="424" y="766" on="1"/>
        <pt x="317" y="0" on="1"/>
        <pt x="146" y="0" on="1"/>
        <pt x="368" y="1577" on="1"/>
        <pt x="538" y="1577" on="1"/>
        <pt x="439" y="875" on="1"/>
        <pt x="1223" y="875" on="1"/>
        <pt x="1323" y="1577" on="1"/>
        <pt x="1493" y="1577" on="1"/>
        <pt x="1402" y="935" on="1"/>
        <pt x="1555" y="935" on="1"/>
        <pt x="1691" y="935" on="0"/>
        <pt x="1895" y="903" on="0"/>
        <pt x="2039" y="841" on="0"/>
        <pt x="2129" y="752" on="0"/>
        <pt x="2151" y="695" on="1"/>
        <pt x="2173" y="636" on="0"/>
        <pt x="2173" y="562" on="1"/>
        <pt x="2174" y="407" on="0"/>
        <pt x="2083" y="193" on="0"/>
        <pt x="1902" y="60" on="0"/>
        <pt x="1633" y="0" on="0"/>
        <pt x="1456" y="0" on="1"/>
      </contour>
      <contour>
        <pt x="2016" y="561" on="1"/>
        <pt x="2015" y="586" on="0"/>
        <pt x="2005" y="629" on="0"/>
        <pt x="1997" y="646" on="1"/>
        <pt x="1972" y="699" on="0"/>
        <pt x="1866" y="759" on="0"/>
        <pt x="1735" y="788" on="0"/>
        <pt x="1595" y="794" on="0"/>
        <pt x="1536" y="794" on="1"/>
        <pt x="1383" y="794" on="1"/>
        <pt x="1291" y="139" on="1"/>
        <pt x="1487" y="139" on="1"/>
        <pt x="1607" y="139" on="0"/>
        <pt x="1779" y="163" on="0"/>
        <pt x="1897" y="212" on="0"/>
        <pt x="1967" y="283" on="0"/>
        <pt x="2004" y="377" on="0"/>
        <pt x="2016" y="493" on="0"/>
      </contour>
    </TTGlyph>
    <TTGlyph name="afii10060" xMin="189" yMin="0" xMax="1402" yMax="1577">
      <contour>
        <pt x="585" y="0" on="1"/>
        <pt x="415" y="0" on="1"/>
        <pt x="615" y="1439" on="1"/>
        <pt x="189" y="1439" on="1"/>
        <pt x="209" y="1577" on="1"/>
        <pt x="1231" y="1577" on="1"/>
        <pt x="1212" y="1439" on="1"/>
        <pt x="785" y="1439" on="1"/>
        <pt x="715" y="935" on="1"/>
        <pt x="1082" y="935" on="1"/>
        <pt x="1156" y="935" on="0"/>
        <pt x="1275" y="896" on="0"/>
        <pt x="1358" y="817" on="0"/>
        <pt x="1402" y="695" on="0"/>
        <pt x="1402" y="612" on="1"/>
        <pt x="1402" y="601" on="0"/>
        <pt x="1400" y="568" on="0"/>
        <pt x="1396" y="532" on="1"/>
        <pt x="1393" y="506" on="0"/>
        <pt x="1383" y="425" on="0"/>
        <pt x="1367" y="299" on="0"/>
        <pt x="1343" y="121" on="0"/>
        <pt x="1326" y="0" on="1"/>
        <pt x="1155" y="0" on="1"/>
        <pt x="1171" y="121" on="0"/>
        <pt x="1195" y="298" on="0"/>
        <pt x="1212" y="424" on="0"/>
        <pt x="1223" y="505" on="0"/>
        <pt x="1226" y="529" on="1"/>
        <pt x="1231" y="566" on="0"/>
        <pt x="1232" y="597" on="0"/>
        <pt x="1232" y="608" on="1"/>
        <pt x="1232" y="662" on="0"/>
        <pt x="1204" y="734" on="0"/>
        <pt x="1155" y="779" on="0"/>
        <pt x="1089" y="798" on="0"/>
        <pt x="1052" y="798" on="1"/>
        <pt x="697" y="798" on="1"/>
      </contour>
    </TTGlyph>
    <TTGlyph name="afii10061" xMin="146" yMin="0" xMax="1378" yMax="2352">
      <component glyphName="acute" x="600" y="1614" flags="0x4"/>
      <component glyphName="afii10028" x="0" y="0" flags="0x4"/>
    </TTGlyph>
    <TTGlyph name="afii10062" xMin="247" yMin="-114" xMax="1291" yMax="1917">
      <contour>
        <pt x="1095" y="1917" on="1"/>
        <pt x="1092" y="1892" on="0"/>
        <pt x="1086" y="1868" on="1"/>
        <pt x="1062" y="1784" on="0"/>
        <pt x="935" y="1682" on="0"/>
        <pt x="823" y="1682" on="1"/>
        <pt x="715" y="1682" on="0"/>
        <pt x="619" y="1781" on="0"/>
        <pt x="619" y="1866" on="1"/>
        <pt x="619" y="1877" on="0"/>
        <pt x="621" y="1903" on="0"/>
        <pt x="623" y="1917" on="1"/>
        <pt x="727" y="1917" on="1"/>
        <pt x="726" y="1910" on="0"/>
        <pt x="725" y="1898" on="0"/>
        <pt x="725" y="1893" on="1"/>
        <pt x="725" y="1844" on="0"/>
        <pt x="789" y="1791" on="0"/>
        <pt x="841" y="1791" on="1"/>
        <pt x="901" y="1791" on="0"/>
        <pt x="983" y="1857" on="0"/>
        <pt x="992" y="1917" on="1"/>
      </contour>
      <contour>
        <pt x="674" y="598" on="1"/>
        <pt x="1119" y="1577" on="1"/>
        <pt x="1291" y="1577" on="1"/>
        <pt x="713" y="430" on="1"/>
        <pt x="675" y="193" on="1"/>
        <pt x="661" y="109" on="0"/>
        <pt x="597" y="-8" on="0"/>
        <pt x="497" y="-81" on="0"/>
        <pt x="360" y="-114" on="0"/>
        <pt x="273" y="-114" on="1"/>
        <pt x="247" y="4" on="1"/>
        <pt x="308" y="6" on="0"/>
        <pt x="408" y="13" on="0"/>
        <pt x="483" y="49" on="0"/>
        <pt x="532" y="127" on="0"/>
        <pt x="543" y="200" on="1"/>
        <pt x="580" y="428" on="1"/>
        <pt x="347" y="1577" on="1"/>
        <pt x="507" y="1577" on="1"/>
      </contour>
    </TTGlyph>
    <TTGlyph name="afii10065" xMin="176" yMin="-21" xMax="1134" yMax="1168">
      <contour>
        <pt x="1134" y="1066" on="1"/>
        <pt x="979" y="0" on="1"/>
        <pt x="854" y="0" on="1"/>
        <pt x="864" y="197" on="1"/>
        <pt x="804" y="92" on="0"/>
        <pt x="626" y="-21" on="0"/>
        <pt x="523" y="-21" on="1"/>
        <pt x="428" y="-21" on="0"/>
        <pt x="296" y="46" on="0"/>
        <pt x="214" y="160" on="0"/>
        <pt x="176" y="313" on="0"/>
        <pt x="176" y="400" on="1"/>
        <pt x="176" y="477" on="0"/>
        <pt x="217" y="652" on="0"/>
        <pt x="293" y="822" on="0"/>
        <pt x="402" y="978" on="0"/>
        <pt x="539" y="1097" on="0"/>
        <pt x="702" y="1168" on="0"/>
        <pt x="794" y="1168" on="1"/>
        <pt x="826" y="1168" on="0"/>
        <pt x="905" y="1153" on="0"/>
        <pt x="984" y="1131" on="0"/>
        <pt x="1056" y="1105" on="0"/>
        <pt x="1080" y="1093" on="1"/>
      </contour>
      <contour>
        <pt x="330" y="404" on="1"/>
        <pt x="330" y="324" on="0"/>
        <pt x="358" y="210" on="0"/>
        <pt x="415" y="138" on="0"/>
        <pt x="501" y="104" on="0"/>
        <pt x="560" y="104" on="1"/>
        <pt x="611" y="104" on="0"/>
        <pt x="706" y="146" on="0"/>
        <pt x="786" y="208" on="0"/>
        <pt x="847" y="277" on="0"/>
        <pt x="864" y="304" on="1"/>
        <pt x="969" y="1002" on="1"/>
        <pt x="970" y="1003" on="0"/>
        <pt x="939" y="1016" on="0"/>
        <pt x="888" y="1029" on="0"/>
        <pt x="824" y="1040" on="0"/>
        <pt x="793" y="1040" on="1"/>
        <pt x="736" y="1040" on="0"/>
        <pt x="624" y="992" on="0"/>
        <pt x="521" y="907" on="0"/>
        <pt x="432" y="789" on="0"/>
        <pt x="367" y="648" on="0"/>
        <pt x="330" y="488" on="0"/>
      </contour>
    </TTGlyph>
    <TTGlyph name="afii10066" xMin="172" yMin="-21" xMax="1089" yMax="1568">
      <contour>
        <pt x="527" y="-21" on="1"/>
        <pt x="351" y="-21" on="0"/>
        <pt x="172" y="211" on="0"/>
        <pt x="172" y="426" on="1"/>
        <pt x="172" y="544" on="0"/>
        <pt x="202" y="794" on="0"/>
        <pt x="264" y="1031" on="0"/>
        <pt x="359" y="1241" on="0"/>
        <pt x="487" y="1399" on="0"/>
        <pt x="651" y="1491" on="0"/>
        <pt x="751" y="1491" on="1"/>
        <pt x="777" y="1491" on="0"/>
        <pt x="830" y="1492" on="0"/>
        <pt x="856" y="1492" on="1"/>
        <pt x="888" y="1492" on="0"/>
        <pt x="927" y="1495" on="0"/>
        <pt x="949" y="1510" on="0"/>
        <pt x="956" y="1541" on="0"/>
        <pt x="956" y="1568" on="1"/>
        <pt x="1089" y="1567" on="1"/>
        <pt x="1089" y="1495" on="0"/>
        <pt x="1053" y="1413" on="0"/>
        <pt x="972" y="1371" on="0"/>
        <pt x="841" y="1361" on="0"/>
        <pt x="747" y="1361" on="1"/>
        <pt x="680" y="1361" on="0"/>
        <pt x="565" y="1286" on="0"/>
        <pt x="470" y="1163" on="0"/>
        <pt x="399" y="1003" on="0"/>
        <pt x="376" y="918" on="1"/>
        <pt x="421" y="963" on="0"/>
        <pt x="508" y="1027" on="0"/>
        <pt x="595" y="1068" on="0"/>
        <pt x="683" y="1086" on="0"/>
        <pt x="729" y="1086" on="1"/>
        <pt x="811" y="1086" on="0"/>
        <pt x="942" y="1041" on="0"/>
        <pt x="1033" y="950" on="0"/>
        <pt x="1082" y="813" on="0"/>
        <pt x="1082" y="721" on="1"/>
        <pt x="1082" y="634" on="0"/>
        <pt x="1051" y="457" on="0"/>
        <pt x="990" y="292" on="0"/>
        <pt x="897" y="148" on="0"/>
        <pt x="774" y="41" on="0"/>
        <pt x="620" y="-21" on="0"/>
      </contour>
      <contour>
        <pt x="707" y="963" on="1"/>
        <pt x="630" y="966" on="0"/>
        <pt x="514" y="920" on="0"/>
        <pt x="429" y="836" on="0"/>
        <pt x="372" y="724" on="0"/>
        <pt x="337" y="599" on="0"/>
        <pt x="323" y="467" on="0"/>
        <pt x="323" y="407" on="1"/>
        <pt x="323" y="258" on="0"/>
        <pt x="432" y="106" on="0"/>
        <pt x="555" y="106" on="1"/>
        <pt x="628" y="106" on="0"/>
        <pt x="740" y="165" on="0"/>
        <pt x="823" y="262" on="0"/>
        <pt x="879" y="387" on="0"/>
        <pt x="913" y="519" on="0"/>
        <pt x="928" y="649" on="0"/>
        <pt x="928" y="702" on="1"/>
        <pt x="928" y="802" on="0"/>
        <pt x="868" y="917" on="0"/>
        <pt x="802" y="941" on="1"/>
        <pt x="763" y="957" on="0"/>
      </contour>
    </TTGlyph>
    <TTGlyph name="afii10067" xMin="153" yMin="-22" xMax="1098" yMax="1169">
      <contour>
        <pt x="722" y="1169" on="1"/>
        <pt x="804" y="1169" on="0"/>
        <pt x="942" y="1130" on="0"/>
        <pt x="1042" y="1059" on="0"/>
        <pt x="1098" y="963" on="0"/>
        <pt x="1098" y="906" on="1"/>
        <pt x="1098" y="840" on="0"/>
        <pt x="1051" y="739" on="0"/>
        <pt x="964" y="666" on="0"/>
        <pt x="842" y="621" on="0"/>
        <pt x="767" y="612" on="1"/>
        <pt x="822" y="608" on="0"/>
        <pt x="922" y="570" on="0"/>
        <pt x="997" y="506" on="0"/>
        <pt x="1041" y="419" on="0"/>
        <pt x="1041" y="365" on="1"/>
        <pt x="1041" y="275" on="0"/>
        <pt x="970" y="132" on="0"/>
        <pt x="846" y="32" on="0"/>
        <pt x="677" y="-22" on="0"/>
        <pt x="579" y="-22" on="1"/>
        <pt x="471" y="-22" on="0"/>
        <pt x="311" y="39" on="0"/>
        <pt x="205" y="153" on="0"/>
        <pt x="153" y="317" on="0"/>
        <pt x="153" y="419" on="1"/>
        <pt x="153" y="583" on="0"/>
        <pt x="239" y="859" on="0"/>
        <pt x="391" y="1058" on="0"/>
        <pt x="600" y="1169" on="0"/>
      </contour>
      <contour>
        <pt x="352" y="669" on="1"/>
        <pt x="436" y="669" on="0"/>
        <pt x="592" y="672" on="0"/>
        <pt x="727" y="685" on="0"/>
        <pt x="837" y="712" on="0"/>
        <pt x="916" y="760" on="0"/>
        <pt x="959" y="833" on="0"/>
        <pt x="959" y="886" on="1"/>
        <pt x="959" y="958" on="0"/>
        <pt x="847" y="1041" on="0"/>
        <pt x="729" y="1041" on="1"/>
        <pt x="669" y="1041" on="0"/>
        <pt x="554" y="1001" on="0"/>
        <pt x="455" y="912" on="0"/>
        <pt x="376" y="771" on="0"/>
      </contour>
      <contour>
        <pt x="335" y="559" on="1"/>
        <pt x="328" y="523" on="0"/>
        <pt x="321" y="443" on="0"/>
        <pt x="321" y="407" on="1"/>
        <pt x="321" y="339" on="0"/>
        <pt x="349" y="228" on="0"/>
        <pt x="412" y="148" on="0"/>
        <pt x="512" y="104" on="0"/>
        <pt x="583" y="104" on="1"/>
        <pt x="656" y="104" on="0"/>
        <pt x="773" y="139" on="0"/>
        <pt x="855" y="206" on="0"/>
        <pt x="899" y="302" on="0"/>
        <pt x="899" y="363" on="1"/>
        <pt x="899" y="427" on="0"/>
        <pt x="832" y="506" on="0"/>
        <pt x="726" y="549" on="0"/>
        <pt x="596" y="565" on="0"/>
        <pt x="471" y="566" on="0"/>
        <pt x="365" y="559" on="0"/>
      </contour>
    </TTGlyph>
    <TTGlyph name="afii10068" xMin="154" yMin="-21" xMax="980" yMax="1168">
      <contour>
        <pt x="980" y="911" on="1"/>
        <pt x="980" y="833" on="0"/>
        <pt x="937" y="721" on="0"/>
        <pt x="858" y="639" on="0"/>
        <pt x="743" y="580" on="0"/>
        <pt x="671" y="556" on="1"/>
        <pt x="504" y="499" on="1"/>
        <pt x="446" y="479" on="0"/>
        <pt x="371" y="439" on="0"/>
        <pt x="328" y="390" on="0"/>
        <pt x="311" y="330" on="0"/>
        <pt x="311" y="290" on="1"/>
        <pt x="311" y="104" on="0"/>
        <pt x="547" y="104" on="1"/>
        <pt x="576" y="104" on="0"/>
        <pt x="659" y="127" on="0"/>
        <pt x="743" y="162" on="0"/>
        <pt x="818" y="202" on="0"/>
        <pt x="839" y="219" on="1"/>
        <pt x="885" y="105" on="1"/>
        <pt x="866" y="90" on="0"/>
        <pt x="793" y="47" on="0"/>
        <pt x="689" y="7" on="0"/>
        <pt x="559" y="-21" on="0"/>
        <pt x="483" y="-21" on="1"/>
        <pt x="418" y="-21" on="0"/>
        <pt x="299" y="17" on="0"/>
        <pt x="208" y="92" on="0"/>
        <pt x="154" y="206" on="0"/>
        <pt x="154" y="281" on="1"/>
        <pt x="154" y="363" on="0"/>
        <pt x="208" y="484" on="0"/>
        <pt x="303" y="575" on="0"/>
        <pt x="429" y="641" on="0"/>
        <pt x="501" y="667" on="1"/>
        <pt x="662" y="726" on="1"/>
        <pt x="713" y="744" on="0"/>
        <pt x="779" y="778" on="0"/>
        <pt x="816" y="817" on="0"/>
        <pt x="831" y="862" on="0"/>
        <pt x="831" y="891" on="1"/>
        <pt x="831" y="930" on="0"/>
        <pt x="802" y="986" on="0"/>
        <pt x="750" y="1023" on="0"/>
        <pt x="678" y="1041" on="0"/>
        <pt x="635" y="1041" on="1"/>
        <pt x="554" y="1041" on="0"/>
        <pt x="403" y="981" on="0"/>
        <pt x="325" y="921" on="1"/>
        <pt x="281" y="1042" on="1"/>
        <pt x="300" y="1059" on="0"/>
        <pt x="379" y="1103" on="0"/>
        <pt x="480" y="1142" on="0"/>
        <pt x="591" y="1168" on="0"/>
        <pt x="642" y="1168" on="1"/>
        <pt x="713" y="1168" on="0"/>
        <pt x="837" y="1136" on="0"/>
        <pt x="928" y="1071" on="0"/>
        <pt x="980" y="975" on="0"/>
      </contour>
    </TTGlyph>
    <TTGlyph name="afii10069" xMin="197" yMin="-21" xMax="1178" yMax="1559">
      <contour>
        <pt x="967" y="682" on="1"/>
        <pt x="967" y="749" on="0"/>
        <pt x="943" y="878" on="0"/>
        <pt x="915" y="929" on="1"/>
        <pt x="886" y="980" on="0"/>
        <pt x="796" y="1041" on="0"/>
        <pt x="729" y="1041" on="1"/>
        <pt x="674" y="1041" on="0"/>
        <pt x="575" y="991" on="0"/>
        <pt x="492" y="902" on="0"/>
        <pt x="425" y="780" on="0"/>
        <pt x="379" y="638" on="0"/>
        <pt x="354" y="480" on="0"/>
        <pt x="354" y="399" on="1"/>
        <pt x="354" y="246" on="0"/>
        <pt x="479" y="104" on="0"/>
        <pt x="598" y="104" on="1"/>
        <pt x="662" y="104" on="0"/>
        <pt x="767" y="158" on="0"/>
        <pt x="849" y="249" on="0"/>
        <pt x="909" y="367" on="0"/>
        <pt x="948" y="495" on="0"/>
        <pt x="967" y="625" on="0"/>
      </contour>
      <contour>
        <pt x="754" y="1168" on="1"/>
        <pt x="795" y="1168" on="0"/>
        <pt x="889" y="1139" on="0"/>
        <pt x="973" y="1066" on="0"/>
        <pt x="1035" y="944" on="0"/>
        <pt x="1044" y="851" on="1"/>
        <pt x="1044" y="860" on="0"/>
        <pt x="1046" y="917" on="0"/>
        <pt x="1047" y="981" on="0"/>
        <pt x="1049" y="1040" on="0"/>
        <pt x="1049" y="1052" on="1"/>
        <pt x="1049" y="1167" on="0"/>
        <pt x="995" y="1318" on="0"/>
        <pt x="889" y="1406" on="0"/>
        <pt x="733" y="1441" on="0"/>
        <pt x="632" y="1441" on="1"/>
        <pt x="595" y="1435" on="1"/>
        <pt x="578" y="1546" on="1"/>
        <pt x="576" y="1546" on="0"/>
        <pt x="594" y="1550" on="0"/>
        <pt x="627" y="1554" on="0"/>
        <pt x="672" y="1558" on="0"/>
        <pt x="699" y="1558" on="1"/>
        <pt x="812" y="1559" on="0"/>
        <pt x="991" y="1491" on="0"/>
        <pt x="1114" y="1365" on="0"/>
        <pt x="1178" y="1186" on="0"/>
        <pt x="1177" y="1076" on="1"/>
        <pt x="1177" y="960" on="0"/>
        <pt x="1165" y="836" on="1"/>
        <pt x="1154" y="733" on="0"/>
        <pt x="1114" y="525" on="0"/>
        <pt x="1049" y="335" on="0"/>
        <pt x="957" y="170" on="0"/>
        <pt x="831" y="49" on="0"/>
        <pt x="670" y="-21" on="0"/>
        <pt x="568" y="-21" on="1"/>
        <pt x="475" y="-21" on="0"/>
        <pt x="335" y="46" on="0"/>
        <pt x="243" y="167" on="0"/>
        <pt x="197" y="338" on="0"/>
        <pt x="197" y="442" on="1"/>
        <pt x="197" y="523" on="0"/>
        <pt x="230" y="694" on="0"/>
        <pt x="295" y="855" on="0"/>
        <pt x="390" y="998" on="0"/>
        <pt x="514" y="1106" on="0"/>
        <pt x="665" y="1168" on="0"/>
      </contour>
    </TTGlyph>
    <TTGlyph name="afii10070" xMin="176" yMin="-21" xMax="1094" yMax="1168">
      <contour>
        <pt x="376" y="673" on="1"/>
        <pt x="523" y="691" on="0"/>
        <pt x="722" y="721" on="0"/>
        <pt x="849" y="747" on="0"/>
        <pt x="916" y="768" on="0"/>
        <pt x="946" y="785" on="0"/>
        <pt x="949" y="799" on="0"/>
        <pt x="949" y="804" on="1"/>
        <pt x="950" y="919" on="0"/>
        <pt x="848" y="1040" on="0"/>
        <pt x="757" y="1040" on="1"/>
        <pt x="613" y="1040" on="0"/>
        <pt x="418" y="851" on="0"/>
      </contour>
      <contour>
        <pt x="358" y="560" on="1"/>
        <pt x="350" y="515" on="0"/>
        <pt x="344" y="439" on="0"/>
        <pt x="343" y="406" on="1"/>
        <pt x="343" y="251" on="0"/>
        <pt x="485" y="105" on="0"/>
        <pt x="613" y="105" on="1"/>
        <pt x="688" y="105" on="0"/>
        <pt x="834" y="175" on="0"/>
        <pt x="907" y="233" on="1"/>
        <pt x="941" y="101" on="1"/>
        <pt x="899" y="72" on="0"/>
        <pt x="806" y="26" on="0"/>
        <pt x="710" y="-5" on="0"/>
        <pt x="616" y="-21" on="0"/>
        <pt x="574" y="-21" on="1"/>
        <pt x="475" y="-21" on="0"/>
        <pt x="326" y="39" on="0"/>
        <pt x="226" y="150" on="0"/>
        <pt x="176" y="310" on="0"/>
        <pt x="176" y="411" on="1"/>
        <pt x="176" y="493" on="0"/>
        <pt x="208" y="669" on="0"/>
        <pt x="271" y="837" on="0"/>
        <pt x="365" y="988" on="0"/>
        <pt x="489" y="1101" on="0"/>
        <pt x="644" y="1168" on="0"/>
        <pt x="736" y="1168" on="1"/>
        <pt x="921" y="1168" on="0"/>
        <pt x="1094" y="981" on="0"/>
        <pt x="1094" y="782" on="1"/>
        <pt x="1094" y="761" on="0"/>
        <pt x="1086" y="722" on="0"/>
        <pt x="1045" y="683" on="0"/>
        <pt x="955" y="646" on="0"/>
        <pt x="792" y="610" on="0"/>
        <pt x="541" y="576" on="0"/>
      </contour>
    </TTGlyph>
    <TTGlyph name="afii10071" xMin="176" yMin="-21" xMax="1130" yMax="1579">
      <contour>
        <pt x="724" y="1477" on="1"/>
        <pt x="724" y="1449" on="0"/>
        <pt x="702" y="1396" on="0"/>
        <pt x="666" y="1354" on="0"/>
        <pt x="619" y="1329" on="0"/>
        <pt x="595" y="1329" on="1"/>
        <pt x="550" y="1329" on="0"/>
        <pt x="498" y="1390" on="0"/>
        <pt x="498" y="1435" on="1"/>
        <pt x="498" y="1462" on="0"/>
        <pt x="520" y="1514" on="0"/>
        <pt x="557" y="1555" on="0"/>
        <pt x="605" y="1579" on="0"/>
        <pt x="631" y="1579" on="1"/>
        <pt x="673" y="1579" on="0"/>
        <pt x="725" y="1521" on="0"/>
        <pt x="724" y="1476" on="1"/>
      </contour>
      <contour>
        <pt x="1130" y="1475" on="1"/>
        <pt x="1130" y="1446" on="0"/>
        <pt x="1108" y="1393" on="0"/>
        <pt x="1072" y="1352" on="0"/>
        <pt x="1025" y="1327" on="0"/>
        <pt x="1001" y="1327" on="1"/>
        <pt x="956" y="1327" on="0"/>
        <pt x="904" y="1388" on="0"/>
        <pt x="904" y="1433" on="1"/>
        <pt x="904" y="1460" on="0"/>
        <pt x="926" y="1512" on="0"/>
        <pt x="963" y="1553" on="0"/>
        <pt x="1011" y="1577" on="0"/>
        <pt x="1037" y="1577" on="1"/>
        <pt x="1079" y="1577" on="0"/>
        <pt x="1130" y="1519" on="0"/>
        <pt x="1130" y="1474" on="1"/>
      </contour>
      <contour>
        <pt x="358" y="560" on="1"/>
        <pt x="350" y="515" on="0"/>
        <pt x="344" y="439" on="0"/>
        <pt x="343" y="406" on="1"/>
        <pt x="343" y="251" on="0"/>
        <pt x="485" y="105" on="0"/>
        <pt x="613" y="105" on="1"/>
        <pt x="688" y="105" on="0"/>
        <pt x="834" y="175" on="0"/>
        <pt x="907" y="233" on="1"/>
        <pt x="941" y="101" on="1"/>
        <pt x="899" y="72" on="0"/>
        <pt x="806" y="26" on="0"/>
        <pt x="710" y="-5" on="0"/>
        <pt x="616" y="-21" on="0"/>
        <pt x="574" y="-21" on="1"/>
        <pt x="475" y="-21" on="0"/>
        <pt x="326" y="39" on="0"/>
        <pt x="226" y="150" on="0"/>
        <pt x="176" y="310" on="0"/>
        <pt x="176" y="411" on="1"/>
        <pt x="176" y="493" on="0"/>
        <pt x="208" y="669" on="0"/>
        <pt x="271" y="837" on="0"/>
        <pt x="365" y="988" on="0"/>
        <pt x="489" y="1101" on="0"/>
        <pt x="644" y="1168" on="0"/>
        <pt x="736" y="1168" on="1"/>
        <pt x="921" y="1168" on="0"/>
        <pt x="1094" y="981" on="0"/>
        <pt x="1094" y="782" on="1"/>
        <pt x="1094" y="761" on="0"/>
        <pt x="1086" y="722" on="0"/>
        <pt x="1045" y="683" on="0"/>
        <pt x="955" y="646" on="0"/>
        <pt x="792" y="610" on="0"/>
        <pt x="541" y="576" on="0"/>
      </contour>
      <contour>
        <pt x="376" y="673" on="1"/>
        <pt x="523" y="691" on="0"/>
        <pt x="722" y="721" on="0"/>
        <pt x="849" y="747" on="0"/>
        <pt x="916" y="768" on="0"/>
        <pt x="946" y="785" on="0"/>
        <pt x="949" y="799" on="0"/>
        <pt x="949" y="804" on="1"/>
        <pt x="950" y="919" on="0"/>
        <pt x="848" y="1040" on="0"/>
        <pt x="757" y="1040" on="1"/>
        <pt x="613" y="1040" on="0"/>
        <pt x="418" y="851" on="0"/>
      </contour>
    </TTGlyph>
    <TTGlyph name="afii10072" xMin="70" yMin="-3" xMax="1703" yMax="1147">
      <contour>
        <pt x="717" y="0" on="1"/>
        <pt x="799" y="532" on="1"/>
        <pt x="619" y="532" on="1"/>
        <pt x="274" y="0" on="1"/>
        <pt x="70" y="0" on="1"/>
        <pt x="408" y="471" on="1"/>
        <pt x="447" y="525" on="0"/>
        <pt x="527" y="581" on="0"/>
        <pt x="575" y="585" on="1"/>
        <pt x="530" y="590" on="0"/>
        <pt x="465" y="647" on="0"/>
        <pt x="442" y="704" on="1"/>
        <pt x="256" y="1147" on="1"/>
        <pt x="464" y="1147" on="1"/>
        <pt x="624" y="643" on="1"/>
        <pt x="817" y="643" on="1"/>
        <pt x="896" y="1147" on="1"/>
        <pt x="1065" y="1147" on="1"/>
        <pt x="986" y="643" on="1"/>
        <pt x="1181" y="643" on="1"/>
        <pt x="1495" y="1147" on="1"/>
        <pt x="1703" y="1147" on="1"/>
        <pt x="1380" y="704" on="1"/>
        <pt x="1297" y="592" on="0"/>
        <pt x="1207" y="585" on="1"/>
        <pt x="1294" y="579" on="0"/>
        <pt x="1338" y="471" on="1"/>
        <pt x="1532" y="-3" on="1"/>
        <pt x="1317" y="-3" on="1"/>
        <pt x="1156" y="535" on="1"/>
        <pt x="968" y="535" on="1"/>
        <pt x="886" y="0" on="1"/>
      </contour>
    </TTGlyph>
    <TTGlyph name="afii10073" xMin="140" yMin="-21" xMax="997" yMax="1168">
      <contour>
        <pt x="348" y="519" on="1"/>
        <pt x="370" y="660" on="1"/>
        <pt x="475" y="660" on="0"/>
        <pt x="652" y="674" on="0"/>
        <pt x="781" y="724" on="0"/>
        <pt x="853" y="820" on="0"/>
        <pt x="853" y="901" on="1"/>
        <pt x="853" y="970" on="0"/>
        <pt x="745" y="1040" on="0"/>
        <pt x="651" y="1040" on="1"/>
        <pt x="597" y="1040" on="0"/>
        <pt x="490" y="1026" on="0"/>
        <pt x="445" y="1018" on="1"/>
        <pt x="419" y="1013" on="0"/>
        <pt x="370" y="1002" on="0"/>
        <pt x="347" y="996" on="1"/>
        <pt x="334" y="1119" on="1"/>
        <pt x="331" y="1117" on="0"/>
        <pt x="378" y="1132" on="0"/>
        <pt x="463" y="1151" on="0"/>
        <pt x="579" y="1168" on="0"/>
        <pt x="647" y="1168" on="1"/>
        <pt x="825" y="1168" on="0"/>
        <pt x="997" y="1056" on="0"/>
        <pt x="996" y="938" on="1"/>
        <pt x="996" y="870" on="0"/>
        <pt x="957" y="754" on="0"/>
        <pt x="887" y="663" on="0"/>
        <pt x="787" y="602" on="0"/>
        <pt x="727" y="590" on="1"/>
        <pt x="835" y="567" on="0"/>
        <pt x="930" y="445" on="0"/>
        <pt x="930" y="348" on="1"/>
        <pt x="930" y="259" on="0"/>
        <pt x="863" y="122" on="0"/>
        <pt x="745" y="28" on="0"/>
        <pt x="585" y="-21" on="0"/>
        <pt x="491" y="-21" on="1"/>
        <pt x="419" y="-21" on="0"/>
        <pt x="308" y="-10" on="0"/>
        <pt x="223" y="7" on="0"/>
        <pt x="161" y="28" on="0"/>
        <pt x="140" y="38" on="1"/>
        <pt x="194" y="159" on="1"/>
        <pt x="260" y="130" on="0"/>
        <pt x="419" y="105" on="0"/>
        <pt x="522" y="105" on="1"/>
        <pt x="583" y="105" on="0"/>
        <pt x="679" y="140" on="0"/>
        <pt x="745" y="203" on="0"/>
        <pt x="779" y="288" on="0"/>
        <pt x="779" y="338" on="1"/>
        <pt x="779" y="519" on="0"/>
        <pt x="499" y="519" on="1"/>
      </contour>
    </TTGlyph>
    <TTGlyph name="afii10074" xMin="204" yMin="-21" xMax="1195" yMax="1150">
      <contour>
        <pt x="482" y="1147" on="1"/>
        <pt x="482" y="1150" on="0"/>
        <pt x="471" y="1074" on="0"/>
        <pt x="453" y="949" on="0"/>
        <pt x="430" y="790" on="0"/>
        <pt x="408" y="626" on="0"/>
        <pt x="388" y="474" on="0"/>
        <pt x="381" y="420" on="1"/>
        <pt x="377" y="386" on="0"/>
        <pt x="373" y="338" on="0"/>
        <pt x="373" y="327" on="1"/>
        <pt x="373" y="248" on="0"/>
        <pt x="395" y="197" on="1"/>
        <pt x="417" y="149" on="0"/>
        <pt x="495" y="104" on="0"/>
        <pt x="552" y="104" on="1"/>
        <pt x="643" y="104" on="0"/>
        <pt x="813" y="189" on="0"/>
        <pt x="904" y="270" on="1"/>
        <pt x="1027" y="1147" on="1"/>
        <pt x="1195" y="1147" on="1"/>
        <pt x="1035" y="0" on="1"/>
        <pt x="909" y="0" on="1"/>
        <pt x="910" y="45" on="0"/>
        <pt x="909" y="130" on="0"/>
        <pt x="910" y="175" on="1"/>
        <pt x="813" y="75" on="0"/>
        <pt x="626" y="-21" on="0"/>
        <pt x="532" y="-21" on="1"/>
        <pt x="370" y="-21" on="0"/>
        <pt x="204" y="136" on="0"/>
        <pt x="204" y="298" on="1"/>
        <pt x="204" y="310" on="0"/>
        <pt x="207" y="362" on="0"/>
        <pt x="211" y="397" on="1"/>
        <pt x="217" y="455" on="0"/>
        <pt x="237" y="613" on="0"/>
        <pt x="259" y="781" on="0"/>
        <pt x="283" y="945" on="0"/>
        <pt x="301" y="1073" on="0"/>
        <pt x="313" y="1150" on="0"/>
        <pt x="313" y="1147" on="1"/>
      </contour>
    </TTGlyph>
    <TTGlyph name="afii10075" xMin="204" yMin="-21" xMax="1195" yMax="1453">
      <contour>
        <pt x="482" y="1147" on="1"/>
        <pt x="482" y="1150" on="0"/>
        <pt x="471" y="1074" on="0"/>
        <pt x="453" y="949" on="0"/>
        <pt x="430" y="790" on="0"/>
        <pt x="408" y="626" on="0"/>
        <pt x="388" y="474" on="0"/>
        <pt x="381" y="420" on="1"/>
        <pt x="377" y="386" on="0"/>
        <pt x="373" y="338" on="0"/>
        <pt x="373" y="327" on="1"/>
        <pt x="373" y="248" on="0"/>
        <pt x="395" y="197" on="1"/>
        <pt x="417" y="149" on="0"/>
        <pt x="495" y="104" on="0"/>
        <pt x="552" y="104" on="1"/>
        <pt x="643" y="104" on="0"/>
        <pt x="813" y="189" on="0"/>
        <pt x="904" y="270" on="1"/>
        <pt x="1027" y="1147" on="1"/>
        <pt x="1195" y="1147" on="1"/>
        <pt x="1035" y="0" on="1"/>
        <pt x="909" y="0" on="1"/>
        <pt x="910" y="45" on="0"/>
        <pt x="909" y="130" on="0"/>
        <pt x="910" y="175" on="1"/>
        <pt x="813" y="75" on="0"/>
        <pt x="626" y="-21" on="0"/>
        <pt x="532" y="-21" on="1"/>
        <pt x="370" y="-21" on="0"/>
        <pt x="204" y="136" on="0"/>
        <pt x="204" y="298" on="1"/>
        <pt x="204" y="310" on="0"/>
        <pt x="207" y="362" on="0"/>
        <pt x="211" y="397" on="1"/>
        <pt x="217" y="455" on="0"/>
        <pt x="237" y="613" on="0"/>
        <pt x="259" y="781" on="0"/>
        <pt x="283" y="945" on="0"/>
        <pt x="301" y="1073" on="0"/>
        <pt x="313" y="1150" on="0"/>
        <pt x="313" y="1147" on="1"/>
      </contour>
      <contour>
        <pt x="994" y="1453" on="1"/>
        <pt x="991" y="1428" on="0"/>
        <pt x="985" y="1404" on="1"/>
        <pt x="961" y="1320" on="0"/>
        <pt x="834" y="1218" on="0"/>
        <pt x="722" y="1218" on="1"/>
        <pt x="614" y="1218" on="0"/>
        <pt x="518" y="1317" on="0"/>
        <pt x="518" y="1402" on="1"/>
        <pt x="518" y="1413" on="0"/>
        <pt x="520" y="1439" on="0"/>
        <pt x="522" y="1453" on="1"/>
        <pt x="626" y="1453" on="1"/>
        <pt x="625" y="1446" on="0"/>
        <pt x="624" y="1434" on="0"/>
        <pt x="624" y="1429" on="1"/>
        <pt x="624" y="1380" on="0"/>
        <pt x="656" y="1351" on="1"/>
        <pt x="672" y="1340" on="0"/>
        <pt x="715" y="1327" on="0"/>
        <pt x="740" y="1327" on="1"/>
        <pt x="800" y="1327" on="0"/>
        <pt x="882" y="1393" on="0"/>
        <pt x="891" y="1453" on="1"/>
      </contour>
    </TTGlyph>
    <TTGlyph name="afii10076" xMin="155" yMin="0" xMax="1189" yMax="1147">
      <contour>
        <pt x="155" y="0" on="1"/>
        <pt x="316" y="1147" on="1"/>
        <pt x="485" y="1147" on="1"/>
        <pt x="412" y="626" on="1"/>
        <pt x="533" y="626" on="1"/>
        <pt x="988" y="1147" on="1"/>
        <pt x="1189" y="1147" on="1"/>
        <pt x="838" y="769" on="1"/>
        <pt x="820" y="749" on="0"/>
        <pt x="763" y="684" on="0"/>
        <pt x="692" y="621" on="0"/>
        <pt x="613" y="574" on="0"/>
        <pt x="574" y="572" on="1"/>
        <pt x="591" y="570" on="0"/>
        <pt x="638" y="550" on="0"/>
        <pt x="686" y="519" on="0"/>
        <pt x="731" y="479" on="0"/>
        <pt x="745" y="457" on="1"/>
        <pt x="802" y="366" on="1"/>
        <pt x="1038" y="0" on="1"/>
        <pt x="840" y="0" on="1"/>
        <pt x="610" y="377" on="1"/>
        <pt x="508" y="523" on="1"/>
        <pt x="398" y="523" on="1"/>
        <pt x="325" y="0" on="1"/>
      </contour>
    </TTGlyph>
    <TTGlyph name="afii10077" xMin="2" yMin="-21" xMax="1229" yMax="1147">
      <contour>
        <pt x="425" y="1147" on="1"/>
        <pt x="1229" y="1147" on="1"/>
        <pt x="1047" y="0" on="1"/>
        <pt x="879" y="0" on="1"/>
        <pt x="1043" y="1026" on="1"/>
        <pt x="556" y="1026" on="1"/>
        <pt x="429" y="400" on="1"/>
        <pt x="406" y="284" on="0"/>
        <pt x="336" y="124" on="0"/>
        <pt x="233" y="24" on="0"/>
        <pt x="94" y="-21" on="0"/>
        <pt x="2" y="-21" on="1"/>
        <pt x="26" y="124" on="1"/>
        <pt x="87" y="128" on="0"/>
        <pt x="169" y="168" on="0"/>
        <pt x="224" y="244" on="0"/>
        <pt x="261" y="357" on="0"/>
        <pt x="277" y="434" on="1"/>
      </contour>
    </TTGlyph>
    <TTGlyph name="afii10078" xMin="155" yMin="0" xMax="1519" yMax="1148">
      <contour>
        <pt x="773" y="146" on="1"/>
        <pt x="1274" y="1148" on="1"/>
        <pt x="1519" y="1148" on="1"/>
        <pt x="1337" y="0" on="1"/>
        <pt x="1195" y="0" on="1"/>
        <pt x="1361" y="1050" on="1"/>
        <pt x="836" y="0" on="1"/>
        <pt x="663" y="0" on="1"/>
        <pt x="466" y="1050" on="1"/>
        <pt x="299" y="0" on="1"/>
        <pt x="155" y="0" on="1"/>
        <pt x="338" y="1148" on="1"/>
        <pt x="586" y="1148" on="1"/>
      </contour>
    </TTGlyph>
    <TTGlyph name="afii10079" xMin="155" yMin="0" xMax="1271" yMax="1147">
      <contour>
        <pt x="338" y="1147" on="1"/>
        <pt x="506" y="1147" on="1"/>
        <pt x="430" y="671" on="1"/>
        <pt x="1029" y="671" on="1"/>
        <pt x="1105" y="1147" on="1"/>
        <pt x="1271" y="1147" on="1"/>
        <pt x="1089" y="0" on="1"/>
        <pt x="923" y="0" on="1"/>
        <pt x="1012" y="561" on="1"/>
        <pt x="413" y="561" on="1"/>
        <pt x="324" y="0" on="1"/>
        <pt x="155" y="0" on="1"/>
      </contour>
    </TTGlyph>
    <TTGlyph name="afii10080" xMin="176" yMin="-21" xMax="1174" yMax="1168">
      <contour>
        <pt x="176" y="428" on="1"/>
        <pt x="176" y="519" on="0"/>
        <pt x="210" y="700" on="0"/>
        <pt x="276" y="865" on="0"/>
        <pt x="376" y="1006" on="0"/>
        <pt x="508" y="1109" on="0"/>
        <pt x="672" y="1168" on="0"/>
        <pt x="770" y="1168" on="1"/>
        <pt x="851" y="1168" on="0"/>
        <pt x="973" y="1132" on="0"/>
        <pt x="1063" y="1070" on="0"/>
        <pt x="1123" y="986" on="0"/>
        <pt x="1159" y="888" on="0"/>
        <pt x="1174" y="782" on="0"/>
        <pt x="1174" y="729" on="1"/>
        <pt x="1174" y="561" on="0"/>
        <pt x="1078" y="284" on="0"/>
        <pt x="915" y="87" on="0"/>
        <pt x="699" y="-21" on="0"/>
        <pt x="579" y="-21" on="1"/>
        <pt x="489" y="-21" on="0"/>
        <pt x="340" y="41" on="0"/>
        <pt x="234" y="156" on="0"/>
        <pt x="176" y="323" on="0"/>
      </contour>
      <contour>
        <pt x="602" y="104" on="1"/>
        <pt x="679" y="104" on="0"/>
        <pt x="800" y="160" on="0"/>
        <pt x="891" y="253" on="0"/>
        <pt x="954" y="376" on="0"/>
        <pt x="993" y="511" on="0"/>
        <pt x="1011" y="647" on="0"/>
        <pt x="1011" y="708" on="1"/>
        <pt x="1011" y="775" on="0"/>
        <pt x="986" y="896" on="0"/>
        <pt x="925" y="988" on="0"/>
        <pt x="824" y="1041" on="0"/>
        <pt x="749" y="1041" on="1"/>
        <pt x="672" y="1041" on="0"/>
        <pt x="552" y="984" on="0"/>
        <pt x="461" y="888" on="0"/>
        <pt x="397" y="763" on="0"/>
        <pt x="356" y="628" on="0"/>
        <pt x="338" y="491" on="0"/>
        <pt x="338" y="432" on="1"/>
        <pt x="338" y="365" on="0"/>
        <pt x="363" y="246" on="0"/>
        <pt x="424" y="156" on="0"/>
        <pt x="525" y="104" on="0"/>
      </contour>
    </TTGlyph>
    <TTGlyph name="afii10081" xMin="155" yMin="0" xMax="1248" yMax="1147">
      <contour>
        <pt x="316" y="1147" on="1"/>
        <pt x="1248" y="1147" on="1"/>
        <pt x="1088" y="0" on="1"/>
        <pt x="921" y="0" on="1"/>
        <pt x="1069" y="1026" on="1"/>
        <pt x="472" y="1026" on="1"/>
        <pt x="324" y="0" on="1"/>
        <pt x="155" y="0" on="1"/>
      </contour>
    </TTGlyph>
    <TTGlyph name="afii10082" xMin="158" yMin="-491" xMax="1248" yMax="1168">
      <contour>
        <pt x="1248" y="716" on="1"/>
        <pt x="1248" y="633" on="0"/>
        <pt x="1221" y="460" on="0"/>
        <pt x="1166" y="296" on="0"/>
        <pt x="1081" y="151" on="0"/>
        <pt x="964" y="42" on="0"/>
        <pt x="813" y="-21" on="0"/>
        <pt x="720" y="-21" on="1"/>
        <pt x="672" y="-21" on="0"/>
        <pt x="582" y="9" on="0"/>
        <pt x="504" y="60" on="0"/>
        <pt x="441" y="128" on="0"/>
        <pt x="420" y="166" on="1"/>
        <pt x="331" y="-468" on="1"/>
        <pt x="158" y="-491" on="1"/>
        <pt x="388" y="1147" on="1"/>
        <pt x="517" y="1147" on="1"/>
        <pt x="515" y="948" on="1"/>
        <pt x="554" y="993" on="0"/>
        <pt x="643" y="1073" on="0"/>
        <pt x="737" y="1133" on="0"/>
        <pt x="834" y="1168" on="0"/>
        <pt x="881" y="1168" on="1"/>
        <pt x="960" y="1168" on="0"/>
        <pt x="1095" y="1121" on="0"/>
        <pt x="1193" y="1014" on="0"/>
        <pt x="1248" y="842" on="0"/>
      </contour>
      <contour>
        <pt x="1085" y="718" on="1"/>
        <pt x="1085" y="760" on="0"/>
        <pt x="1077" y="833" on="0"/>
        <pt x="1070" y="864" on="1"/>
        <pt x="1048" y="955" on="0"/>
        <pt x="953" y="1041" on="0"/>
        <pt x="881" y="1041" on="1"/>
        <pt x="802" y="1041" on="0"/>
        <pt x="613" y="958" on="0"/>
        <pt x="519" y="873" on="1"/>
        <pt x="436" y="279" on="1"/>
        <pt x="457" y="245" on="0"/>
        <pt x="530" y="182" on="0"/>
        <pt x="614" y="133" on="0"/>
        <pt x="699" y="104" on="0"/>
        <pt x="733" y="104" on="1"/>
        <pt x="806" y="104" on="0"/>
        <pt x="915" y="164" on="0"/>
        <pt x="993" y="262" on="0"/>
        <pt x="1044" y="390" on="0"/>
        <pt x="1073" y="527" on="0"/>
        <pt x="1085" y="661" on="0"/>
      </contour>
    </TTGlyph>
    <TTGlyph name="afii10083" xMin="176" yMin="-21" xMax="1087" yMax="1168">
      <contour>
        <pt x="176" y="415" on="1"/>
        <pt x="176" y="586" on="0"/>
        <pt x="270" y="865" on="0"/>
        <pt x="429" y="1061" on="0"/>
        <pt x="637" y="1168" on="0"/>
        <pt x="752" y="1168" on="1"/>
        <pt x="849" y="1168" on="0"/>
        <pt x="1018" y="1108" on="0"/>
        <pt x="1087" y="1045" on="1"/>
        <pt x="1015" y="920" on="1"/>
        <pt x="996" y="943" on="0"/>
        <pt x="938" y="987" on="0"/>
        <pt x="868" y="1021" on="0"/>
        <pt x="791" y="1041" on="0"/>
        <pt x="753" y="1041" on="1"/>
        <pt x="670" y="1041" on="0"/>
        <pt x="543" y="973" on="0"/>
        <pt x="450" y="862" on="0"/>
        <pt x="389" y="720" on="0"/>
        <pt x="371" y="647" on="1"/>
        <pt x="357" y="584" on="0"/>
        <pt x="344" y="466" on="0"/>
        <pt x="344" y="414" on="1"/>
        <pt x="344" y="257" on="0"/>
        <pt x="468" y="104" on="0"/>
        <pt x="577" y="104" on="1"/>
        <pt x="608" y="104" on="0"/>
        <pt x="667" y="111" on="0"/>
        <pt x="730" y="123" on="0"/>
        <pt x="800" y="138" on="0"/>
        <pt x="841" y="146" on="1"/>
        <pt x="858" y="165" on="0"/>
        <pt x="890" y="209" on="0"/>
        <pt x="907" y="234" on="1"/>
        <pt x="937" y="112" on="1"/>
        <pt x="749" y="-21" on="0"/>
        <pt x="557" y="-21" on="1"/>
        <pt x="478" y="-21" on="0"/>
        <pt x="339" y="29" on="0"/>
        <pt x="236" y="134" on="0"/>
        <pt x="176" y="299" on="0"/>
      </contour>
    </TTGlyph>
    <TTGlyph name="afii10084" xMin="179" yMin="0" xMax="1812" yMax="1168">
      <contour>
        <pt x="1538" y="1168" on="1"/>
        <pt x="1608" y="1168" on="0"/>
        <pt x="1711" y="1121" on="0"/>
        <pt x="1779" y="1034" on="0"/>
        <pt x="1812" y="910" on="0"/>
        <pt x="1812" y="833" on="1"/>
        <pt x="1812" y="826" on="0"/>
        <pt x="1810" y="806" on="0"/>
        <pt x="1804" y="751" on="0"/>
        <pt x="1789" y="647" on="0"/>
        <pt x="1765" y="466" on="0"/>
        <pt x="1727" y="195" on="0"/>
        <pt x="1700" y="0" on="1"/>
        <pt x="1533" y="0" on="1"/>
        <pt x="1561" y="198" on="0"/>
        <pt x="1600" y="476" on="0"/>
        <pt x="1625" y="662" on="0"/>
        <pt x="1639" y="770" on="0"/>
        <pt x="1646" y="829" on="0"/>
        <pt x="1647" y="851" on="0"/>
        <pt x="1647" y="859" on="1"/>
        <pt x="1647" y="910" on="0"/>
        <pt x="1625" y="980" on="0"/>
        <pt x="1585" y="1022" on="0"/>
        <pt x="1531" y="1041" on="0"/>
        <pt x="1499" y="1041" on="1"/>
        <pt x="1414" y="1041" on="0"/>
        <pt x="1233" y="938" on="0"/>
        <pt x="1130" y="838" on="1"/>
        <pt x="1012" y="0" on="1"/>
        <pt x="844" y="0" on="1"/>
        <pt x="870" y="181" on="0"/>
        <pt x="906" y="442" on="0"/>
        <pt x="930" y="623" on="0"/>
        <pt x="945" y="734" on="0"/>
        <pt x="949" y="766" on="1"/>
        <pt x="952" y="790" on="0"/>
        <pt x="956" y="819" on="0"/>
        <pt x="957" y="838" on="0"/>
        <pt x="958" y="848" on="0"/>
        <pt x="958" y="852" on="1"/>
        <pt x="958" y="946" on="0"/>
        <pt x="894" y="1041" on="0"/>
        <pt x="813" y="1041" on="1"/>
        <pt x="743" y="1041" on="0"/>
        <pt x="570" y="939" on="0"/>
        <pt x="467" y="842" on="1"/>
        <pt x="349" y="0" on="1"/>
        <pt x="179" y="0" on="1"/>
        <pt x="340" y="1147" on="1"/>
        <pt x="461" y="1147" on="1"/>
        <pt x="459" y="940" on="1"/>
        <pt x="537" y="1046" on="0"/>
        <pt x="737" y="1168" on="0"/>
        <pt x="858" y="1168" on="1"/>
        <pt x="919" y="1168" on="0"/>
        <pt x="1009" y="1132" on="0"/>
        <pt x="1072" y="1071" on="0"/>
        <pt x="1110" y="990" on="0"/>
        <pt x="1118" y="944" on="1"/>
        <pt x="1156" y="993" on="0"/>
        <pt x="1255" y="1075" on="0"/>
        <pt x="1366" y="1135" on="0"/>
        <pt x="1482" y="1168" on="0"/>
      </contour>
    </TTGlyph>
    <TTGlyph name="afii10085" xMin="81" yMin="-458" xMax="1159" yMax="1147">
      <contour>
        <pt x="81" y="-339" on="1"/>
        <pt x="156" y="-327" on="0"/>
        <pt x="260" y="-279" on="0"/>
        <pt x="302" y="-237" on="1"/>
        <pt x="340" y="-197" on="0"/>
        <pt x="407" y="-75" on="0"/>
        <pt x="449" y="17" on="1"/>
        <pt x="441" y="54" on="0"/>
        <pt x="426" y="127" on="0"/>
        <pt x="418" y="165" on="1"/>
        <pt x="216" y="1147" on="1"/>
        <pt x="378" y="1147" on="1"/>
        <pt x="560" y="232" on="1"/>
        <pt x="985" y="1147" on="1"/>
        <pt x="1159" y="1147" on="1"/>
        <pt x="631" y="95" on="1"/>
        <pt x="609" y="52" on="0"/>
        <pt x="563" y="-48" on="0"/>
        <pt x="511" y="-152" on="0"/>
        <pt x="452" y="-252" on="0"/>
        <pt x="381" y="-340" on="0"/>
        <pt x="295" y="-410" on="0"/>
        <pt x="244" y="-430" on="1"/>
        <pt x="184" y="-454" on="0"/>
        <pt x="106" y="-458" on="1"/>
      </contour>
    </TTGlyph>
    <TTGlyph name="afii10086" xMin="176" yMin="-125" xMax="1242" yMax="1260">
      <contour>
        <pt x="723" y="198" on="1"/>
        <pt x="796" y="204" on="0"/>
        <pt x="909" y="260" on="0"/>
        <pt x="952" y="302" on="1"/>
        <pt x="988" y="338" on="0"/>
        <pt x="1041" y="428" on="0"/>
        <pt x="1076" y="526" on="0"/>
        <pt x="1092" y="630" on="0"/>
        <pt x="1092" y="681" on="1"/>
        <pt x="1092" y="763" on="0"/>
        <pt x="1061" y="826" on="1"/>
        <pt x="1029" y="886" on="0"/>
        <pt x="915" y="962" on="0"/>
        <pt x="831" y="970" on="1"/>
      </contour>
      <contour>
        <pt x="686" y="970" on="1"/>
        <pt x="587" y="958" on="0"/>
        <pt x="453" y="868" on="0"/>
        <pt x="408" y="802" on="1"/>
        <pt x="363" y="736" on="0"/>
        <pt x="326" y="578" on="0"/>
        <pt x="326" y="494" on="1"/>
        <pt x="326" y="429" on="0"/>
        <pt x="345" y="375" on="1"/>
        <pt x="373" y="297" on="0"/>
        <pt x="498" y="201" on="0"/>
        <pt x="592" y="198" on="1"/>
      </contour>
      <contour>
        <pt x="740" y="1260" on="1"/>
        <pt x="870" y="1260" on="1"/>
        <pt x="845" y="1076" on="1"/>
        <pt x="898" y="1073" on="0"/>
        <pt x="943" y="1060" on="1"/>
        <pt x="999" y="1044" on="0"/>
        <pt x="1094" y="987" on="0"/>
        <pt x="1168" y="911" on="0"/>
        <pt x="1219" y="819" on="0"/>
        <pt x="1231" y="767" on="1"/>
        <pt x="1241" y="726" on="0"/>
        <pt x="1241" y="676" on="1"/>
        <pt x="1242" y="561" on="0"/>
        <pt x="1174" y="369" on="0"/>
        <pt x="1055" y="221" on="0"/>
        <pt x="894" y="122" on="0"/>
        <pt x="802" y="101" on="1"/>
        <pt x="779" y="96" on="0"/>
        <pt x="731" y="89" on="0"/>
        <pt x="706" y="88" on="1"/>
        <pt x="678" y="-125" on="1"/>
        <pt x="541" y="-125" on="1"/>
        <pt x="575" y="88" on="1"/>
        <pt x="522" y="92" on="0"/>
        <pt x="476" y="103" on="1"/>
        <pt x="364" y="133" on="0"/>
        <pt x="213" y="284" on="0"/>
        <pt x="187" y="390" on="1"/>
        <pt x="181" y="412" on="0"/>
        <pt x="176" y="458" on="0"/>
        <pt x="176" y="483" on="1"/>
        <pt x="176" y="542" on="0"/>
        <pt x="185" y="598" on="1"/>
        <pt x="200" y="690" on="0"/>
        <pt x="276" y="845" on="0"/>
        <pt x="388" y="964" on="0"/>
        <pt x="531" y="1045" on="0"/>
        <pt x="614" y="1063" on="1"/>
        <pt x="639" y="1068" on="0"/>
        <pt x="688" y="1075" on="0"/>
        <pt x="714" y="1076" on="1"/>
      </contour>
    </TTGlyph>
    <TTGlyph name="afii10087" xMin="70" yMin="0" xMax="1156" yMax="1147">
      <contour>
        <pt x="599" y="474" on="1"/>
        <pt x="256" y="0" on="1"/>
        <pt x="70" y="0" on="1"/>
        <pt x="535" y="572" on="1"/>
        <pt x="250" y="1147" on="1"/>
        <pt x="440" y="1147" on="1"/>
        <pt x="628" y="682" on="1"/>
        <pt x="972" y="1147" on="1"/>
        <pt x="1156" y="1147" on="1"/>
        <pt x="692" y="572" on="1"/>
        <pt x="964" y="0" on="1"/>
        <pt x="785" y="0" on="1"/>
      </contour>
    </TTGlyph>
    <TTGlyph name="afii10088" xMin="203" yMin="-331" xMax="1203" yMax="1147">
      <contour>
        <pt x="546" y="-22" on="1"/>
        <pt x="204" y="-34" on="0"/>
        <pt x="203" y="294" on="1"/>
        <pt x="203" y="323" on="0"/>
        <pt x="207" y="386" on="0"/>
        <pt x="213" y="421" on="1"/>
        <pt x="329" y="1147" on="1"/>
        <pt x="496" y="1147" on="1"/>
        <pt x="382" y="423" on="1"/>
        <pt x="377" y="391" on="0"/>
        <pt x="371" y="335" on="0"/>
        <pt x="372" y="310" on="1"/>
        <pt x="373" y="201" on="0"/>
        <pt x="467" y="101" on="0"/>
        <pt x="554" y="104" on="1"/>
        <pt x="642" y="104" on="0"/>
        <pt x="809" y="191" on="0"/>
        <pt x="897" y="273" on="1"/>
        <pt x="1036" y="1147" on="1"/>
        <pt x="1203" y="1147" on="1"/>
        <pt x="1028" y="41" on="1"/>
        <pt x="1163" y="41" on="1"/>
        <pt x="1112" y="-331" on="1"/>
        <pt x="963" y="-331" on="1"/>
        <pt x="1011" y="0" on="1"/>
        <pt x="895" y="0" on="1"/>
        <pt x="920" y="184" on="1"/>
        <pt x="732" y="-22" on="0"/>
      </contour>
    </TTGlyph>
    <TTGlyph name="afii10089" xMin="199" yMin="0" xMax="1168" yMax="1146">
      <contour>
        <pt x="900" y="563" on="1"/>
        <pt x="838" y="503" on="0"/>
        <pt x="739" y="425" on="0"/>
        <pt x="649" y="381" on="0"/>
        <pt x="561" y="364" on="0"/>
        <pt x="510" y="364" on="1"/>
        <pt x="361" y="364" on="0"/>
        <pt x="199" y="521" on="0"/>
        <pt x="199" y="686" on="1"/>
        <pt x="199" y="693" on="0"/>
        <pt x="204" y="741" on="0"/>
        <pt x="213" y="808" on="0"/>
        <pt x="224" y="890" on="0"/>
        <pt x="230" y="931" on="1"/>
        <pt x="237" y="980" on="0"/>
        <pt x="253" y="1086" on="0"/>
        <pt x="262" y="1146" on="1"/>
        <pt x="439" y="1146" on="1"/>
        <pt x="430" y="1089" on="0"/>
        <pt x="415" y="988" on="0"/>
        <pt x="408" y="942" on="1"/>
        <pt x="402" y="903" on="0"/>
        <pt x="391" y="826" on="0"/>
        <pt x="382" y="761" on="0"/>
        <pt x="377" y="715" on="0"/>
        <pt x="377" y="708" on="1"/>
        <pt x="377" y="602" on="0"/>
        <pt x="461" y="507" on="0"/>
        <pt x="549" y="507" on="1"/>
        <pt x="604" y="507" on="0"/>
        <pt x="713" y="538" on="0"/>
        <pt x="810" y="584" on="0"/>
        <pt x="890" y="639" on="0"/>
        <pt x="916" y="662" on="1"/>
        <pt x="993" y="1146" on="1"/>
        <pt x="1168" y="1146" on="1"/>
        <pt x="987" y="0" on="1"/>
        <pt x="811" y="0" on="1"/>
      </contour>
    </TTGlyph>
    <TTGlyph name="afii10090" xMin="205" yMin="-24" xMax="1825" yMax="1150">
      <contour>
        <pt x="1664" y="0" on="1"/>
        <pt x="1527" y="0" on="1"/>
        <pt x="1538" y="184" on="1"/>
        <pt x="1501" y="142" on="0"/>
        <pt x="1417" y="67" on="0"/>
        <pt x="1322" y="11" on="0"/>
        <pt x="1215" y="-22" on="0"/>
        <pt x="1155" y="-22" on="1"/>
        <pt x="1049" y="-22" on="0"/>
        <pt x="926" y="68" on="0"/>
        <pt x="907" y="167" on="1"/>
        <pt x="870" y="125" on="0"/>
        <pt x="791" y="55" on="0"/>
        <pt x="699" y="5" on="0"/>
        <pt x="590" y="-22" on="0"/>
        <pt x="524" y="-22" on="1"/>
        <pt x="444" y="-24" on="0"/>
        <pt x="324" y="29" on="0"/>
        <pt x="245" y="122" on="0"/>
        <pt x="205" y="248" on="0"/>
        <pt x="205" y="319" on="1"/>
        <pt x="205" y="321" on="0"/>
        <pt x="214" y="396" on="0"/>
        <pt x="230" y="516" on="0"/>
        <pt x="250" y="666" on="0"/>
        <pt x="270" y="822" on="0"/>
        <pt x="290" y="969" on="0"/>
        <pt x="306" y="1083" on="0"/>
        <pt x="315" y="1150" on="0"/>
        <pt x="315" y="1147" on="1"/>
        <pt x="484" y="1147" on="1"/>
        <pt x="484" y="1149" on="0"/>
        <pt x="474" y="1081" on="0"/>
        <pt x="459" y="967" on="0"/>
        <pt x="439" y="820" on="0"/>
        <pt x="418" y="665" on="0"/>
        <pt x="398" y="516" on="0"/>
        <pt x="383" y="398" on="0"/>
        <pt x="373" y="324" on="0"/>
        <pt x="373" y="322" on="1"/>
        <pt x="373" y="273" on="0"/>
        <pt x="397" y="191" on="0"/>
        <pt x="443" y="133" on="0"/>
        <pt x="510" y="102" on="0"/>
        <pt x="554" y="104" on="1"/>
        <pt x="594" y="104" on="0"/>
        <pt x="666" y="117" on="0"/>
        <pt x="741" y="150" on="0"/>
        <pt x="823" y="206" on="0"/>
        <pt x="873" y="250" on="1"/>
        <pt x="998" y="1147" on="1"/>
        <pt x="1164" y="1147" on="1"/>
        <pt x="1164" y="1149" on="0"/>
        <pt x="1154" y="1079" on="0"/>
        <pt x="1138" y="960" on="0"/>
        <pt x="1117" y="807" on="0"/>
        <pt x="1096" y="646" on="0"/>
        <pt x="1075" y="490" on="0"/>
        <pt x="1059" y="366" on="0"/>
        <pt x="1049" y="287" on="0"/>
        <pt x="1049" y="284" on="1"/>
        <pt x="1050" y="195" on="0"/>
        <pt x="1120" y="101" on="0"/>
        <pt x="1203" y="104" on="1"/>
        <pt x="1272" y="104" on="0"/>
        <pt x="1437" y="183" on="0"/>
        <pt x="1534" y="273" on="1"/>
        <pt x="1656" y="1147" on="1"/>
        <pt x="1825" y="1147" on="1"/>
      </contour>
    </TTGlyph>
    <TTGlyph name="afii10091" xMin="204" yMin="-344" xMax="1824" yMax="1150">
      <contour>
        <pt x="1674" y="73" on="1"/>
        <pt x="1779" y="73" on="1"/>
        <pt x="1718" y="-344" on="1"/>
        <pt x="1573" y="-344" on="1"/>
        <pt x="1627" y="0" on="1"/>
        <pt x="1545" y="0" on="1"/>
        <pt x="1543" y="184" on="1"/>
        <pt x="1505" y="142" on="0"/>
        <pt x="1418" y="67" on="0"/>
        <pt x="1319" y="11" on="0"/>
        <pt x="1208" y="-22" on="0"/>
        <pt x="1147" y="-22" on="1"/>
        <pt x="1041" y="-22" on="0"/>
        <pt x="917" y="68" on="0"/>
        <pt x="898" y="167" on="1"/>
        <pt x="861" y="125" on="0"/>
        <pt x="781" y="55" on="0"/>
        <pt x="688" y="5" on="0"/>
        <pt x="579" y="-22" on="0"/>
        <pt x="513" y="-22" on="1"/>
        <pt x="462" y="-22" on="0"/>
        <pt x="379" y="3" on="0"/>
        <pt x="347" y="26" on="1"/>
        <pt x="275" y="69" on="0"/>
        <pt x="205" y="225" on="0"/>
        <pt x="205" y="319" on="1"/>
        <pt x="204" y="321" on="0"/>
        <pt x="213" y="396" on="0"/>
        <pt x="229" y="516" on="0"/>
        <pt x="249" y="666" on="0"/>
        <pt x="270" y="822" on="0"/>
        <pt x="290" y="969" on="0"/>
        <pt x="306" y="1083" on="0"/>
        <pt x="315" y="1150" on="0"/>
        <pt x="315" y="1147" on="1"/>
        <pt x="483" y="1147" on="1"/>
        <pt x="483" y="1149" on="0"/>
        <pt x="474" y="1081" on="0"/>
        <pt x="458" y="967" on="0"/>
        <pt x="438" y="820" on="0"/>
        <pt x="418" y="665" on="0"/>
        <pt x="398" y="516" on="0"/>
        <pt x="382" y="398" on="0"/>
        <pt x="373" y="324" on="0"/>
        <pt x="373" y="322" on="1"/>
        <pt x="373" y="273" on="0"/>
        <pt x="397" y="192" on="0"/>
        <pt x="443" y="134" on="0"/>
        <pt x="510" y="103" on="0"/>
        <pt x="554" y="105" on="1"/>
        <pt x="594" y="105" on="0"/>
        <pt x="665" y="117" on="0"/>
        <pt x="740" y="150" on="0"/>
        <pt x="822" y="207" on="0"/>
        <pt x="872" y="251" on="1"/>
        <pt x="997" y="1147" on="1"/>
        <pt x="1163" y="1147" on="1"/>
        <pt x="1163" y="1149" on="0"/>
        <pt x="1153" y="1079" on="0"/>
        <pt x="1137" y="961" on="0"/>
        <pt x="1117" y="808" on="0"/>
        <pt x="1095" y="647" on="0"/>
        <pt x="1075" y="491" on="0"/>
        <pt x="1059" y="367" on="0"/>
        <pt x="1049" y="288" on="0"/>
        <pt x="1049" y="284" on="1"/>
        <pt x="1049" y="194" on="0"/>
        <pt x="1119" y="102" on="0"/>
        <pt x="1202" y="105" on="1"/>
        <pt x="1271" y="105" on="0"/>
        <pt x="1436" y="184" on="0"/>
        <pt x="1533" y="274" on="1"/>
        <pt x="1655" y="1147" on="1"/>
        <pt x="1824" y="1147" on="1"/>
      </contour>
    </TTGlyph>
    <TTGlyph name="afii10092" xMin="150" yMin="0" xMax="1213" yMax="1147">
      <contour>
        <pt x="312" y="0" on="1"/>
        <pt x="456" y="1026" on="1"/>
        <pt x="150" y="1026" on="1"/>
        <pt x="167" y="1147" on="1"/>
        <pt x="642" y="1147" on="1"/>
        <pt x="587" y="759" on="1"/>
        <pt x="650" y="759" on="0"/>
        <pt x="758" y="756" on="0"/>
        <pt x="806" y="751" on="1"/>
        <pt x="924" y="740" on="0"/>
        <pt x="1081" y="690" on="0"/>
        <pt x="1175" y="611" on="0"/>
        <pt x="1213" y="505" on="0"/>
        <pt x="1213" y="438" on="1"/>
        <pt x="1213" y="341" on="0"/>
        <pt x="1162" y="200" on="0"/>
        <pt x="1068" y="103" on="0"/>
        <pt x="936" y="43" on="0"/>
        <pt x="774" y="11" on="0"/>
        <pt x="586" y="0" on="0"/>
        <pt x="483" y="0" on="1"/>
      </contour>
      <contour>
        <pt x="488" y="123" on="1"/>
        <pt x="624" y="123" on="0"/>
        <pt x="835" y="138" on="0"/>
        <pt x="977" y="205" on="0"/>
        <pt x="1051" y="344" on="0"/>
        <pt x="1051" y="468" on="1"/>
        <pt x="1051" y="500" on="0"/>
        <pt x="1032" y="551" on="0"/>
        <pt x="989" y="590" on="0"/>
        <pt x="917" y="618" on="0"/>
        <pt x="863" y="627" on="1"/>
        <pt x="808" y="637" on="0"/>
        <pt x="664" y="645" on="0"/>
        <pt x="570" y="645" on="1"/>
        <pt x="510" y="213" on="1"/>
        <pt x="503" y="191" on="0"/>
        <pt x="493" y="146" on="0"/>
      </contour>
    </TTGlyph>
    <TTGlyph name="afii10093" xMin="155" yMin="0" xMax="1547" yMax="1147">
      <contour>
        <pt x="1227" y="0" on="1"/>
        <pt x="1389" y="1147" on="1"/>
        <pt x="1547" y="1147" on="1"/>
        <pt x="1387" y="0" on="1"/>
      </contour>
      <contour>
        <pt x="155" y="0" on="1"/>
        <pt x="316" y="1147" on="1"/>
        <pt x="485" y="1147" on="1"/>
        <pt x="432" y="761" on="1"/>
        <pt x="495" y="761" on="0"/>
        <pt x="603" y="758" on="0"/>
        <pt x="651" y="753" on="1"/>
        <pt x="769" y="742" on="0"/>
        <pt x="925" y="692" on="0"/>
        <pt x="1018" y="613" on="0"/>
        <pt x="1055" y="506" on="0"/>
        <pt x="1055" y="439" on="1"/>
        <pt x="1055" y="341" on="0"/>
        <pt x="1004" y="201" on="0"/>
        <pt x="911" y="103" on="0"/>
        <pt x="779" y="43" on="0"/>
        <pt x="617" y="11" on="0"/>
        <pt x="429" y="0" on="0"/>
        <pt x="326" y="0" on="1"/>
      </contour>
      <contour>
        <pt x="332" y="123" on="1"/>
        <pt x="418" y="123" on="0"/>
        <pt x="569" y="127" on="0"/>
        <pt x="693" y="147" on="0"/>
        <pt x="791" y="190" on="0"/>
        <pt x="859" y="266" on="0"/>
        <pt x="894" y="383" on="0"/>
        <pt x="894" y="468" on="1"/>
        <pt x="894" y="500" on="0"/>
        <pt x="876" y="551" on="0"/>
        <pt x="832" y="590" on="0"/>
        <pt x="761" y="618" on="0"/>
        <pt x="707" y="627" on="1"/>
        <pt x="653" y="637" on="0"/>
        <pt x="508" y="645" on="0"/>
        <pt x="414" y="645" on="1"/>
        <pt x="354" y="213" on="1"/>
        <pt x="347" y="191" on="0"/>
        <pt x="337" y="146" on="0"/>
      </contour>
    </TTGlyph>
    <TTGlyph name="afii10094" xMin="155" yMin="0" xMax="1055" yMax="1147">
      <contour>
        <pt x="155" y="0" on="1"/>
        <pt x="316" y="1147" on="1"/>
        <pt x="485" y="1147" on="1"/>
        <pt x="430" y="759" on="1"/>
        <pt x="490" y="759" on="0"/>
        <pt x="594" y="754" on="0"/>
        <pt x="642" y="749" on="1"/>
        <pt x="758" y="735" on="0"/>
        <pt x="916" y="676" on="0"/>
        <pt x="1013" y="591" on="0"/>
        <pt x="1055" y="481" on="0"/>
        <pt x="1055" y="417" on="1"/>
        <pt x="1055" y="298" on="0"/>
        <pt x="946" y="138" on="0"/>
        <pt x="752" y="41" on="0"/>
        <pt x="485" y="0" on="0"/>
        <pt x="326" y="0" on="1"/>
      </contour>
      <contour>
        <pt x="331" y="123" on="1"/>
        <pt x="459" y="123" on="0"/>
        <pt x="667" y="149" on="0"/>
        <pt x="814" y="217" on="0"/>
        <pt x="893" y="335" on="0"/>
        <pt x="893" y="428" on="1"/>
        <pt x="893" y="463" on="0"/>
        <pt x="873" y="522" on="0"/>
        <pt x="827" y="570" on="0"/>
        <pt x="754" y="607" on="0"/>
        <pt x="700" y="620" on="1"/>
        <pt x="646" y="633" on="0"/>
        <pt x="504" y="645" on="0"/>
        <pt x="413" y="645" on="1"/>
        <pt x="352" y="213" on="1"/>
        <pt x="346" y="190" on="0"/>
        <pt x="336" y="146" on="0"/>
      </contour>
    </TTGlyph>
    <TTGlyph name="afii10095" xMin="140" yMin="-21" xMax="1041" yMax="1168">
      <contour>
        <pt x="489" y="-21" on="1"/>
        <pt x="463" y="-21" on="0"/>
        <pt x="412" y="-18" on="0"/>
        <pt x="388" y="-13" on="1"/>
        <pt x="251" y="13" on="0"/>
        <pt x="140" y="113" on="1"/>
        <pt x="212" y="240" on="1"/>
        <pt x="266" y="181" on="0"/>
        <pt x="407" y="105" on="0"/>
        <pt x="497" y="105" on="1"/>
        <pt x="564" y="105" on="0"/>
        <pt x="683" y="169" on="0"/>
        <pt x="778" y="282" on="0"/>
        <pt x="843" y="438" on="0"/>
        <pt x="856" y="530" on="1"/>
        <pt x="485" y="530" on="1"/>
        <pt x="502" y="641" on="1"/>
        <pt x="871" y="641" on="1"/>
        <pt x="873" y="663" on="0"/>
        <pt x="875" y="702" on="0"/>
        <pt x="875" y="721" on="1"/>
        <pt x="875" y="797" on="0"/>
        <pt x="852" y="916" on="0"/>
        <pt x="795" y="998" on="0"/>
        <pt x="698" y="1040" on="0"/>
        <pt x="623" y="1040" on="1"/>
        <pt x="587" y="1040" on="0"/>
        <pt x="509" y="1020" on="0"/>
        <pt x="430" y="985" on="0"/>
        <pt x="353" y="936" on="0"/>
        <pt x="318" y="907" on="1"/>
        <pt x="286" y="1033" on="1"/>
        <pt x="380" y="1102" on="0"/>
        <pt x="575" y="1168" on="0"/>
        <pt x="675" y="1168" on="1"/>
        <pt x="756" y="1168" on="0"/>
        <pt x="891" y="1107" on="0"/>
        <pt x="988" y="993" on="0"/>
        <pt x="1041" y="828" on="0"/>
        <pt x="1041" y="725" on="1"/>
        <pt x="1041" y="610" on="0"/>
        <pt x="999" y="410" on="0"/>
        <pt x="925" y="244" on="0"/>
        <pt x="821" y="115" on="0"/>
        <pt x="699" y="26" on="0"/>
        <pt x="561" y="-21" on="0"/>
      </contour>
    </TTGlyph>
    <TTGlyph name="afii10096" xMin="155" yMin="-21" xMax="1587" yMax="1168">
      <contour>
        <pt x="1164" y="1168" on="1"/>
        <pt x="1282" y="1168" on="0"/>
        <pt x="1444" y="1091" on="0"/>
        <pt x="1544" y="962" on="0"/>
        <pt x="1587" y="793" on="0"/>
        <pt x="1587" y="701" on="1"/>
        <pt x="1587" y="705" on="1"/>
        <pt x="1587" y="594" on="0"/>
        <pt x="1545" y="401" on="0"/>
        <pt x="1470" y="240" on="0"/>
        <pt x="1365" y="113" on="0"/>
        <pt x="1239" y="25" on="0"/>
        <pt x="1097" y="-21" on="0"/>
        <pt x="1022" y="-21" on="1"/>
        <pt x="819" y="-21" on="0"/>
        <pt x="604" y="200" on="0"/>
        <pt x="601" y="426" on="1"/>
        <pt x="601" y="451" on="0"/>
        <pt x="603" y="504" on="0"/>
        <pt x="605" y="532" on="1"/>
        <pt x="397" y="532" on="1"/>
        <pt x="324" y="0" on="1"/>
        <pt x="155" y="0" on="1"/>
        <pt x="316" y="1148" on="1"/>
        <pt x="484" y="1148" on="1"/>
        <pt x="413" y="642" on="1"/>
        <pt x="621" y="642" on="1"/>
        <pt x="645" y="754" on="0"/>
        <pt x="742" y="947" on="0"/>
        <pt x="881" y="1088" on="0"/>
        <pt x="1059" y="1168" on="0"/>
      </contour>
      <contour>
        <pt x="1029" y="106" on="1"/>
        <pt x="1128" y="106" on="0"/>
        <pt x="1267" y="193" on="0"/>
        <pt x="1314" y="263" on="1"/>
        <pt x="1345" y="310" on="0"/>
        <pt x="1387" y="419" on="0"/>
        <pt x="1414" y="535" on="0"/>
        <pt x="1426" y="652" on="0"/>
        <pt x="1426" y="706" on="1"/>
        <pt x="1426" y="765" on="0"/>
        <pt x="1414" y="816" on="1"/>
        <pt x="1403" y="867" on="0"/>
        <pt x="1359" y="949" on="0"/>
        <pt x="1293" y="1008" on="0"/>
        <pt x="1204" y="1040" on="0"/>
        <pt x="1148" y="1040" on="1"/>
        <pt x="1061" y="1040" on="0"/>
        <pt x="931" y="961" on="0"/>
        <pt x="883" y="892" on="1"/>
        <pt x="851" y="847" on="0"/>
        <pt x="805" y="739" on="0"/>
        <pt x="775" y="619" on="0"/>
        <pt x="760" y="492" on="0"/>
        <pt x="760" y="428" on="1"/>
        <pt x="763" y="277" on="0"/>
        <pt x="897" y="106" on="0"/>
      </contour>
    </TTGlyph>
    <TTGlyph name="afii10097" xMin="172" yMin="0" xMax="1170" yMax="1146">
      <contour>
        <pt x="410" y="733" on="1"/>
        <pt x="410" y="705" on="0"/>
        <pt x="416" y="677" on="1"/>
        <pt x="424" y="643" on="0"/>
        <pt x="465" y="579" on="0"/>
        <pt x="544" y="529" on="0"/>
        <pt x="668" y="499" on="0"/>
        <pt x="759" y="499" on="1"/>
        <pt x="880" y="499" on="1"/>
        <pt x="962" y="1025" on="1"/>
        <pt x="891" y="1025" on="0"/>
        <pt x="754" y="1019" on="0"/>
        <pt x="631" y="999" on="0"/>
        <pt x="528" y="961" on="0"/>
        <pt x="452" y="896" on="0"/>
        <pt x="410" y="800" on="0"/>
      </contour>
      <contour>
        <pt x="1126" y="996" on="1"/>
        <pt x="968" y="0" on="1"/>
        <pt x="800" y="0" on="1"/>
        <pt x="866" y="406" on="1"/>
        <pt x="678" y="406" on="1"/>
        <pt x="353" y="0" on="1"/>
        <pt x="172" y="0" on="1"/>
        <pt x="533" y="423" on="1"/>
        <pt x="465" y="435" on="0"/>
        <pt x="357" y="493" on="0"/>
        <pt x="280" y="571" on="0"/>
        <pt x="239" y="663" on="0"/>
        <pt x="239" y="710" on="1"/>
        <pt x="239" y="782" on="0"/>
        <pt x="271" y="896" on="0"/>
        <pt x="332" y="984" on="0"/>
        <pt x="423" y="1048" on="0"/>
        <pt x="483" y="1071" on="1"/>
        <pt x="604" y="1117" on="0"/>
        <pt x="950" y="1146" on="0"/>
        <pt x="1170" y="1146" on="1"/>
      </contour>
    </TTGlyph>
    <TTGlyph name="afii10099" xMin="153" yMin="-374" xMax="1166" yMax="1613">
      <contour>
        <pt x="1166" y="859" on="1"/>
        <pt x="1166" y="850" on="0"/>
        <pt x="1165" y="828" on="0"/>
        <pt x="1161" y="784" on="0"/>
        <pt x="1152" y="710" on="0"/>
        <pt x="1137" y="591" on="0"/>
        <pt x="1115" y="418" on="0"/>
        <pt x="1099" y="296" on="1"/>
        <pt x="1085" y="191" on="0"/>
        <pt x="1023" y="17" on="0"/>
        <pt x="939" y="-123" on="0"/>
        <pt x="838" y="-231" on="0"/>
        <pt x="732" y="-310" on="0"/>
        <pt x="626" y="-361" on="0"/>
        <pt x="580" y="-374" on="1"/>
        <pt x="552" y="-266" on="1"/>
        <pt x="594" y="-236" on="0"/>
        <pt x="673" y="-186" on="0"/>
        <pt x="744" y="-130" on="0"/>
        <pt x="808" y="-62" on="0"/>
        <pt x="835" y="-15" on="1"/>
        <pt x="867" y="42" on="0"/>
        <pt x="914" y="198" on="0"/>
        <pt x="929" y="312" on="1"/>
        <pt x="942" y="408" on="0"/>
        <pt x="962" y="550" on="0"/>
        <pt x="977" y="653" on="0"/>
        <pt x="986" y="722" on="0"/>
        <pt x="992" y="770" on="0"/>
        <pt x="995" y="801" on="0"/>
        <pt x="995" y="814" on="1"/>
        <pt x="995" y="897" on="0"/>
        <pt x="976" y="945" on="1"/>
        <pt x="957" y="993" on="0"/>
        <pt x="882" y="1041" on="0"/>
        <pt x="821" y="1041" on="1"/>
        <pt x="761" y="1041" on="0"/>
        <pt x="643" y="1003" on="0"/>
        <pt x="541" y="949" on="0"/>
        <pt x="463" y="891" on="0"/>
        <pt x="444" y="870" on="1"/>
        <pt x="322" y="0" on="1"/>
        <pt x="153" y="0" on="1"/>
        <pt x="341" y="1348" on="1"/>
        <pt x="194" y="1348" on="1"/>
        <pt x="206" y="1435" on="1"/>
        <pt x="354" y="1435" on="1"/>
        <pt x="374" y="1575" on="1"/>
        <pt x="548" y="1613" on="1"/>
        <pt x="523" y="1435" on="1"/>
        <pt x="1016" y="1435" on="1"/>
        <pt x="1003" y="1348" on="1"/>
        <pt x="510" y="1348" on="1"/>
        <pt x="458" y="965" on="1"/>
        <pt x="522" y="1029" on="0"/>
        <pt x="623" y="1108" on="0"/>
        <pt x="714" y="1152" on="0"/>
        <pt x="800" y="1168" on="0"/>
        <pt x="849" y="1168" on="1"/>
        <pt x="1006" y="1168" on="0"/>
        <pt x="1165" y="1013" on="0"/>
        <pt x="1165" y="854" on="1"/>
        <pt x="1165" y="858" on="0"/>
      </contour>
    </TTGlyph>
    <TTGlyph name="afii10100" xMin="154" yMin="-21" xMax="980" yMax="1945">
      <component glyphName="acute" x="176" y="1207" flags="0x4"/>
      <component glyphName="afii10068" x="0" y="0" flags="0x4"/>
    </TTGlyph>
    <TTGlyph name="afii10101" xMin="176" yMin="-21" xMax="1079" yMax="1168">
      <contour>
        <pt x="731" y="1168" on="1"/>
        <pt x="757" y="1168" on="0"/>
        <pt x="808" y="1165" on="0"/>
        <pt x="833" y="1160" on="1"/>
        <pt x="902" y="1146" on="0"/>
        <pt x="1025" y="1084" on="0"/>
        <pt x="1079" y="1033" on="1"/>
        <pt x="1009" y="907" on="1"/>
        <pt x="954" y="967" on="0"/>
        <pt x="828" y="1040" on="0"/>
        <pt x="756" y="1040" on="1"/>
        <pt x="596" y="1040" on="0"/>
        <pt x="412" y="837" on="0"/>
        <pt x="370" y="641" on="1"/>
        <pt x="740" y="641" on="1"/>
        <pt x="722" y="530" on="1"/>
        <pt x="351" y="530" on="1"/>
        <pt x="346" y="500" on="0"/>
        <pt x="343" y="444" on="0"/>
        <pt x="343" y="419" on="1"/>
        <pt x="343" y="270" on="0"/>
        <pt x="457" y="105" on="0"/>
        <pt x="574" y="105" on="1"/>
        <pt x="597" y="105" on="0"/>
        <pt x="642" y="111" on="0"/>
        <pt x="665" y="116" on="1"/>
        <pt x="731" y="131" on="0"/>
        <pt x="849" y="194" on="0"/>
        <pt x="903" y="239" on="1"/>
        <pt x="934" y="112" on="1"/>
        <pt x="745" y="-21" on="0"/>
        <pt x="544" y="-21" on="1"/>
        <pt x="461" y="-21" on="0"/>
        <pt x="325" y="36" on="0"/>
        <pt x="229" y="147" on="0"/>
        <pt x="176" y="308" on="0"/>
        <pt x="176" y="412" on="1"/>
        <pt x="176" y="527" on="0"/>
        <pt x="219" y="728" on="0"/>
        <pt x="296" y="896" on="0"/>
        <pt x="401" y="1029" on="0"/>
        <pt x="524" y="1120" on="0"/>
        <pt x="661" y="1168" on="0"/>
      </contour>
    </TTGlyph>
    <TTGlyph name="afii10102" xMin="122" yMin="-21" xMax="970" yMax="1168">
      <contour>
        <pt x="231" y="874" on="1"/>
        <pt x="231" y="947" on="0"/>
        <pt x="292" y="1057" on="0"/>
        <pt x="396" y="1131" on="0"/>
        <pt x="535" y="1168" on="0"/>
        <pt x="614" y="1168" on="1"/>
        <pt x="668" y="1168" on="0"/>
        <pt x="770" y="1144" on="0"/>
        <pt x="861" y="1108" on="0"/>
        <pt x="940" y="1064" on="0"/>
        <pt x="970" y="1044" on="1"/>
        <pt x="901" y="937" on="1"/>
        <pt x="871" y="955" on="0"/>
        <pt x="802" y="992" on="0"/>
        <pt x="728" y="1022" on="0"/>
        <pt x="650" y="1041" on="0"/>
        <pt x="611" y="1041" on="1"/>
        <pt x="561" y="1041" on="0"/>
        <pt x="476" y="1022" on="0"/>
        <pt x="413" y="984" on="0"/>
        <pt x="377" y="928" on="0"/>
        <pt x="377" y="892" on="1"/>
        <pt x="377" y="860" on="0"/>
        <pt x="390" y="815" on="0"/>
        <pt x="421" y="780" on="0"/>
        <pt x="471" y="751" on="0"/>
        <pt x="508" y="736" on="1"/>
        <pt x="654" y="676" on="1"/>
        <pt x="703" y="656" on="0"/>
        <pt x="796" y="603" on="0"/>
        <pt x="870" y="533" on="0"/>
        <pt x="915" y="442" on="0"/>
        <pt x="915" y="385" on="1"/>
        <pt x="915" y="287" on="0"/>
        <pt x="842" y="136" on="0"/>
        <pt x="723" y="32" on="0"/>
        <pt x="570" y="-21" on="0"/>
        <pt x="490" y="-21" on="1"/>
        <pt x="413" y="-21" on="0"/>
        <pt x="295" y="3" on="0"/>
        <pt x="206" y="40" on="0"/>
        <pt x="143" y="84" on="0"/>
        <pt x="122" y="104" on="1"/>
        <pt x="199" y="220" on="1"/>
        <pt x="224" y="200" on="0"/>
        <pt x="286" y="159" on="0"/>
        <pt x="357" y="125" on="0"/>
        <pt x="436" y="104" on="0"/>
        <pt x="479" y="104" on="1"/>
        <pt x="538" y="104" on="0"/>
        <pt x="640" y="137" on="0"/>
        <pt x="715" y="200" on="0"/>
        <pt x="758" y="292" on="0"/>
        <pt x="758" y="352" on="1"/>
        <pt x="758" y="377" on="0"/>
        <pt x="742" y="419" on="0"/>
        <pt x="707" y="456" on="0"/>
        <pt x="649" y="490" on="0"/>
        <pt x="607" y="508" on="1"/>
        <pt x="455" y="571" on="1"/>
        <pt x="400" y="593" on="0"/>
        <pt x="317" y="645" on="0"/>
        <pt x="260" y="716" on="0"/>
        <pt x="231" y="810" on="0"/>
      </contour>
    </TTGlyph>
    <TTGlyph name="afii10103" xMin="209" yMin="0" xMax="597" yMax="1572">
      <contour>
        <pt x="597" y="1486" on="1"/>
        <pt x="597" y="1458" on="0"/>
        <pt x="580" y="1408" on="0"/>
        <pt x="550" y="1371" on="0"/>
        <pt x="508" y="1349" on="0"/>
        <pt x="482" y="1349" on="1"/>
        <pt x="440" y="1349" on="0"/>
        <pt x="396" y="1403" on="0"/>
        <pt x="396" y="1441" on="1"/>
        <pt x="396" y="1466" on="0"/>
        <pt x="414" y="1513" on="0"/>
        <pt x="446" y="1550" on="0"/>
        <pt x="489" y="1572" on="0"/>
        <pt x="514" y="1572" on="1"/>
        <pt x="551" y="1572" on="0"/>
        <pt x="597" y="1522" on="0"/>
        <pt x="597" y="1484" on="1"/>
      </contour>
      <contour>
        <pt x="370" y="0" on="1"/>
        <pt x="209" y="0" on="1"/>
        <pt x="370" y="1147" on="1"/>
        <pt x="533" y="1147" on="1"/>
      </contour>
    </TTGlyph>
    <TTGlyph name="afii10104" xMin="185" yMin="0" xMax="834" yMax="1575">
      <contour>
        <pt x="370" y="0" on="1"/>
        <pt x="209" y="0" on="1"/>
        <pt x="370" y="1146" on="1"/>
        <pt x="533" y="1146" on="1"/>
      </contour>
      <contour>
        <pt x="386" y="1489" on="1"/>
        <pt x="386" y="1461" on="0"/>
        <pt x="369" y="1411" on="0"/>
        <pt x="339" y="1374" on="0"/>
        <pt x="296" y="1352" on="0"/>
        <pt x="270" y="1352" on="1"/>
        <pt x="228" y="1352" on="0"/>
        <pt x="185" y="1406" on="0"/>
        <pt x="185" y="1444" on="1"/>
        <pt x="185" y="1469" on="0"/>
        <pt x="203" y="1516" on="0"/>
        <pt x="235" y="1553" on="0"/>
        <pt x="278" y="1575" on="0"/>
        <pt x="303" y="1575" on="1"/>
        <pt x="341" y="1575" on="0"/>
        <pt x="386" y="1526" on="0"/>
        <pt x="386" y="1487" on="1"/>
      </contour>
      <contour>
        <pt x="834" y="1489" on="1"/>
        <pt x="834" y="1461" on="0"/>
        <pt x="817" y="1411" on="0"/>
        <pt x="785" y="1374" on="0"/>
        <pt x="742" y="1352" on="0"/>
        <pt x="717" y="1352" on="1"/>
        <pt x="675" y="1352" on="0"/>
        <pt x="631" y="1406" on="0"/>
        <pt x="632" y="1444" on="1"/>
        <pt x="632" y="1469" on="0"/>
        <pt x="650" y="1516" on="0"/>
        <pt x="682" y="1553" on="0"/>
        <pt x="725" y="1575" on="0"/>
        <pt x="750" y="1575" on="1"/>
        <pt x="788" y="1575" on="0"/>
        <pt x="834" y="1526" on="0"/>
        <pt x="834" y="1487" on="1"/>
      </contour>
    </TTGlyph>
    <TTGlyph name="afii10105" xMin="-19" yMin="-374" xMax="580" yMax="1572">
      <contour>
        <pt x="580" y="1486" on="1"/>
        <pt x="580" y="1458" on="0"/>
        <pt x="563" y="1408" on="0"/>
        <pt x="532" y="1371" on="0"/>
        <pt x="489" y="1349" on="0"/>
        <pt x="464" y="1349" on="1"/>
        <pt x="422" y="1349" on="0"/>
        <pt x="378" y="1403" on="0"/>
        <pt x="378" y="1441" on="1"/>
        <pt x="378" y="1466" on="0"/>
        <pt x="396" y="1513" on="0"/>
        <pt x="428" y="1550" on="0"/>
        <pt x="471" y="1572" on="0"/>
        <pt x="496" y="1572" on="1"/>
        <pt x="534" y="1572" on="0"/>
        <pt x="580" y="1522" on="0"/>
        <pt x="580" y="1484" on="1"/>
      </contour>
      <contour>
        <pt x="-19" y="-265" on="1"/>
        <pt x="42" y="-226" on="0"/>
        <pt x="121" y="-141" on="0"/>
        <pt x="172" y="-37" on="0"/>
        <pt x="202" y="91" on="0"/>
        <pt x="214" y="173" on="1"/>
        <pt x="353" y="1147" on="1"/>
        <pt x="522" y="1147" on="1"/>
        <pt x="381" y="151" on="1"/>
        <pt x="366" y="47" on="0"/>
        <pt x="301" y="-128" on="0"/>
        <pt x="205" y="-264" on="0"/>
        <pt x="80" y="-355" on="0"/>
        <pt x="6" y="-374" on="1"/>
      </contour>
    </TTGlyph>
    <TTGlyph name="afii10106" xMin="-7" yMin="-21" xMax="1821" yMax="1147">
      <contour>
        <pt x="919" y="0" on="1"/>
        <pt x="954" y="248" on="0"/>
        <pt x="1025" y="755" on="0"/>
        <pt x="1063" y="1026" on="1"/>
        <pt x="565" y="1026" on="1"/>
        <pt x="503" y="561" on="1"/>
        <pt x="484" y="414" on="0"/>
        <pt x="422" y="196" on="0"/>
        <pt x="308" y="51" on="0"/>
        <pt x="129" y="-21" on="0"/>
        <pt x="-7" y="-21" on="1"/>
        <pt x="11" y="115" on="1"/>
        <pt x="86" y="119" on="0"/>
        <pt x="190" y="154" on="0"/>
        <pt x="261" y="227" on="0"/>
        <pt x="303" y="345" on="0"/>
        <pt x="315" y="433" on="1"/>
        <pt x="341" y="614" on="0"/>
        <pt x="389" y="966" on="0"/>
        <pt x="412" y="1147" on="1"/>
        <pt x="1249" y="1147" on="1"/>
        <pt x="1194" y="759" on="1"/>
        <pt x="1266" y="759" on="0"/>
        <pt x="1392" y="751" on="0"/>
        <pt x="1446" y="743" on="1"/>
        <pt x="1524" y="732" on="0"/>
        <pt x="1642" y="694" on="0"/>
        <pt x="1726" y="642" on="0"/>
        <pt x="1781" y="579" on="0"/>
        <pt x="1797" y="543" on="1"/>
        <pt x="1808" y="518" on="0"/>
        <pt x="1819" y="462" on="0"/>
        <pt x="1820" y="431" on="1"/>
        <pt x="1821" y="305" on="0"/>
        <pt x="1712" y="139" on="0"/>
        <pt x="1516" y="40" on="0"/>
        <pt x="1247" y="0" on="0"/>
        <pt x="1090" y="0" on="1"/>
      </contour>
      <contour>
        <pt x="1094" y="123" on="1"/>
        <pt x="1224" y="123" on="0"/>
        <pt x="1432" y="150" on="0"/>
        <pt x="1578" y="221" on="0"/>
        <pt x="1657" y="345" on="0"/>
        <pt x="1657" y="442" on="1"/>
        <pt x="1657" y="514" on="0"/>
        <pt x="1548" y="603" on="0"/>
        <pt x="1439" y="624" on="1"/>
        <pt x="1329" y="645" on="0"/>
        <pt x="1177" y="645" on="1"/>
        <pt x="1116" y="213" on="1"/>
        <pt x="1110" y="190" on="0"/>
        <pt x="1099" y="146" on="0"/>
      </contour>
    </TTGlyph>
    <TTGlyph name="afii10107" xMin="155" yMin="0" xMax="1787" yMax="1147">
      <contour>
        <pt x="316" y="1147" on="1"/>
        <pt x="486" y="1147" on="1"/>
        <pt x="420" y="672" on="1"/>
        <pt x="980" y="672" on="1"/>
        <pt x="1046" y="1147" on="1"/>
        <pt x="1213" y="1147" on="1"/>
        <pt x="1160" y="759" on="1"/>
        <pt x="1308" y="759" on="0"/>
        <pt x="1523" y="723" on="0"/>
        <pt x="1598" y="691" on="1"/>
        <pt x="1673" y="658" on="0"/>
        <pt x="1759" y="565" on="0"/>
        <pt x="1775" y="505" on="1"/>
        <pt x="1781" y="485" on="0"/>
        <pt x="1786" y="443" on="0"/>
        <pt x="1786" y="420" on="1"/>
        <pt x="1787" y="346" on="0"/>
        <pt x="1744" y="228" on="0"/>
        <pt x="1663" y="137" on="0"/>
        <pt x="1548" y="71" on="0"/>
        <pt x="1476" y="50" on="1"/>
        <pt x="1388" y="24" on="0"/>
        <pt x="1180" y="0" on="0"/>
        <pt x="1063" y="0" on="1"/>
        <pt x="885" y="0" on="1"/>
        <pt x="963" y="562" on="1"/>
        <pt x="404" y="562" on="1"/>
        <pt x="325" y="0" on="1"/>
        <pt x="155" y="0" on="1"/>
      </contour>
      <contour>
        <pt x="1625" y="431" on="1"/>
        <pt x="1624" y="442" on="0"/>
        <pt x="1623" y="457" on="0"/>
        <pt x="1621" y="466" on="1"/>
        <pt x="1615" y="497" on="0"/>
        <pt x="1578" y="551" on="0"/>
        <pt x="1510" y="594" on="0"/>
        <pt x="1408" y="625" on="0"/>
        <pt x="1336" y="634" on="1"/>
        <pt x="1294" y="639" on="0"/>
        <pt x="1198" y="645" on="0"/>
        <pt x="1143" y="645" on="1"/>
        <pt x="1070" y="122" on="1"/>
        <pt x="1113" y="122" on="0"/>
        <pt x="1155" y="125" on="1"/>
        <pt x="1233" y="128" on="0"/>
        <pt x="1302" y="140" on="1"/>
        <pt x="1380" y="152" on="0"/>
        <pt x="1500" y="196" on="0"/>
        <pt x="1583" y="267" on="0"/>
        <pt x="1625" y="365" on="0"/>
      </contour>
    </TTGlyph>
    <TTGlyph name="afii10108" xMin="152" yMin="-3" xMax="1158" yMax="1609">
      <contour>
        <pt x="520" y="1431" on="1"/>
        <pt x="1135" y="1431" on="1"/>
        <pt x="1120" y="1322" on="1"/>
        <pt x="505" y="1322" on="1"/>
        <pt x="455" y="961" on="1"/>
        <pt x="486" y="993" on="0"/>
        <pt x="543" y="1044" on="0"/>
        <pt x="568" y="1064" on="1"/>
        <pt x="606" y="1094" on="0"/>
        <pt x="674" y="1133" on="0"/>
        <pt x="740" y="1155" on="0"/>
        <pt x="807" y="1164" on="0"/>
        <pt x="844" y="1164" on="1"/>
        <pt x="917" y="1164" on="0"/>
        <pt x="1033" y="1126" on="0"/>
        <pt x="1114" y="1048" on="0"/>
        <pt x="1158" y="930" on="0"/>
        <pt x="1158" y="849" on="1"/>
        <pt x="1158" y="841" on="0"/>
        <pt x="1145" y="736" on="0"/>
        <pt x="1135" y="659" on="1"/>
        <pt x="1127" y="596" on="0"/>
        <pt x="1107" y="448" on="0"/>
        <pt x="1087" y="300" on="0"/>
        <pt x="1069" y="162" on="0"/>
        <pt x="1055" y="58" on="0"/>
        <pt x="1047" y="-3" on="0"/>
        <pt x="1048" y="0" on="1"/>
        <pt x="882" y="0" on="1"/>
        <pt x="882" y="-2" on="0"/>
        <pt x="888" y="42" on="0"/>
        <pt x="899" y="122" on="0"/>
        <pt x="914" y="230" on="0"/>
        <pt x="930" y="350" on="0"/>
        <pt x="947" y="478" on="0"/>
        <pt x="963" y="596" on="0"/>
        <pt x="977" y="699" on="0"/>
        <pt x="982" y="736" on="1"/>
        <pt x="986" y="767" on="0"/>
        <pt x="990" y="805" on="0"/>
        <pt x="990" y="809" on="1"/>
        <pt x="990" y="925" on="0"/>
        <pt x="914" y="1037" on="0"/>
        <pt x="819" y="1037" on="1"/>
        <pt x="760" y="1037" on="0"/>
        <pt x="642" y="999" on="0"/>
        <pt x="539" y="945" on="0"/>
        <pt x="460" y="886" on="0"/>
        <pt x="441" y="866" on="1"/>
        <pt x="319" y="0" on="1"/>
        <pt x="152" y="0" on="1"/>
        <pt x="338" y="1322" on="1"/>
        <pt x="194" y="1322" on="1"/>
        <pt x="208" y="1431" on="1"/>
        <pt x="353" y="1431" on="1"/>
        <pt x="374" y="1571" on="1"/>
        <pt x="545" y="1609" on="1"/>
      </contour>
    </TTGlyph>
    <TTGlyph name="afii10109" xMin="155" yMin="0" xMax="1189" yMax="1945">
      <component glyphName="acute" x="284" y="1207" flags="0x4"/>
      <component glyphName="afii10076" x="0" y="0" flags="0x4"/>
    </TTGlyph>
    <TTGlyph name="afii10110" xMin="81" yMin="-458" xMax="1159" yMax="1510">
      <component glyphName="uni0306" x="358" y="1207" flags="0x4"/>
      <component glyphName="afii10085" x="0" y="0" flags="0x4"/>
    </TTGlyph>
    <TTGlyph name="afii10145" xMin="146" yMin="-421" xMax="1491" yMax="1577">
      <contour>
        <pt x="1269" y="0" on="1"/>
        <pt x="796" y="0" on="1"/>
        <pt x="736" y="-421" on="1"/>
        <pt x="587" y="-421" on="1"/>
        <pt x="646" y="0" on="1"/>
        <pt x="146" y="0" on="1"/>
        <pt x="368" y="1577" on="1"/>
        <pt x="538" y="1577" on="1"/>
        <pt x="335" y="138" on="1"/>
        <pt x="1117" y="138" on="1"/>
        <pt x="1320" y="1577" on="1"/>
        <pt x="1491" y="1577" on="1"/>
      </contour>
    </TTGlyph>
    <TTGlyph name="afii10193" xMin="198" yMin="-363" xMax="1184" yMax="1147">
      <contour>
        <pt x="203" y="316" on="1"/>
        <pt x="203" y="322" on="0"/>
        <pt x="203" y="341" on="0"/>
        <pt x="208" y="396" on="0"/>
        <pt x="221" y="500" on="0"/>
        <pt x="244" y="681" on="0"/>
        <pt x="282" y="952" on="0"/>
        <pt x="310" y="1147" on="1"/>
        <pt x="477" y="1147" on="1"/>
        <pt x="450" y="953" on="0"/>
        <pt x="412" y="684" on="0"/>
        <pt x="388" y="505" on="0"/>
        <pt x="374" y="403" on="0"/>
        <pt x="368" y="350" on="0"/>
        <pt x="368" y="332" on="0"/>
        <pt x="369" y="327" on="1"/>
        <pt x="370" y="209" on="0"/>
        <pt x="464" y="103" on="0"/>
        <pt x="555" y="105" on="1"/>
        <pt x="643" y="105" on="0"/>
        <pt x="806" y="192" on="0"/>
        <pt x="894" y="274" on="1"/>
        <pt x="1017" y="1147" on="1"/>
        <pt x="1184" y="1147" on="1"/>
        <pt x="1023" y="0" on="1"/>
        <pt x="898" y="0" on="1"/>
        <pt x="904" y="184" on="1"/>
        <pt x="744" y="18" on="0"/>
        <pt x="583" y="-9" on="1"/>
        <pt x="569" y="-97" on="0"/>
        <pt x="544" y="-273" on="0"/>
        <pt x="531" y="-363" on="1"/>
        <pt x="387" y="-363" on="1"/>
        <pt x="438" y="-14" on="1"/>
        <pt x="317" y="8" on="0"/>
        <pt x="198" y="171" on="0"/>
      </contour>
    </TTGlyph>
    <TTGlyph name="afii61352" xMin="137" yMin="-21" xMax="2824" yMax="1577">
      <contour>
        <pt x="2256" y="105" on="1"/>
        <pt x="2356" y="105" on="0"/>
        <pt x="2499" y="196" on="0"/>
        <pt x="2546" y="267" on="1"/>
        <pt x="2578" y="315" on="0"/>
        <pt x="2622" y="425" on="0"/>
        <pt x="2650" y="539" on="0"/>
        <pt x="2663" y="653" on="0"/>
        <pt x="2663" y="704" on="1"/>
        <pt x="2663" y="772" on="0"/>
        <pt x="2638" y="893" on="0"/>
        <pt x="2577" y="984" on="0"/>
        <pt x="2477" y="1037" on="0"/>
        <pt x="2402" y="1037" on="1"/>
        <pt x="2336" y="1037" on="0"/>
        <pt x="2231" y="994" on="0"/>
        <pt x="2188" y="958" on="1"/>
        <pt x="2134" y="912" on="0"/>
        <pt x="2060" y="783" on="0"/>
        <pt x="2014" y="640" on="0"/>
        <pt x="1993" y="495" on="0"/>
        <pt x="1993" y="433" on="1"/>
        <pt x="1993" y="366" on="0"/>
        <pt x="2018" y="247" on="0"/>
        <pt x="2079" y="157" on="0"/>
        <pt x="2180" y="105" on="0"/>
      </contour>
      <contour>
        <pt x="2422" y="1164" on="1"/>
        <pt x="2542" y="1164" on="0"/>
        <pt x="2698" y="1087" on="0"/>
        <pt x="2788" y="962" on="0"/>
        <pt x="2823" y="805" on="0"/>
        <pt x="2823" y="725" on="1"/>
        <pt x="2823" y="728" on="0"/>
        <pt x="2824" y="729" on="1"/>
        <pt x="2824" y="619" on="0"/>
        <pt x="2782" y="422" on="0"/>
        <pt x="2705" y="256" on="0"/>
        <pt x="2597" y="122" on="0"/>
        <pt x="2466" y="29" on="0"/>
        <pt x="2315" y="-21" on="0"/>
        <pt x="2234" y="-21" on="1"/>
        <pt x="2144" y="-21" on="0"/>
        <pt x="1996" y="41" on="0"/>
        <pt x="1891" y="157" on="0"/>
        <pt x="1834" y="324" on="0"/>
        <pt x="1834" y="429" on="1"/>
        <pt x="1834" y="498" on="0"/>
        <pt x="1852" y="635" on="0"/>
        <pt x="1872" y="701" on="1"/>
        <pt x="1900" y="795" on="0"/>
        <pt x="1996" y="964" on="0"/>
        <pt x="2133" y="1090" on="0"/>
        <pt x="2311" y="1164" on="0"/>
      </contour>
      <contour>
        <pt x="1087" y="0" on="1"/>
        <pt x="513" y="1451" on="1"/>
        <pt x="309" y="0" on="1"/>
        <pt x="137" y="0" on="1"/>
        <pt x="359" y="1577" on="1"/>
        <pt x="626" y="1577" on="1"/>
        <pt x="1199" y="126" on="1"/>
        <pt x="1404" y="1577" on="1"/>
        <pt x="1576" y="1577" on="1"/>
        <pt x="1354" y="0" on="1"/>
      </contour>
    </TTGlyph>
    <TTGlyph name="agrave" xMin="176" yMin="-21" xMax="1133" yMax="1930">
      <component glyphName="a" x="0" y="0" flags="0x204"/>
      <component glyphName="grave" x="347" y="1168" flags="0x4"/>
    </TTGlyph>
    <TTGlyph name="amacron" xMin="176" yMin="-21" xMax="1133" yMax="1168">
      <component glyphName="a" x="0" y="0" flags="0x4"/>
    </TTGlyph>
    <TTGlyph name="ampersand" xMin="110" yMin="-39" xMax="1403" yMax="1435">
      <contour>
        <pt x="637" y="848" on="1"/>
        <pt x="655" y="855" on="0"/>
        <pt x="692" y="867" on="0"/>
        <pt x="709" y="875" on="1"/>
        <pt x="758" y="895" on="0"/>
        <pt x="840" y="942" on="0"/>
        <pt x="900" y="1006" on="0"/>
        <pt x="933" y="1089" on="0"/>
        <pt x="933" y="1145" on="1"/>
        <pt x="933" y="1221" on="0"/>
        <pt x="828" y="1305" on="0"/>
        <pt x="732" y="1305" on="1"/>
        <pt x="650" y="1305" on="0"/>
        <pt x="552" y="1261" on="0"/>
        <pt x="499" y="1196" on="0"/>
        <pt x="483" y="1124" on="0"/>
        <pt x="483" y="1097" on="1"/>
        <pt x="483" y="1058" on="0"/>
        <pt x="518" y="985" on="0"/>
        <pt x="567" y="920" on="0"/>
        <pt x="619" y="867" on="0"/>
      </contour>
      <contour>
        <pt x="1078" y="1159" on="1"/>
        <pt x="1078" y="1068" on="0"/>
        <pt x="1020" y="937" on="0"/>
        <pt x="921" y="843" on="0"/>
        <pt x="790" y="780" on="0"/>
        <pt x="717" y="757" on="1"/>
        <pt x="1109" y="354" on="1"/>
        <pt x="1163" y="448" on="0"/>
        <pt x="1244" y="641" on="0"/>
        <pt x="1276" y="744" on="1"/>
        <pt x="1403" y="744" on="1"/>
        <pt x="1385" y="686" on="0"/>
        <pt x="1340" y="561" on="0"/>
        <pt x="1288" y="437" on="0"/>
        <pt x="1230" y="317" on="0"/>
        <pt x="1199" y="264" on="1"/>
        <pt x="1385" y="93" on="1"/>
        <pt x="1294" y="-5" on="1"/>
        <pt x="1130" y="165" on="1"/>
        <pt x="1089" y="106" on="0"/>
        <pt x="990" y="27" on="0"/>
        <pt x="862" y="-20" on="0"/>
        <pt x="699" y="-39" on="0"/>
        <pt x="594" y="-39" on="1"/>
        <pt x="485" y="-39" on="0"/>
        <pt x="307" y="9" on="0"/>
        <pt x="180" y="101" on="0"/>
        <pt x="110" y="232" on="0"/>
        <pt x="110" y="315" on="1"/>
        <pt x="110" y="386" on="0"/>
        <pt x="157" y="534" on="0"/>
        <pt x="254" y="667" on="0"/>
        <pt x="405" y="775" on="0"/>
        <pt x="510" y="807" on="1"/>
        <pt x="476" y="843" on="0"/>
        <pt x="413" y="913" on="0"/>
        <pt x="364" y="985" on="0"/>
        <pt x="335" y="1059" on="0"/>
        <pt x="335" y="1100" on="1"/>
        <pt x="335" y="1128" on="0"/>
        <pt x="349" y="1199" on="0"/>
        <pt x="384" y="1274" on="0"/>
        <pt x="444" y="1345" on="0"/>
        <pt x="537" y="1401" on="0"/>
        <pt x="666" y="1435" on="0"/>
        <pt x="752" y="1435" on="1"/>
        <pt x="833" y="1435" on="0"/>
        <pt x="955" y="1395" on="0"/>
        <pt x="1037" y="1322" on="0"/>
        <pt x="1078" y="1220" on="0"/>
      </contour>
      <contour>
        <pt x="579" y="716" on="1"/>
        <pt x="510" y="701" on="0"/>
        <pt x="393" y="633" on="0"/>
        <pt x="307" y="537" on="0"/>
        <pt x="258" y="417" on="0"/>
        <pt x="258" y="350" on="1"/>
        <pt x="258" y="282" on="0"/>
        <pt x="309" y="183" on="0"/>
        <pt x="402" y="118" on="0"/>
        <pt x="533" y="87" on="0"/>
        <pt x="613" y="87" on="1"/>
        <pt x="694" y="87" on="0"/>
        <pt x="815" y="97" on="0"/>
        <pt x="912" y="132" on="0"/>
        <pt x="995" y="197" on="0"/>
        <pt x="1038" y="252" on="1"/>
      </contour>
    </TTGlyph>
    <TTGlyph name="aogonek" xMin="176" yMin="-21" xMax="1133" yMax="1168">
      <component glyphName="a" x="0" y="0" flags="0x4"/>
    </TTGlyph>
    <TTGlyph name="aring" xMin="176" yMin="-21" xMax="1133" yMax="1685">
      <component glyphName="a" x="0" y="0" flags="0x204"/>
      <component glyphName="ring" x="550" y="1168" flags="0x4"/>
    </TTGlyph>
    <TTGlyph name="aringacute" xMin="176" yMin="-21" xMax="1133" yMax="1168">
      <component glyphName="a" x="0" y="0" flags="0x4"/>
    </TTGlyph>
    <TTGlyph name="asciicircum" xMin="420" yMin="347" xMax="961" yMax="871">
      <contour>
        <pt x="747" y="871" on="1"/>
        <pt x="854" y="871" on="1"/>
        <pt x="961" y="347" on="1"/>
        <pt x="831" y="347" on="1"/>
        <pt x="769" y="665" on="1"/>
        <pt x="573" y="347" on="1"/>
        <pt x="420" y="347" on="1"/>
      </contour>
    </TTGlyph>
    <TTGlyph name="asciitilde" xMin="55" yMin="123" xMax="790" yMax="383">
      <contour>
        <pt x="575" y="123" on="1"/>
        <pt x="533" y="123" on="0"/>
        <pt x="441" y="160" on="0"/>
        <pt x="356" y="204" on="0"/>
        <pt x="288" y="241" on="0"/>
        <pt x="271" y="241" on="1"/>
        <pt x="236" y="241" on="0"/>
        <pt x="205" y="184" on="0"/>
        <pt x="198" y="127" on="1"/>
        <pt x="55" y="127" on="1"/>
        <pt x="72" y="259" on="0"/>
        <pt x="183" y="383" on="0"/>
        <pt x="277" y="383" on="1"/>
        <pt x="324" y="383" on="0"/>
        <pt x="405" y="345" on="0"/>
        <pt x="478" y="298" on="0"/>
        <pt x="544" y="260" on="0"/>
        <pt x="577" y="260" on="1"/>
        <pt x="610" y="260" on="0"/>
        <pt x="640" y="319" on="0"/>
        <pt x="647" y="370" on="1"/>
        <pt x="790" y="370" on="1"/>
        <pt x="773" y="242" on="0"/>
        <pt x="669" y="123" on="0"/>
      </contour>
    </TTGlyph>
    <TTGlyph name="asterisk" xMin="141" yMin="819" xMax="885" yMax="1565">
      <contour>
        <pt x="527" y="1285" on="1"/>
        <pt x="711" y="1565" on="1"/>
        <pt x="795" y="1512" on="1"/>
        <pt x="589" y="1232" on="1"/>
        <pt x="885" y="1232" on="1"/>
        <pt x="869" y="1137" on="1"/>
        <pt x="580" y="1137" on="1"/>
        <pt x="692" y="872" on="1"/>
        <pt x="582" y="819" on="1"/>
        <pt x="488" y="1066" on="1"/>
        <pt x="318" y="819" on="1"/>
        <pt x="234" y="872" on="1"/>
        <pt x="433" y="1145" on="1"/>
        <pt x="141" y="1145" on="1"/>
        <pt x="156" y="1245" on="1"/>
        <pt x="446" y="1245" on="1"/>
        <pt x="335" y="1508" on="1"/>
        <pt x="437" y="1561" on="1"/>
      </contour>
    </TTGlyph>
</ttFont>
